<svg width="358" height="538" viewBox="0 0 358 538" fill="none" xmlns="http://www.w3.org/2000/svg">
<path d="M598.594 384.897V384.897C496.193 409.035 389.319 369.252 327.626 284.031V284.031V284.031C265.933 198.809 159.06 159.026 56.6584 183.164V183.164" stroke="#DDE3FE" stroke-linecap="round" stroke-linejoin="round"/>
<path d="M587.07 415.853V415.853C484.669 439.992 377.795 400.209 316.102 314.987V314.987V314.987C254.409 229.766 147.535 189.983 45.1342 214.121V214.121" stroke="#DDE3FE" stroke-linecap="round" stroke-linejoin="round"/>
<path d="M575.547 446.811V446.811C473.146 470.949 366.272 431.166 304.579 345.945V345.945V345.945C242.886 260.724 136.013 220.941 33.6115 245.079V245.079" stroke="#DDE3FE" stroke-linecap="round" stroke-linejoin="round"/>
<path d="M610.117 353.939V353.939C507.716 378.077 400.843 338.294 339.15 253.073V253.073V253.073C277.457 167.851 170.583 128.068 68.1819 152.207V152.207" stroke="#DDE3FE" stroke-linecap="round" stroke-linejoin="round"/>
<path d="M621.641 322.982V322.982C519.24 347.121 412.366 307.337 350.673 222.116V222.116V222.116C288.98 136.895 182.107 97.112 79.7056 121.25V121.25" stroke="#DDE3FE" stroke-linecap="round" stroke-linejoin="round"/>
<path d="M633.165 292.024V292.024C530.763 316.163 423.89 276.38 362.197 191.158V191.158V191.158C300.504 105.937 193.63 66.154 91.2291 90.2922V90.2922" stroke="#DDE3FE" stroke-linecap="round" stroke-linejoin="round"/>
</svg>
