<svg width="621" height="411" viewBox="0 0 621 411" fill="none" xmlns="http://www.w3.org/2000/svg">
<path d="M812.624 220.933L765.256 246.795C668.673 299.527 552.087 300.328 454.789 248.927L407.071 223.719L359.353 198.51C262.055 147.109 145.468 147.91 48.8857 200.642L1.51814 226.504" stroke="#DDE3FE" stroke-linecap="round" stroke-linejoin="round"/>
<path d="M812.879 258.274L765.512 284.136C668.929 336.868 552.343 337.669 455.045 286.268L407.327 261.059L359.608 235.851C262.31 184.45 145.724 185.251 49.1414 237.983L1.77382 263.845" stroke="#DDE3FE" stroke-linecap="round" stroke-linejoin="round"/>
<path d="M813.137 295.615L765.769 321.477C669.187 374.209 552.6 375.01 455.302 323.609L407.584 298.4L359.866 273.192C262.568 221.791 145.982 222.592 49.399 275.324L2.03145 301.185" stroke="#DDE3FE" stroke-linecap="round" stroke-linejoin="round"/>
<path d="M812.366 183.593L764.999 209.454C668.416 262.186 551.83 262.987 454.532 211.587L406.814 186.378L359.095 161.169C261.798 109.768 145.211 110.569 48.6287 163.301L1.26112 189.163" stroke="#DDE3FE" stroke-linecap="round" stroke-linejoin="round"/>
<path d="M812.111 146.253L764.743 172.114C668.16 224.846 551.574 225.647 454.276 174.246L406.558 149.038L358.84 123.829C261.542 72.4284 144.955 73.229 48.3727 125.961L1.00514 151.823" stroke="#DDE3FE" stroke-linecap="round" stroke-linejoin="round"/>
<path d="M811.854 108.911L764.486 134.773C667.904 187.505 551.317 188.306 454.02 136.905L406.301 111.696L358.583 86.4874C261.285 35.0868 144.699 35.8875 48.116 88.6196L0.748487 114.481" stroke="#DDE3FE" stroke-linecap="round" stroke-linejoin="round"/>
</svg>
