<svg width="310" height="216" viewBox="0 0 310 216" fill="none" xmlns="http://www.w3.org/2000/svg">
<path d="M188.381 5.72931L187.571 4.19787C187.811 3.38611 188.089 2.59156 188.402 1.81803L188.925 2.33557L188.511 1.55147C188.906 0.599679 189.217 0 189.217 0C189.217 0 190.84 3.13174 191.383 6.44753L190.344 8.41273L191.494 7.27572C191.535 7.66197 191.556 8.051 191.557 8.44049C191.557 12.3675 190.509 15.551 189.217 15.551C187.924 15.551 186.876 12.3675 186.876 8.44049C186.901 7.19109 187.081 5.95363 187.412 4.7712L188.381 5.72931Z" fill="#00A135"/>
<path d="M182.651 9.1338L181.193 8.7516C180.894 7.9698 180.631 7.16797 180.406 6.34993L181.075 6.26279L180.329 6.06711C180.059 5.05219 179.932 4.35913 179.932 4.35913C179.932 4.35913 182.889 5.16833 185.188 7.04347L185.589 9.33222L185.745 7.53284C185.997 7.77051 186.237 8.02735 186.463 8.30185C188.731 11.0787 189.829 14.2366 188.915 15.3553C188.001 16.474 185.421 15.1299 183.153 12.3531C182.448 11.4486 181.861 10.4173 181.412 9.2951L182.651 9.1338Z" fill="#00A135"/>
<path d="M182.119 24.3293C185.498 24.5938 189.179 24.3139 193.096 24.3293V13.3528C189.645 14.0104 185.964 13.9429 182.119 13.3528V24.3293Z" fill="#7C0B03"/>
<path d="M157.945 32.8882L157.417 31.8895C157.574 31.3601 157.754 30.8419 157.959 30.3375L158.3 30.675L158.03 30.1636C158.287 29.5429 158.49 29.1519 158.49 29.1519C159.14 30.4526 159.617 31.872 159.903 33.3566L159.225 34.6381L159.975 33.8967C160.002 34.1485 160.016 34.4022 160.016 34.6563C160.016 37.2172 159.333 39.2933 158.49 39.2933C157.647 39.2933 156.964 37.2172 156.964 34.6563C156.98 33.8415 157.097 33.0345 157.313 32.2634L157.945 32.8882Z" fill="#00A135"/>
<path d="M154.208 35.1084L153.258 34.8592C153.063 34.3493 152.891 33.8264 152.744 33.2929L153.18 33.2361L152.694 33.1085C152.518 32.4466 152.435 31.9946 152.435 31.9946C153.646 32.3515 154.803 32.9424 155.863 33.7452L156.124 35.2378L156.226 34.0643C156.39 34.2193 156.547 34.3868 156.694 34.5658C158.173 36.3767 158.889 38.4361 158.293 39.1657C157.697 39.8953 156.015 39.0187 154.536 37.2078C154.076 36.618 153.693 35.9454 153.4 35.2136L154.208 35.1084Z" fill="#00A135"/>
<path d="M153.861 45.0181C156.065 45.1906 158.466 45.008 161.02 45.0181V37.8599C158.645 38.267 156.236 38.267 153.861 37.8599V45.0181Z" fill="#6F87FC"/>
<path d="M155.222 66.2321C157.168 66.3845 159.288 66.2233 161.543 66.2321V59.9114C159.446 60.2709 157.319 60.2709 155.222 59.9114V66.2321Z" fill="#7C0B03"/>
<path d="M144.12 23.5574H229.179V26.4657H144.12V23.5574Z" fill="#C23324"/>
<path d="M144.12 44.2065H229.179V47.1149H144.12V44.2065Z" fill="#DB3C2B"/>
<path d="M144.12 64.8557H229.179V67.764H144.12V64.8557Z" fill="#DB3C2B"/>
<path d="M158.375 62.238C155.751 62.238 153.624 59.6338 153.624 56.4214C153.624 53.2089 155.751 50.6047 158.375 50.6047C161 50.6047 163.127 53.2089 163.127 56.4214C163.127 59.6338 161 62.238 158.375 62.238Z" fill="#F5F5FE"/>
<path d="M158.376 61.0747C156.276 61.0747 154.574 58.9913 154.574 56.4214C154.574 53.8514 156.276 51.7681 158.376 51.7681C160.475 51.7681 162.177 53.8514 162.177 56.4214C162.177 58.9913 160.475 61.0747 158.376 61.0747Z" fill="#7C0B03"/>
<path d="M158.376 57.5847C157.851 57.5847 157.425 57.0639 157.425 56.4214C157.425 55.7789 157.851 55.2581 158.376 55.2581C158.901 55.2581 159.326 55.7789 159.326 56.4214C159.326 57.0639 158.901 57.5847 158.376 57.5847Z" fill="#F5F5FE"/>
<path d="M155.049 56.7123V56.1306H158.851V56.7123H155.049Z" fill="#F5F5FE"/>
<path d="M158.613 57.0032H158.138V52.3499H158.613V57.0032Z" fill="#F5F5FE"/>
<path d="M185.852 30.0186H188.996V45.2526H185.852V30.0186Z" fill="#BD1B0F"/>
<path d="M185.852 32.4241H188.996V34.188H185.852V32.4241Z" fill="#CCCCCC"/>
<path d="M185.852 40.1213H188.996V41.8853H185.852V40.1213Z" fill="#CCCCCC"/>
<path d="M190.699 30.0186H193.843V45.2526H190.699V30.0186Z" fill="#BD1B0F"/>
<path d="M190.699 32.4241H193.843V34.188H190.699V32.4241Z" fill="#CCCCCC"/>
<path d="M190.699 40.1213H193.843V41.8853H190.699V40.1213Z" fill="#CCCCCC"/>
<path d="M183.143 29.9557L185.96 31.6633L180.438 45.3158L177.621 43.6082L183.143 29.9557Z" fill="#BD1B0F"/>
<path d="M182.27 32.1113L185.088 33.8188L184.449 35.3997L181.631 33.6921L182.27 32.1113Z" fill="#CCCCCC"/>
<path d="M179.481 39.0095L182.299 40.717L181.659 42.2979L178.842 40.5903L179.481 39.0095Z" fill="#CCCCCC"/>
<path d="M213.888 50.6677H217.032V65.9018H213.888V50.6677Z" fill="#BD1B0F"/>
<path d="M213.888 53.0732H217.032V54.8372H213.888V53.0732Z" fill="#C6CEEB"/>
<path d="M213.888 60.7705H217.032V62.5344H213.888V60.7705Z" fill="#CCCCCC"/>
<path d="M218.735 50.6677H221.879V65.9018H218.735V50.6677Z" fill="#BD1B0F"/>
<path d="M218.735 53.0732H221.879V54.8372H218.735V53.0732Z" fill="#C6CEEB"/>
<path d="M218.735 60.7705H221.879V62.5344H218.735V60.7705Z" fill="#CCCCCC"/>
<path d="M211.179 50.6049L213.997 52.3125L208.475 65.9649L205.657 64.2574L211.179 50.6049Z" fill="#BD1B0F"/>
<path d="M210.307 52.7604L213.124 54.468L212.485 56.0488L209.667 54.3412L210.307 52.7604Z" fill="#C6CEEB"/>
<path d="M207.517 59.6586L210.334 61.3662L209.695 62.947L206.877 61.2394L207.517 59.6586Z" fill="#CCCCCC"/>
<path d="M184.426 50.6677H187.57V65.9018H184.426V50.6677Z" fill="#BD1B0F"/>
<path d="M184.426 53.0732H187.57V54.8372H184.426V53.0732Z" fill="#C6CEEB"/>
<path d="M184.426 60.7705H187.57V62.5344H184.426V60.7705Z" fill="#CCCCCC"/>
<path d="M189.273 50.6677H192.417V65.9018H189.273V50.6677Z" fill="#BD1B0F"/>
<path d="M189.273 53.0732H192.417V54.8372H189.273V53.0732Z" fill="#C6CEEB"/>
<path d="M189.273 60.7705H192.417V62.5344H189.273V60.7705Z" fill="#CCCCCC"/>
<path d="M181.717 50.6049L184.535 52.3125L179.013 65.9649L176.195 64.2574L181.717 50.6049Z" fill="#BD1B0F"/>
<path d="M180.845 52.7604L183.663 54.468L183.023 56.0488L180.206 54.3412L180.845 52.7604Z" fill="#C6CEEB"/>
<path d="M178.055 59.6586L180.873 61.3662L180.233 62.947L177.416 61.2394L178.055 59.6586Z" fill="#CCCCCC"/>
<path d="M150.773 9.32397H163.269V24.62H150.773V9.32397Z" fill="#24285B"/>
<path d="M153.271 12.3831H160.769V21.5607H153.271V12.3831Z" fill="#F4A28C"/>
<path d="M158.599 15.4636L157.009 18.8341L155.42 22.2046H158.599H161.779L160.189 18.8341L158.599 15.4636Z" fill="#E6E6E6"/>
<path d="M155.837 16.1077L154.247 19.4781L152.657 22.8486H155.837H159.016L157.427 19.4781L155.837 16.1077Z" fill="#E6E6E6"/>
<path d="M154.718 15.1204C154.21 15.1204 153.798 14.6158 153.798 13.9933C153.798 13.3708 154.21 12.8662 154.718 12.8662C155.227 12.8662 155.639 13.3708 155.639 13.9933C155.639 14.6158 155.227 15.1204 154.718 15.1204Z" fill="#E6E6E6"/>
<path d="M213.972 9.32397H226.469V24.62H213.972V9.32397Z" fill="#24285B"/>
<path d="M216.472 12.3831H223.969V21.5607H216.472V12.3831Z" fill="#F4A28C"/>
<path d="M221.799 15.4636L220.21 18.8341L218.62 22.2046H221.799H224.979L223.389 18.8341L221.799 15.4636Z" fill="#E6E6E6"/>
<path d="M219.037 16.1077L217.447 19.4781L215.858 22.8486H219.037H222.216L220.627 19.4781L219.037 16.1077Z" fill="#E6E6E6"/>
<path d="M217.918 15.1204C217.41 15.1204 216.998 14.6158 216.998 13.9933C216.998 13.3708 217.41 12.8662 217.918 12.8662C218.427 12.8662 218.839 13.3708 218.839 13.9933C218.839 14.6158 218.427 15.1204 217.918 15.1204Z" fill="#E6E6E6"/>
<path d="M251.581 113.628L250.771 112.097C251.011 111.285 251.289 110.49 251.602 109.717L252.125 110.234L251.711 109.45C252.106 108.498 252.417 107.899 252.417 107.899C252.417 107.899 254.04 111.03 254.583 114.346L253.544 116.311L254.694 115.174C254.735 115.561 254.756 115.95 254.757 116.339C254.757 120.266 253.709 123.45 252.417 123.45C251.124 123.45 250.076 120.266 250.076 116.339C250.101 115.09 250.281 113.852 250.612 112.67L251.581 113.628Z" fill="#00A135"/>
<path d="M245.851 117.032L244.394 116.65C244.095 115.868 243.832 115.067 243.606 114.249L244.276 114.161L243.529 113.966C243.259 112.951 243.132 112.258 243.132 112.258C243.132 112.258 246.089 113.067 248.388 114.942L248.789 117.231L248.946 115.432C249.198 115.669 249.437 115.926 249.663 116.201C251.932 118.977 253.03 122.135 252.116 123.254C251.202 124.373 248.622 123.029 246.353 120.252C245.649 119.347 245.062 118.316 244.612 117.194L245.851 117.032Z" fill="#00A135"/>
<path d="M245.318 132.228C248.697 132.493 252.379 132.213 256.296 132.228V121.251C252.844 121.909 249.164 121.842 245.318 121.251V132.228Z" fill="#7C0B03"/>
<path d="M105.748 135.673H151.366V208.091H105.748V135.673Z" fill="#E2E6F5"/>
<path d="M244.266 139.454H246.642V208.09H244.266V139.454Z" fill="#DB3C2B"/>
<path d="M105.748 130.729H268.263V136.546H105.748V130.729Z" fill="#DB3C2B"/>
<path d="M243.078 136.546H247.83V142.363H243.078V136.546Z" fill="#DB3C2B"/>
<path d="M124.963 139.89L125.231 141.199H131.883L132.284 139.89H149.228V153.269H107.886V139.89H124.963Z" fill="#C6CEEB"/>
<path d="M124.963 156.759L125.231 158.067H131.883L132.284 156.759H149.228V170.137H107.886V156.759H124.963Z" fill="#C6CEEB"/>
<path d="M124.963 173.627L125.231 174.936H131.883L132.284 173.627H149.228V187.005H107.886V173.627H124.963Z" fill="#C6CEEB"/>
<path d="M124.963 190.495L125.231 191.804H131.883L132.284 190.495H149.228V203.874H107.886V190.495H124.963Z" fill="#C6CEEB"/>
<path d="M180.115 129.856H194.133L193.658 122.295H180.591L180.115 129.856Z" fill="#C6CEEB"/>
<path d="M179.165 128.984H194.846V130.729H179.165V128.984Z" fill="#C6CEEB"/>
<path d="M160.276 73.5806H213.854C214.232 73.5806 214.595 73.7644 214.862 74.0917C215.129 74.4189 215.28 74.8628 215.28 75.3256V115.315H158.851V75.3256C158.851 74.8628 159.001 74.4189 159.268 74.0917C159.536 73.7644 159.898 73.5806 160.276 73.5806Z" fill="#3F3D56"/>
<path d="M215.28 115.315V121.859C215.28 122.321 215.129 122.765 214.862 123.093C214.595 123.42 214.232 123.604 213.854 123.604H160.276C159.898 123.604 159.536 123.42 159.268 123.093C159.001 122.765 158.851 122.321 158.851 121.859V115.315H215.28Z" fill="#C6CEEB"/>
<path d="M161.583 77.2161H212.429V112.116H161.583V77.2161Z" fill="white"/>
<path d="M187.006 121.132C186.218 121.132 185.58 120.35 185.58 119.387C185.58 118.423 186.218 117.642 187.006 117.642C187.793 117.642 188.431 118.423 188.431 119.387C188.431 120.35 187.793 121.132 187.006 121.132Z" fill="#3F3D56"/>
<path d="M66.4264 207.654C71.6189 208.061 77.2767 207.631 83.2957 207.654V190.786C77.992 191.797 72.336 191.693 66.4264 190.786V207.654Z" fill="#6F87FC"/>
<path d="M74.2666 192.301H75.6923L75.217 158.213H74.7419L74.2666 192.301Z" fill="#452951"/>
<path d="M67.8513 192.531H69.277L68.8017 158.443H68.3266L67.8513 192.531Z" fill="#452951"/>
<path d="M79.9693 192.531H81.3949L80.9196 158.443H80.4446L79.9693 192.531Z" fill="#452951"/>
<path d="M73.0788 136.4L70.7775 132.047C71.46 129.739 72.2482 127.481 73.1385 125.282L74.6266 126.753L73.4483 124.524C74.5712 121.818 75.4548 120.114 75.4548 120.114C75.4548 120.114 80.07 129.016 81.612 138.442L78.6589 144.028L81.9281 140.796C82.0445 141.894 82.1044 143 82.1074 144.107C82.1074 155.271 79.1289 164.32 75.4548 164.32C71.7806 164.32 68.8021 155.271 68.8021 144.107C68.8021 140.647 69.4417 137.026 70.324 133.677L73.0788 136.4Z" fill="#339342"/>
<path d="M66.6637 136.982L64.3624 132.629C65.0448 130.321 65.8331 128.062 66.7233 125.863L68.2114 127.335L67.0332 125.106C68.1561 122.4 69.0396 120.695 69.0396 120.695C69.0396 120.695 73.6549 129.598 75.1968 139.024L72.2438 144.61L75.5129 141.378C75.6293 142.476 75.6892 143.582 75.6923 144.689C75.6923 155.852 72.7138 164.902 69.0396 164.902C65.3654 164.902 62.3869 155.852 62.3869 144.689C62.3869 141.228 63.0266 137.608 63.9089 134.258L66.6637 136.982Z" fill="#00A135"/>
<path d="M78.7812 136.982L76.4799 132.629C77.1624 130.321 77.9506 128.062 78.8409 125.863L80.329 127.335L79.1507 125.106C80.2736 122.4 81.1571 120.695 81.1571 120.695C81.1571 120.695 85.7724 129.598 87.3144 139.024L84.3613 144.61L87.6305 141.378C87.7469 142.476 87.8068 143.582 87.8098 144.689C87.8098 155.852 84.8313 164.902 81.1571 164.902C77.483 164.902 74.5045 155.852 74.5045 144.689C74.5045 141.228 75.1441 137.608 76.0264 134.258L78.7812 136.982Z" fill="#00A135"/>
<path d="M182.23 87.0674H195.94V88.0307H182.23V87.0674Z" fill="#2CC0BF"/>
<path d="M174.769 90.5811H195.94V91.5444H174.769V90.5811Z" fill="#6F87FC"/>
<path d="M178.686 93.8918H195.94V94.8551H178.686V93.8918Z" fill="#6F87FC"/>
<path d="M185.868 97.1899H195.94V98.1533H185.868V97.1899Z" fill="#3F3D56"/>
<path d="M180.738 100.488H195.94V101.451H180.738V100.488Z" fill="#3F3D56"/>
<path d="M200.51 86.7249H202.189V88.7797H200.51V86.7249Z" fill="#3F3D56"/>
<path d="M200.51 90.0354H202.189V92.0903H200.51V90.0354Z" fill="#6F87FC"/>
<path d="M200.51 93.3462H202.189V95.4011H200.51V93.3462Z" fill="#6F87FC"/>
<path d="M200.51 96.6567H202.189V98.7116H200.51V96.6567Z" fill="#3F3D56"/>
<path d="M200.51 99.9673H202.189V102.022H200.51V99.9673Z" fill="#3F3D56"/>
<path d="M163.939 85.2437H171.133C171.624 81.7695 171.624 78.218 171.133 74.7439H163.939C164.749 78.1735 164.749 81.814 163.939 85.2437Z" fill="#6F87FC"/>
<path d="M216.286 106.288L219.246 105.405C220.376 105.407 221.491 105.101 222.512 104.51C223.533 103.919 224.434 103.058 225.15 101.988C225.866 100.919 226.378 99.6682 226.651 98.3265C226.923 96.9848 226.948 95.5857 226.724 94.2306C226.728 90.9973 225.682 87.8949 223.816 85.6057C221.951 83.3166 219.419 82.0282 216.777 82.0242H216.777C214.136 82.0201 211.601 83.3006 209.731 85.584C207.861 87.8675 206.809 90.9667 206.805 94.2V94.2C205.127 101.348 210.383 108.049 216.286 106.288Z" fill="#2F2E41"/>
<path d="M213.053 107.562C209.011 107.562 205.735 103.552 205.735 98.6045C205.735 93.6573 209.011 89.6467 213.053 89.6467C217.095 89.6467 220.371 93.6573 220.371 98.6045C220.371 103.552 217.095 107.562 213.053 107.562Z" fill="#8C3940"/>
<path d="M217.826 103.278C217.826 103.278 220.053 112.626 221.326 113.404C222.598 114.183 211.144 115.352 211.144 115.352C211.144 115.352 211.462 106.394 210.826 105.615C210.19 104.836 217.826 103.278 217.826 103.278Z" fill="#8C3940"/>
<path d="M206.371 160.919C206.371 160.919 192.054 159.362 190.144 165.204C188.235 171.046 191.417 205.708 191.417 205.708H197.463V177.277C197.463 177.277 223.239 168.308 223.239 165.193C223.239 162.077 206.371 160.919 206.371 160.919Z" fill="#005BA6"/>
<path d="M192.372 204.15L189.19 205.708C189.19 205.708 185.372 205.319 186.963 208.824C187.418 209.841 188.055 210.72 188.826 211.394C189.598 212.069 190.483 212.521 191.417 212.719C191.417 212.719 197.462 215.445 197.781 212.719C198.099 209.992 196.19 204.54 196.19 204.54L192.372 204.15Z" fill="#2F2E41"/>
<path d="M214.326 160.92C214.326 160.92 200.008 159.362 198.099 165.204C196.19 171.046 199.371 205.708 199.371 205.708H205.417V177.277C205.417 177.277 223.714 172.089 223.714 168.974C223.714 167.51 224.961 160.071 222.763 158.504C220.284 156.735 214.326 160.92 214.326 160.92Z" fill="#005BA6"/>
<path d="M200.326 204.15L197.144 205.708C197.144 205.708 193.326 205.319 194.917 208.824C195.372 209.841 196.009 210.72 196.781 211.394C197.552 212.069 198.437 212.521 199.371 212.719C199.371 212.719 205.417 215.445 205.735 212.719C206.053 209.992 204.144 204.54 204.144 204.54L200.326 204.15Z" fill="#2F2E41"/>
<path d="M221.008 112.236L211.446 113.508C209.97 113.705 208.583 114.467 207.482 115.686C206.381 116.905 205.623 118.519 205.317 120.296L201.599 141.836C201.599 141.836 200.326 163.256 202.872 164.425C205.417 165.593 208.917 159.751 213.69 160.53C218.462 161.309 224.667 163.062 224.667 163.062C224.667 163.062 225.652 124.719 225.78 121.583C226.037 115.314 221.008 112.236 221.008 112.236Z" fill="#FFB4AF"/>
<path d="M198.359 162.032L194.433 164.862C194.433 164.862 187.391 163.625 187.61 166.655C187.83 169.685 195.518 169.1 195.518 169.1L200.248 165.531L198.359 162.032Z" fill="#E0B8FF"/>
<path d="M227.258 91.3193C224.647 91.3193 222.531 88.7286 222.531 85.5329C222.531 82.3372 224.647 79.7466 227.258 79.7466C229.869 79.7466 231.985 82.3372 231.985 85.5329C231.985 88.7286 229.869 91.3193 227.258 91.3193Z" fill="#2F2E41"/>
<path d="M222.896 82.4222C222.896 81.5663 223.052 80.7211 223.352 79.9478C223.651 79.1745 224.087 78.4922 224.629 77.9503C225.17 77.4083 225.803 77.0201 226.481 76.8137C227.16 76.6074 227.867 76.5879 228.553 76.7568C227.948 76.407 227.29 76.2183 226.621 76.2034C225.952 76.1884 225.288 76.3474 224.673 76.67C224.058 76.9925 223.506 77.4712 223.054 78.0744C222.601 78.6776 222.259 79.3915 222.049 80.1689C221.838 80.9463 221.765 81.7695 221.835 82.584C221.904 83.3984 222.113 84.1857 222.45 84.8935C222.786 85.6014 223.241 86.2138 223.785 86.6902C224.33 87.1666 224.95 87.4961 225.606 87.657C224.795 87.1893 224.109 86.4487 223.629 85.5217C223.149 84.5947 222.895 83.5197 222.896 82.4222Z" fill="#2F2E41"/>
<path d="M218.84 85.7039L212.468 84.2676L207.567 88.0276C206.362 88.952 205.398 90.28 204.791 91.8541C204.184 93.4282 203.959 95.1824 204.142 96.9087L209.05 95.3857L210.15 92.0121L211.459 94.6385L218.303 105.42L222.146 102.425L225.572 95.8532L218.84 85.7039Z" fill="#333333"/>
<path d="M213.592 115.549L210.411 113.602C210.411 113.602 203.729 114.77 202.456 120.223C201.183 125.675 195.456 163.453 195.456 163.453L200.865 166.569L208.501 143.591L213.592 115.549Z" fill="#FFB4AF"/>
<path opacity="0.2" d="M210.884 130.875L207.7 146.005L202.053 162.997L202.248 163.586L208.983 146.289L210.884 130.875Z" fill="#010932"/>
<path d="M234.644 214.315L235.767 213.842L224.889 174.288L223.316 174.951L234.644 214.315Z" fill="#3F3D56"/>
<path d="M193.064 214.315L191.94 213.842L202.82 174.288L204.392 174.951L193.064 214.315Z" fill="#3F3D56"/>
<path d="M215.915 215.743L214.801 215.747L214.455 176.143L216.015 176.137L215.915 215.743Z" fill="#3F3D56"/>
<path d="M237.394 151.046L234.135 167.167C233.679 169.425 232.729 171.488 231.387 173.134C230.045 174.781 228.362 175.949 226.519 176.513H226.519C217.431 179.294 207.916 179.219 198.859 176.295L193.993 174.724C191.166 173.812 189.041 170.84 188.839 167.269C188.758 166.007 188.945 164.741 189.381 163.593C189.4 163.544 189.42 163.495 189.439 163.446C190.073 161.851 191.052 160.498 192.269 159.535C193.487 158.571 194.896 158.034 196.345 157.98L201.499 157.776L220.269 147.597C220.269 147.597 226.724 143.584 232.031 143.134C235.536 142.838 238.238 146.872 237.394 151.046Z" fill="#6F87FC"/>
<path d="M122.974 100.337H141.506V131.165H122.974V100.337Z" fill="#7C0B03"/>
<path d="M125.112 103.894H139.367V127.608H125.112V103.894Z" fill="white"/>
<path d="M126.85 110.1H133.757V111.063H126.85V110.1Z" fill="#3F3D56"/>
<path d="M135.951 109.567H137.63V111.621H135.951V109.567Z" fill="#3F3D56"/>
<path d="M126.85 114.172H133.757V115.135H126.85V114.172Z" fill="#3F3D56"/>
<path d="M135.951 113.638H137.63V115.693H135.951V113.638Z" fill="#3F3D56"/>
<path d="M126.85 118.243H133.757V119.206H126.85V118.243Z" fill="#3F3D56"/>
<path d="M135.951 117.71H137.63V119.765H135.951V117.71Z" fill="#3F3D56"/>
<path d="M131.527 102.082C131.527 101.6 131.846 101.209 132.24 101.209C132.634 101.209 132.953 101.6 132.953 102.082C132.953 102.564 132.634 102.954 132.24 102.954C131.846 102.954 131.527 102.564 131.527 102.082Z" fill="#3F3D56"/>
<line x1="4.21381" y1="211.533" x2="305.786" y2="211.533" stroke="#6F87FC" stroke-width="8.42762" stroke-linecap="round"/>
</svg>
