<svg width="74" height="65" viewBox="0 0 74 65" fill="none" xmlns="http://www.w3.org/2000/svg">
<path d="M28.6628 64.2254C26.763 64.2286 24.9137 63.614 23.3938 62.4743L23.2995 62.4036L3.45348 47.222C2.53433 46.5174 1.76299 45.6386 1.18346 44.6358C0.603943 43.633 0.227618 42.5259 0.0759511 41.3777C-0.0757153 40.2295 0.0002442 39.0627 0.299523 37.9438C0.598802 36.825 1.11552 35.776 1.82018 34.8569C2.52484 33.9377 3.40366 33.1664 4.40643 32.5869C5.40919 32.0073 6.51627 31.631 7.66448 31.4794C8.81269 31.3277 9.97954 31.4036 11.0984 31.7029C12.2172 32.0022 13.2662 32.5189 14.1853 33.2236L27.0399 43.0811L57.4161 3.45207C58.1205 2.5333 58.999 1.76225 60.0013 1.18297C61.0037 0.603686 62.1103 0.227512 63.258 0.0759113C64.4058 -0.0756889 65.5721 0.000261128 66.6905 0.299422C67.8089 0.598583 68.8574 1.1151 69.7761 1.81947L69.7787 1.82139L69.5902 2.08317L69.7838 1.82139C71.6374 3.24597 72.8501 5.3477 73.1558 7.66539C73.4615 9.98308 72.8353 12.3274 71.4145 14.1839L35.6855 60.7756C34.8589 61.8491 33.7961 62.7178 32.5796 63.3143C31.363 63.9107 30.0254 64.2189 28.6706 64.215L28.6628 64.2254Z" fill="#EFF2FF"/>
</svg>
