<svg width="486" height="486" viewBox="0 0 486 486" fill="none" xmlns="http://www.w3.org/2000/svg">
<g clip-path="url(#clip0_2_429)">
<path opacity="0.18" d="M427.019 323.064C420.737 290.296 403.404 262.548 397.908 229.526C392.919 199.503 398.195 168.336 398.051 137.601C397.85 94.7834 385.603 50.1615 359.613 24.7123C334.284 -0.127057 300.241 -3.23992 269.013 2.36323C237.786 7.96638 207.497 21.1674 176.125 25.4746C161.838 27.444 147.205 27.5965 133.588 33.6824C110.653 43.9485 93.6846 69.6391 79.962 96.0794C70.2135 114.833 61.3461 134.971 57.7742 157.244C50.324 203.797 66.8906 251.265 66.3927 298.784C66.1628 321.247 62.1217 343.774 64.6211 365.983C68.9495 404.519 92.3152 434.936 118.123 453.55C154.071 479.495 196.082 487.855 236.981 485.632C305.125 481.871 453.526 461.453 427.019 323.064Z" fill="#EFF2FF"/>
<path d="M137.084 419.232C136.872 419.051 136.69 418.816 136.547 418.54C136.404 418.265 136.303 417.955 136.251 417.628C136.198 417.301 136.195 416.964 136.241 416.635C136.287 416.306 136.381 415.993 136.519 415.713L212.17 260.349L215.387 263.119L139.736 418.483C139.599 418.763 139.422 419.005 139.215 419.195C139.007 419.385 138.773 419.518 138.527 419.588C138.281 419.657 138.026 419.662 137.779 419.601C137.531 419.54 137.295 419.415 137.084 419.232Z" fill="#6F87FC"/>
<path opacity="0.18" d="M222.081 425.839C180.837 426.525 143.768 423.222 102.801 427.351C115.576 433.907 134.91 443.754 149.724 445.139C215.608 451.492 282.037 453.614 348.294 451.568C352.795 451.428 357.506 451.225 361.385 449.268C365.263 447.312 367.915 442.992 366.029 439.485C360.657 429.537 320.265 428.444 309.051 428.596C282.813 428.978 248.281 425.407 222.081 425.839Z" fill="#6F87FC"/>
<path d="M207.669 410.478C207.267 412.397 206.922 414.531 207.669 416.285C208.56 418.368 210.772 419.08 212.601 418.495C214.43 417.911 216.374 416.806 217.274 414.684C221.056 405.79 230.383 383.746 235.67 368.372C237.154 364.052 240.505 362.019 237.929 358.614C231.571 350.19 221.066 363.506 219.093 370.773C215.474 384.127 210.494 396.693 207.669 410.478Z" fill="url(#paint0_linear_2_429)"/>
<path d="M307.538 426.055C309.204 427.605 310.334 420.084 312.202 418.978C315.419 417.072 309.951 369.427 307.845 364.205C303.717 354.04 291.383 351.499 291.9 367.279C292.054 373.416 305.824 424.492 307.538 426.055Z" fill="url(#paint1_linear_2_429)"/>
<path d="M267.319 205.855C262.722 208.257 259.141 213.186 256.153 218.396C240.496 245.7 237.527 283.092 221.602 310.13C217.513 317.08 212.534 323.432 210.255 331.729C205.984 347.255 214.324 366.568 226.591 369.516C230.767 370.532 235.277 369.922 239.04 372.438C242.804 374.953 245.112 379.909 248.31 383.454C257.599 393.77 272.384 389.539 281.491 378.93C284.986 374.852 288.194 369.795 292.647 368.042C298.393 365.78 304.723 369.706 310.603 367.94C317.239 365.958 321.653 356.962 322.372 347.992C323.09 339.022 320.859 330.128 318.273 321.793C310.708 297.399 299.724 274.186 297.502 247.974C296.545 236.539 298.46 217.799 292.465 208.193C287.61 200.265 273.667 202.552 267.319 205.855Z" fill="#6F87FC"/>
<path d="M294.553 228.763C293.902 232.448 292.37 236.387 289.583 237.302C287.055 238.102 284.307 236.031 281.874 237.225C278.436 238.915 278.197 245.586 275.276 248.533C273.687 250.134 271.58 250.363 269.665 251.074C264.819 252.904 261.104 257.935 257.618 262.763C256.268 256.411 259.619 250.249 261.506 244.163C263.729 236.922 263.956 228.873 262.147 221.432C261.62 219.67 261.235 217.839 260.998 215.969C260.89 215.028 260.956 214.067 261.191 213.168C261.427 212.269 261.824 211.46 262.349 210.81C263.075 210.145 263.907 209.71 264.781 209.54C268.882 208.42 273.106 208.338 277.23 209.299C279.969 210.172 282.74 210.859 285.532 211.357C288.922 211.713 290.933 209.883 293.835 208.46C295.406 215.029 295.653 222.028 294.553 228.763Z" fill="url(#paint2_linear_2_429)"/>
<path d="M202.747 412.117C201.804 413.881 200.981 415.752 200.286 417.708C199.793 418.866 199.576 420.195 199.663 421.519C200.004 423.094 200.745 424.463 201.761 425.395C204.479 428.361 207.399 430.986 210.484 433.234C214.487 436.245 218.806 438.951 223.47 439.434C225.833 439.852 228.232 439.17 230.259 437.503C232.174 435.711 233.132 432.243 232.059 429.6C230.987 426.957 228.171 426.03 225.998 424.518C219.993 420.516 209.862 398.726 202.747 412.117Z" fill="#BD1B0F"/>
<path d="M306.494 420.681C305.832 421.155 305.271 421.846 304.866 422.688C304.534 423.615 304.38 424.636 304.416 425.661C304.41 428.675 304.89 431.656 305.824 434.403C306.086 435.321 306.533 436.125 307.117 436.728C307.674 437.155 308.295 437.415 308.936 437.49C314.596 438.634 320.37 438.062 326.077 437.49C328.414 437.249 331.009 436.842 332.484 434.441C333.115 433.251 333.454 431.831 333.454 430.375C333.454 428.92 333.115 427.5 332.484 426.309C331.176 423.948 329.243 422.332 327.073 421.786C325.072 421.189 322.831 421.888 320.916 421.202C319.413 420.668 318.091 419.105 316.473 418.597C313.069 417.539 309.488 418.287 306.494 420.681Z" fill="#BD1B0F"/>
<path d="M224.81 203.683C223.805 210.226 223.479 216.973 221.995 223.351C220.405 230.186 217.485 236.641 217.35 243.781C217.238 244.978 217.475 246.187 218.011 247.161C220.405 250.668 227.367 243.743 228.679 241.024C230.173 237.962 230.786 234.316 231.37 230.746L235.507 205.665C236.196 201.459 236.943 196.923 238.954 193.429C240.869 190.189 259.39 162.123 258.403 157.574C256.775 149.951 232.931 177.281 230.326 181.956C227.319 187.331 225.787 197.33 224.81 203.683Z" fill="url(#paint3_linear_2_429)"/>
<path d="M259.389 140.434C257.57 150.129 258.432 160.306 258.997 170.28C259.667 181.452 260.025 192.642 260.069 203.848C260.069 210.201 260.175 217.201 263.316 222.017C267.625 228.624 275.477 227.912 281.826 225.549C284.141 224.859 286.329 223.563 288.261 221.737C292.437 217.328 293.318 209.515 293.777 202.45C295.051 182.502 295.348 162.466 294.668 142.467C294.227 129.686 290.655 112.114 278.245 113.321C269.511 114.134 261.286 130.422 259.389 140.434Z" fill="#6F87FC"/>
<path d="M293.768 202.412C293.318 209.464 292.446 217.29 288.261 221.699C286.327 223.528 284.135 224.824 281.817 225.511C275.477 227.874 267.625 228.586 263.316 221.966C260.175 217.163 260.089 210.175 260.069 203.81C260.069 196.987 259.907 190.177 259.639 183.354C259.479 178.966 259.268 174.595 259.006 170.242C258.403 160.281 257.57 150.091 259.399 140.409C260.778 133.04 265.595 122.304 271.503 116.789C273.453 114.82 275.771 113.594 278.207 113.245C290.655 111.974 294.189 129.609 294.63 142.404C295.325 162.41 295.037 182.455 293.768 202.412Z" fill="url(#paint4_linear_2_429)"/>
<path d="M278.532 121.935C277.069 126.555 275.222 130.945 273.026 135.022C271.939 136.82 271.061 138.825 270.421 140.968C269.956 143.534 269.849 146.191 270.105 148.807C270.651 160.242 269.598 173.075 263.191 180.825C262.206 182.091 260.977 182.97 259.639 183.367C259.479 178.979 259.268 174.608 259.006 170.254C258.403 160.293 257.57 150.103 259.399 140.422C260.778 133.053 265.595 122.316 271.503 116.802C272.461 116.675 273.419 116.599 274.319 116.586C278.398 116.586 280.285 116.256 278.532 121.935Z" fill="url(#paint5_linear_2_429)"/>
<path d="M298.766 56.6032C299.533 63.5659 300.27 75.5472 300.816 82.5352C301.074 85.9022 301.285 89.5106 300.069 92.4964C299.133 94.6031 297.728 96.2724 296.047 97.2737C294.36 98.2571 292.61 99.0394 290.818 99.6115C289.296 100.183 287.649 100.882 286.787 102.699C286.249 104.057 285.982 105.574 286.011 107.108L285.705 113.842C285.618 115.773 284.163 117.653 282.832 118.378C281.444 119.007 279.939 119.007 278.551 118.378C277.314 117.94 276.192 117.061 275.305 115.837C274.267 114.057 273.654 111.907 273.543 109.662C273.129 104.444 273.326 99.172 274.127 94.0338C274.45 91.5132 274.904 89.0254 275.487 86.5883C276.042 84.3521 276.761 82.1795 277.479 80.0068C278.237 77.5277 279.177 75.1531 280.285 72.9171C281.704 70.4455 283.329 68.195 285.13 66.2086C286.885 63.8855 288.897 61.9317 291.096 60.4149C293.586 58.8648 296.708 54.0875 298.766 56.6032Z" fill="url(#paint6_linear_2_429)"/>
<path d="M311.062 41.9537C304.828 50.2632 297.464 56.9082 290.158 63.5532C286.758 66.6152 283.349 69.6899 279.767 72.3581C269.431 79.9726 257.923 84.3612 246.117 85.1907C245.571 83.4882 247.352 81.8364 248.607 81.0233L260.366 73.4C260.9 73.1385 261.374 72.7013 261.745 72.1294C262.153 71.1151 262.245 69.9297 262.004 68.826C261.219 62.3842 259.859 55.4343 262.004 49.5771C263.737 44.9014 267.328 42.0554 270.766 39.5397C273.639 37.4178 276.895 35.296 280.122 36.1981C283.349 37.1002 285.618 40.734 287.515 44.2788C287.925 45.2108 288.505 45.9923 289.2 46.5531C289.708 46.842 290.256 46.989 290.809 46.9851C298.307 47.4044 304.57 39.959 311.551 36.3506C312.015 36.0426 312.542 35.9402 313.054 36.0584C314.356 36.5539 314.117 39.2856 313.121 40.518C312.125 41.7504 312.02 40.6705 311.062 41.9537Z" fill="#6F87FC"/>
<path d="M313.15 40.4799C312.192 41.7504 312.029 40.6705 311.062 41.941C304.819 50.2632 297.464 56.9082 290.148 63.5405C286.748 66.6025 283.359 69.6645 279.767 72.3454C269.428 79.9507 257.922 84.3428 246.117 85.1907C245.571 83.4755 247.352 81.811 248.607 81.0106L260.366 73.3873C260.895 73.1147 261.368 72.6792 261.745 72.1167C262.157 71.0996 262.25 69.908 262.004 68.8005C261.219 62.3588 259.859 55.4089 262.004 49.5516C263.728 44.876 267.319 42.03 270.766 39.5143C273.639 37.3924 276.875 35.2706 280.112 36.1854C283.349 37.1002 285.618 40.7086 287.505 44.2534C287.918 45.1828 288.497 45.9636 289.19 46.5277C289.405 46.6573 289.63 46.7552 289.861 46.82C290.176 46.9063 290.497 46.9531 290.818 46.9597C297.579 47.3409 303.353 41.293 309.559 37.4687C310.219 37.0494 310.89 36.6809 311.56 36.3252C312.018 36.0175 312.539 35.915 313.044 36.0329C314.395 36.5412 314.146 39.2347 313.15 40.4799Z" fill="url(#paint7_linear_2_429)"/>
<path d="M293.739 68.305C288.639 72.9654 285.129 80.1054 283.971 88.1765C283.397 92.2804 283.464 96.4987 282.918 100.603C282.292 105.152 280.943 109.473 278.962 113.278C276.981 117.083 274.412 120.285 271.427 122.672C269.109 124.489 266.495 125.861 264.723 128.555C262.952 131.248 262.186 135.314 261.63 139.05C259.887 150.789 258.298 163.19 252.744 172.605C248.811 179.333 243.124 183.866 236.799 185.31C233.66 185.981 230.45 185.792 227.367 184.757C224.284 183.721 221.394 181.86 218.873 179.288C214.717 174.75 211.729 168.609 210.322 161.716C208.215 151.958 209.364 140.117 215.483 133.878C218.34 131.203 221.695 129.617 225.184 129.292C227.271 129.012 229.684 128.822 230.929 126.573C231.449 125.407 231.775 124.107 231.887 122.761C232.495 118.759 233.357 114.831 234.463 111.021C235.296 108.137 236.378 105.177 238.293 103.398C240.209 101.619 242.852 101.479 245.198 100.679C249.063 99.3334 252.406 96.1088 254.563 91.6451C257.082 86.3596 260.539 85.3813 264.369 81.7475C265.632 80.5079 266.971 79.4114 268.372 78.4695C270.049 77.4429 271.784 76.5932 273.562 75.9284C280.601 73.0061 288.137 66.1324 294.141 60.453C294.132 61.9523 293.768 66.8058 293.739 68.305Z" fill="#3E3E54"/>
<path d="M293.739 68.305C288.639 72.9654 285.129 80.1054 283.971 88.1765C283.397 92.2804 283.464 96.4987 282.918 100.603C282.292 105.152 280.943 109.473 278.962 113.278C276.981 117.083 274.412 120.285 271.427 122.672C269.109 124.489 266.495 125.861 264.723 128.555C262.952 131.248 262.186 135.314 261.63 139.05C259.887 150.789 258.298 163.19 252.744 172.605C248.811 179.333 243.124 183.866 236.799 185.31C233.66 185.981 230.45 185.792 227.367 184.757C224.284 183.721 221.394 181.86 218.873 179.288C214.717 174.75 211.729 168.609 210.322 161.716C208.215 151.958 209.364 140.117 215.483 133.878C218.34 131.203 221.695 129.617 225.184 129.292C227.271 129.012 229.684 128.822 230.929 126.573C231.449 125.407 231.775 124.107 231.887 122.761C232.495 118.759 233.357 114.831 234.463 111.021C235.296 108.137 236.378 105.177 238.293 103.398C240.209 101.619 242.852 101.479 245.198 100.679C249.063 99.3334 252.406 96.1088 254.563 91.6451C257.082 86.3596 260.539 85.3813 264.369 81.7475C265.632 80.5079 266.971 79.4114 268.372 78.4695C270.049 77.4429 271.784 76.5932 273.562 75.9284C280.601 73.0061 288.137 66.1324 294.141 60.453C294.132 61.9523 293.768 66.8058 293.739 68.305Z" fill="url(#paint8_linear_2_429)"/>
<path d="M280.457 119.216C278.542 122.609 278.283 127.183 278.925 131.312C279.722 135.39 280.94 139.302 282.545 142.937L300.442 188.029C306.035 202.094 311.828 216.528 320.887 226.934C323.817 230.285 327.03 233.171 330.463 235.535C331.133 235.965 331.774 236.471 332.379 237.047C333.882 238.61 334.648 241.062 335.692 243.184C337.416 246.539 339.881 249.103 342.748 250.523C345.616 251.943 348.744 252.149 351.703 251.112C352.393 247.809 350.698 244.48 348.83 242.13C346.963 239.779 344.713 237.657 343.812 234.443C343.86 234.703 343.946 234.948 344.065 235.165C344.185 235.381 344.335 235.564 344.507 235.703C344.68 235.842 344.871 235.935 345.071 235.976C345.27 236.017 345.474 236.005 345.67 235.942C345.866 235.879 346.051 235.765 346.214 235.606C346.377 235.448 346.515 235.249 346.62 235.02C346.725 234.791 346.795 234.537 346.826 234.272C346.857 234.008 346.848 233.737 346.8 233.477C346.606 232.796 346.275 232.198 345.843 231.749C344.591 229.991 343.183 228.442 341.648 227.137C340.011 225.867 338.163 225.18 336.535 223.923C334.618 222.305 332.926 220.259 331.536 217.875C327.837 212.049 324.609 205.725 321.902 199.007C319.508 193.099 317.516 186.873 314.759 181.219C312.297 176.137 309.224 171.639 307.213 166.252C303.612 156.659 303.708 145.402 301.237 135.2C299.782 129.165 296.87 120.182 292.734 116.497C289.008 113.232 283.09 114.464 280.457 119.216Z" fill="url(#paint9_linear_2_429)"/>
<path d="M302.195 70.5539C302.422 70.5419 302.647 70.6264 302.836 70.7953C302.979 70.9947 303.073 71.2474 303.104 71.5195C303.404 73.0918 303.504 74.7191 303.401 76.3349C303.315 77.8088 302.76 79.6003 301.649 79.5876C301.193 79.5416 300.762 79.2957 300.423 78.8888C299.082 77.4657 298.508 74.8484 297.771 72.7901C297.771 72.7266 289.296 74.5689 288.587 74.734C286.959 75.0898 286.183 75.5599 287.352 74.1242C290.732 69.9314 297.799 70.2236 302.195 70.5539Z" fill="#3E3E54"/>
<path d="M219.266 244.366L210.35 261.328L215.138 265.914L224.044 250.312C223.374 248.063 220.482 244.328 219.266 244.366Z" fill="#6F87FC"/>
<path d="M219.266 244.366L210.35 261.328L215.138 265.914L224.044 250.312C223.374 248.063 220.482 244.328 219.266 244.366Z" fill="#BD1B0F"/>
<path d="M184.811 316.063L171.194 306.445C167.617 303.906 163.445 303.274 159.529 304.679C155.614 306.085 152.25 309.42 150.126 314.005L118.64 381.726C117.255 384.712 116.812 388.303 117.407 391.72C118.002 395.137 119.587 398.105 121.819 399.983L137.773 413.235L184.811 316.063Z" fill="#BD1B0F"/>
<path d="M134.594 426.119C137.54 426.119 139.928 422.95 139.928 419.042C139.928 415.133 137.54 411.965 134.594 411.965C131.648 411.965 129.26 415.133 129.26 419.042C129.26 422.95 131.648 426.119 134.594 426.119Z" fill="#3E3E54"/>
<path d="M134.584 421.888C135.927 421.888 137.016 420.443 137.016 418.661C137.016 416.878 135.927 415.433 134.584 415.433C133.241 415.433 132.152 416.878 132.152 418.661C132.152 420.443 133.241 421.888 134.584 421.888Z" fill="#6F87FC"/>
<path d="M223.872 250.045C226.416 250.045 228.478 247.309 228.478 243.934C228.478 240.559 226.416 237.822 223.872 237.822C221.328 237.822 219.266 240.559 219.266 243.934C219.266 247.309 221.328 250.045 223.872 250.045Z" fill="#6F87FC"/>
<path d="M309.587 37.456C309.469 38.0989 309.244 38.6983 308.927 39.2093C306.768 42.6132 304.323 45.6783 301.639 48.3446C296.928 53.4268 292.197 58.5091 287.275 63.2101C279.471 70.6301 270.517 77.2752 260.922 76.7415C261.969 74.9347 263.119 73.2358 264.36 71.6593C265.185 70.5381 266.131 69.5835 267.165 68.826C268.234 68.1966 269.338 67.6825 270.469 67.2886C275.688 65.1286 280.246 60.8088 284.488 56.2093C285.82 56.2093 288.405 51.1271 288.922 49.7041C289.439 48.2811 289.593 47.4425 289.88 46.7564C290.195 46.8427 290.516 46.8895 290.837 46.8962C297.608 47.3282 303.382 41.2803 309.587 37.456Z" fill="url(#paint10_linear_2_429)"/>
<path d="M253.031 276.676C255.636 269.053 258.576 261.556 260.338 253.501C262.1 245.446 262.617 236.628 260.338 228.802C252.313 243.604 249.287 261.988 245.303 279.433C241.319 296.878 235.622 314.907 224.331 325.313C219.926 329.366 214.468 332.619 212.514 339.289C210.561 345.959 213.032 353.532 217.034 358.144C221.037 362.756 226.275 364.916 231.399 366.758C236.522 368.601 241.789 370.316 246.174 374.255C249.9 377.609 252.945 382.526 257.225 384.419C264.206 387.468 271.436 381.37 277.268 375.398C280.763 371.815 284.603 366.924 283.799 361.168C280.682 363.508 277.061 364.386 273.522 363.66C269.983 362.934 266.731 360.646 264.292 357.166C259.504 349.911 259.141 339.378 258.719 329.696C258.19 317.524 257.122 305.403 255.521 293.397C250.56 302.57 250.005 314.539 249.622 325.821L248.971 345.286C248.808 349.987 249.679 359.021 247.055 362.731C241.808 370.24 238.332 355.667 238.274 350.343C238.083 325.999 245.581 298.415 253.031 276.676Z" fill="url(#paint11_linear_2_429)"/>
<path d="M273.15 297.869C275.248 312.163 279.394 325.897 280.811 340.344C281.443 346.823 282.018 354.485 286.289 357.737C287.604 358.618 289.011 359.231 290.464 359.554C296.794 361.371 303.708 363.099 309.501 359.249C316.291 354.726 319.298 342.3 315.745 333.381L312.795 343.622C312.441 344.829 311.991 346.163 311.062 346.582C309.492 347.281 308.237 344.816 307.615 342.77L300.911 320.802C297.895 327.435 301.725 335.719 301.946 343.469C302.045 344.789 301.842 346.118 301.362 347.281C300.27 349.581 297.646 349.822 295.874 348.424C294.103 347.027 293.002 344.613 292.044 342.224C280.803 314.702 276.251 283.242 279.011 252.154C279.365 248.343 279.825 244.391 279.375 240.554C278.953 237.009 277.46 232.689 274.807 231.393C274.434 236.158 275.113 240.986 274.558 245.776C273.945 250.947 272.844 255.941 272.336 261.188C271.131 273.394 271.406 285.778 273.15 297.869Z" fill="url(#paint12_linear_2_429)"/>
</g>
<defs>
<linearGradient id="paint0_linear_2_429" x1="207.228" y1="387.303" x2="238.868" y2="387.303" gradientUnits="userSpaceOnUse">
<stop stop-color="#E5C5D5"/>
<stop offset="0.42" stop-color="#EAD4D1"/>
<stop offset="1" stop-color="#F0E9CB"/>
</linearGradient>
<linearGradient id="paint1_linear_2_429" x1="6803.58" y1="22069.1" x2="7277.68" y2="22069.1" gradientUnits="userSpaceOnUse">
<stop stop-color="#E5C5D5"/>
<stop offset="0.42" stop-color="#EAD4D1"/>
<stop offset="1" stop-color="#F0E9CB"/>
</linearGradient>
<linearGradient id="paint2_linear_2_429" x1="255.166" y1="210.531" x2="384.527" y2="300.289" gradientUnits="userSpaceOnUse">
<stop stop-opacity="0"/>
<stop offset="0.99"/>
</linearGradient>
<linearGradient id="paint3_linear_2_429" x1="9584.4" y1="14893.7" x2="11349.2" y2="14893.7" gradientUnits="userSpaceOnUse">
<stop stop-color="#E5C5D5"/>
<stop offset="0.42" stop-color="#EAD4D1"/>
<stop offset="1" stop-color="#F0E9CB"/>
</linearGradient>
<linearGradient id="paint4_linear_2_429" x1="268.429" y1="170.229" x2="305.173" y2="170.229" gradientUnits="userSpaceOnUse">
<stop offset="0.02" stop-color="white" stop-opacity="0"/>
<stop offset="0.58" stop-color="white" stop-opacity="0.39"/>
<stop offset="0.68" stop-color="white" stop-opacity="0.68"/>
<stop offset="1" stop-color="white"/>
</linearGradient>
<linearGradient id="paint5_linear_2_429" x1="6542.07" y1="10768.6" x2="2005.95" y2="7716.88" gradientUnits="userSpaceOnUse">
<stop stop-opacity="0"/>
<stop offset="0.99"/>
</linearGradient>
<linearGradient id="paint6_linear_2_429" x1="8195.69" y1="4464.05" x2="8998.47" y2="4464.05" gradientUnits="userSpaceOnUse">
<stop stop-color="#E5C5D5"/>
<stop offset="0.42" stop-color="#EAD4D1"/>
<stop offset="1" stop-color="#F0E9CB"/>
</linearGradient>
<linearGradient id="paint7_linear_2_429" x1="21107.6" y1="3385.15" x2="19537.5" y2="419.193" gradientUnits="userSpaceOnUse">
<stop offset="0.02" stop-color="white" stop-opacity="0"/>
<stop offset="0.58" stop-color="white" stop-opacity="0.39"/>
<stop offset="0.68" stop-color="white" stop-opacity="0.68"/>
<stop offset="1" stop-color="white"/>
</linearGradient>
<linearGradient id="paint8_linear_2_429" x1="17258.1" y1="12348.8" x2="24769.7" y2="12348.8" gradientUnits="userSpaceOnUse">
<stop stop-opacity="0"/>
<stop offset="0.99"/>
</linearGradient>
<linearGradient id="paint9_linear_2_429" x1="21653" y1="20054.9" x2="27255.9" y2="20054.9" gradientUnits="userSpaceOnUse">
<stop stop-color="#E5C5D5"/>
<stop offset="0.42" stop-color="#EAD4D1"/>
<stop offset="1" stop-color="#F0E9CB"/>
</linearGradient>
<linearGradient id="paint10_linear_2_429" x1="14456.7" y1="1284.94" x2="15136.4" y2="3016.1" gradientUnits="userSpaceOnUse">
<stop stop-opacity="0"/>
<stop offset="0.99"/>
</linearGradient>
<linearGradient id="paint11_linear_2_429" x1="23717.5" y1="30055.2" x2="-5468.3" y2="44738.8" gradientUnits="userSpaceOnUse">
<stop stop-opacity="0"/>
<stop offset="0.99"/>
</linearGradient>
<linearGradient id="paint12_linear_2_429" x1="13461.4" y1="26170.8" x2="33921.8" y2="47216.9" gradientUnits="userSpaceOnUse">
<stop stop-opacity="0"/>
<stop offset="0.99"/>
</linearGradient>
<clipPath id="clip0_2_429">
<rect width="486" height="486" fill="white"/>
</clipPath>
</defs>
</svg>
