<svg width="486" height="486" viewBox="0 0 486 486" fill="none" xmlns="http://www.w3.org/2000/svg">
<g clip-path="url(#clip0_2_539)">
<path opacity="0.24" d="M96.3609 472.926C108.502 479.799 121.532 483.481 134.731 483.77C205.758 485.147 276.811 485.272 347.839 486.046C358.928 486.171 370.523 486.046 381.286 483.087C389.425 480.811 397.126 476.954 403.79 470.286C419.03 455.107 425.41 428.503 426.388 403.231C427.366 377.958 423.815 352.823 423.489 327.516C422.897 278.587 434.304 230.443 434.638 181.446C434.973 132.449 419.707 77.2052 385.034 60.3646C363.731 50.0212 339.58 56.4047 317.848 47.8479C301.005 41.2596 286.828 26.2964 271.083 15.9872C234.342 -8.07892 188.211 -4.85872 153.589 24.2027C118.968 53.2642 96.9869 107.177 97.6216 161.59C98.0247 194.908 106.198 228.805 99.5684 260.95C91.6783 299.058 64.6206 325.707 55.1954 363.234C41.9882 415.827 64.7749 454.981 96.3609 472.926Z" fill="#DDE3FE"/>
<path d="M108.753 114.061H175.116V455.835H108.753V114.061Z" fill="#6F87FC"/>
<path d="M252.104 227.94H318.466V472.129H252.104V227.94Z" fill="#6F87FC"/>
<path d="M108.753 114.061H175.116V455.835H108.753V114.061Z" fill="url(#paint0_linear_2_539)"/>
<path d="M252.104 227.94H318.466V472.129H252.104V227.94Z" fill="url(#paint1_linear_2_539)"/>
<path d="M205.664 166.836C205.351 165.758 204.876 164.776 204.269 163.949C203.662 163.121 202.934 162.466 202.13 162.023C200.8 161.179 199.351 160.71 197.877 160.645C196.403 160.581 194.935 160.922 193.565 161.648C192.195 162.374 190.954 163.469 189.919 164.863C188.883 166.257 188.077 167.921 187.551 169.749C186.993 172.151 186.555 174.599 186.239 177.077C185.921 179.591 184.972 181.888 183.546 183.597C181.616 185.6 178.966 185.611 176.539 186.078C173.229 186.664 170.11 188.478 167.543 191.312C164.974 194.188 163.332 198.259 162.955 202.691C162.757 205.433 163.109 208.38 162.251 210.861C161.488 213.136 159.85 214.707 159.173 217.005C158.881 218.1 158.795 219.273 158.92 220.423C159.046 221.572 159.379 222.664 159.893 223.605C160.939 225.468 162.465 226.756 164.181 227.223C166.822 227.974 169.721 227.064 172.157 228.577C173.675 229.522 174.901 231.342 176.548 231.707C177.845 231.869 179.144 231.422 180.218 230.443C182.209 228.692 184.01 226.586 185.57 224.185C187.374 221.86 188.945 219.236 190.244 216.379C191.623 213.285 193.135 210.299 194.772 207.436C196.187 204.727 199.437 204.739 200.638 201.86C202.885 196.478 199.866 185.645 200.87 179.876C201.18 177.653 202.062 175.643 203.365 174.187C205.038 172.252 206.393 169.817 205.664 166.836Z" fill="#606161"/>
<path d="M205.664 166.836C205.351 165.758 204.876 164.776 204.269 163.949C203.662 163.121 202.934 162.466 202.13 162.023C200.8 161.179 199.351 160.71 197.877 160.645C196.403 160.581 194.935 160.922 193.565 161.648C192.195 162.374 190.954 163.469 189.919 164.863C188.883 166.257 188.077 167.921 187.551 169.749C186.993 172.151 186.555 174.599 186.239 177.077C185.921 179.591 184.972 181.888 183.546 183.597C181.616 185.6 178.966 185.611 176.539 186.078C173.229 186.664 170.11 188.478 167.543 191.312C164.974 194.188 163.332 198.259 162.955 202.691C162.757 205.433 163.109 208.38 162.251 210.861C161.488 213.136 159.85 214.707 159.173 217.005C158.881 218.1 158.795 219.273 158.92 220.423C159.046 221.572 159.379 222.664 159.893 223.605C160.939 225.468 162.465 226.756 164.181 227.223C166.822 227.974 169.721 227.064 172.157 228.577C173.675 229.522 174.901 231.342 176.548 231.707C177.845 231.869 179.144 231.422 180.218 230.443C182.209 228.692 184.01 226.586 185.57 224.185C187.374 221.86 188.945 219.236 190.244 216.379C191.623 213.285 193.135 210.299 194.772 207.436C196.187 204.727 199.437 204.739 200.638 201.86C202.885 196.478 199.866 185.645 200.87 179.876C201.18 177.653 202.062 175.643 203.365 174.187C205.038 172.252 206.393 169.817 205.664 166.836Z" fill="url(#paint2_linear_2_539)"/>
<path d="M228.373 211.122C228.147 208.817 227.594 206.589 226.744 204.557C225.292 200.506 223.862 196.436 222.456 192.347C221.761 190.31 221.024 188.274 220.398 186.203C220.273 185.56 220.048 184.959 219.737 184.439C219.257 183.802 218.502 183.506 218.022 182.903C216.564 181.219 216.401 178.351 216.358 175.78C216.23 174.519 216.413 173.237 216.881 172.127C217.393 171.34 218.057 170.753 218.802 170.432C219.4 170.034 220.055 169.809 220.723 169.772C221.577 169.869 222.367 170.403 222.928 171.262C223.474 172.119 223.933 173.068 224.291 174.084C226.924 180.718 229.677 187.102 232.679 193.428C234.652 197.287 236.292 201.428 237.567 205.774C238.828 210.149 238.94 214.96 237.884 219.429C237.365 221.456 236.443 223.26 235.217 224.652C233.691 226.132 231.932 227.132 230.071 227.576C222.381 229.951 214.351 229.559 206.813 226.438C205.038 225.687 203.202 224.72 202.036 222.786C201.145 221.176 200.621 219.26 200.527 217.267C200.166 212.966 201.444 206.036 205.406 206.867C207.756 207.356 210.681 210.098 212.842 211.418C215.303 212.977 228.485 213.489 228.373 211.122Z" fill="url(#paint3_linear_2_539)"/>
<path d="M149.25 441.884L150.794 442.18L151.008 434.716C151.008 434.716 153.649 437.219 154.559 438.391C155.468 439.563 165.15 445.139 167.826 442.806C170.502 440.473 157.646 427.217 157.646 427.217L177.783 350.444L192.808 303.086C192.808 303.086 223.639 308.775 221.881 314.044C220.303 318.595 219.017 353.289 218.108 362.745C218.053 363.495 217.938 364.235 217.765 364.952C217.759 364.994 217.759 365.036 217.765 365.077C216.907 366.215 215.406 368.002 215.278 370.334C215.149 372.667 215.844 382.851 215.844 382.851L217.199 383.227L218.485 375.068C218.485 375.068 219.205 375.648 223.485 379.62C227.764 383.591 236.023 385.491 237.061 383.329C238.099 381.167 230.269 376.661 227.319 372.36C224.368 368.059 245.92 311.347 241.486 296.031C237.052 280.715 201.359 268.847 201.359 268.847C201.359 268.847 177.345 265.513 175.176 269.018C173.006 272.522 164.841 296.497 166.505 299.866C168.169 303.234 162.294 348.863 157.423 357.078C152.552 365.294 150.794 389.974 151.231 396.984C151.668 403.993 149.473 423.542 149.473 423.542C149.473 423.542 147.809 426.5 147.586 428.423C147.363 430.346 149.25 441.884 149.25 441.884Z" fill="#642127"/>
<path d="M167.766 302.642C167.766 302.642 171.085 303.666 171.471 304.406C171.857 305.145 172.191 310.641 171.471 312.985L169.318 312.03C169.318 312.03 169.867 307.706 169.37 306.34C168.872 304.975 165.553 304.36 165.553 304.36C164.943 304.084 164.298 303.973 163.655 304.036C163.012 304.098 162.385 304.331 161.812 304.722C161.239 305.113 160.731 305.653 160.319 306.311C159.906 306.968 159.598 307.729 159.413 308.548L157.423 307.956C157.423 307.956 158.804 302.084 161.299 301.652C163.795 301.22 167.766 302.642 167.766 302.642Z" fill="url(#paint4_linear_2_539)"/>
<path d="M209.857 221.898C210.517 224.01 210.931 226.243 211.084 228.52C211.213 232.958 209.369 237.009 207.653 240.844C204.695 247.671 202.036 254.965 201.83 262.793C201.744 266.207 201.985 270.064 200.158 272.443C198.992 273.956 197.268 274.4 195.638 274.718C190.298 275.672 184.893 275.79 179.532 275.071C177.963 274.866 176.162 274.366 175.441 272.5C175.117 271.416 175.019 270.237 175.158 269.086L177.062 233.664C177.328 228.646 177.611 223.571 178.778 218.803C179.798 214.718 183.143 210.326 185.347 207.174C187.115 204.7 189.352 202.904 191.824 201.975C194.297 201.046 196.912 201.018 199.395 201.894C207.508 204.386 207.43 212.943 209.857 221.898Z" fill="#FFC9B0"/>
<path d="M212.851 218.678C213.627 216.128 214.893 213.893 216.521 212.192C214.443 209.804 212.085 207.883 209.54 206.502C208.683 206.025 199.412 201.143 198.58 201.689C197.748 202.235 205.672 207.913 205.372 209.029C204.774 210.738 204.517 212.623 204.626 214.502C204.866 215.813 205.269 217.063 205.818 218.2C206.636 220.145 207.375 222.146 208.031 224.197C208.331 225.13 209.171 229.749 209.849 229.886C211.29 230.205 212.405 220.146 212.851 218.678Z" fill="#FFC9B0"/>
<path opacity="0.37" d="M183.717 256.114C183.606 259.232 183.529 262.532 184.652 265.217C185.227 266.617 186.076 267.777 186.676 269.166C187.014 269.828 187.217 270.596 187.266 271.393C187.314 272.191 187.205 272.992 186.951 273.717C185.887 276.084 183.074 275.56 181.513 277.381C180.924 278.157 180.477 279.103 180.21 280.146C177.332 289.29 176.501 299.34 177.817 309.094C178.109 311.199 178.426 313.645 177.38 315.261C176.059 317.309 173.615 316.604 171.608 316.137C169.73 315.705 167.406 315.272 166.737 312.894C166.535 311.845 166.535 310.746 166.737 309.697C168.006 298.216 168.452 286.586 169.876 275.139C171.299 263.692 173.778 252.245 178.692 242.653C179.602 240.779 180.708 239.086 181.976 237.624C183.966 235.427 184.472 235.7 184.352 239.091L183.717 256.114Z" fill="url(#paint5_linear_2_539)"/>
<path d="M181.522 240.593C179.712 243.825 178.949 247.864 178.246 251.779L169.67 299.103C169.543 300.06 169.249 300.964 168.812 301.743C168.195 302.699 167.097 303.302 167.045 304.554C167.045 305.032 167.165 305.555 166.951 305.93C166.737 306.306 166.359 306.283 166.025 306.249C164.803 306.21 163.597 305.875 162.466 305.259C161.906 304.935 161.421 304.417 161.063 303.761C160.704 303.105 160.484 302.334 160.425 301.527C160.425 299.399 161.831 297.84 162.835 296.167C165.313 292.037 165.339 286.302 165.467 281.034C165.982 261.098 169.876 241.071 178.1 224.367C178.76 223.024 179.712 221.545 180.904 221.784C181.549 222.004 182.12 222.505 182.525 223.207C183.906 225.198 186.376 229.431 186.325 232.31C186.273 235.484 182.86 238.215 181.522 240.593Z" fill="url(#paint6_linear_2_539)"/>
<path d="M207.996 176.804C208.785 177.407 209.712 178.055 209.943 179.216C210.009 179.672 210.058 180.131 210.089 180.593C210.355 182.687 212.079 184.189 212.07 186.282C212.062 188.376 210.544 189.639 209.497 191.096C208.178 193.034 207.316 195.443 207.019 198.025C206.731 200.59 206.611 203.182 206.659 205.774C206.659 208.13 206.41 210.94 204.832 212.021C204.088 212.455 203.264 212.582 202.465 212.385C201.53 212.263 200.639 211.798 199.892 211.043C199.434 210.471 199.066 209.784 198.81 209.023C198.554 208.261 198.414 207.439 198.4 206.605C198.37 204.942 198.447 203.278 198.631 201.632C198.751 199.892 198.769 198.142 198.683 196.398C198.704 195.737 198.626 195.077 198.453 194.456C198.281 193.835 198.018 193.265 197.679 192.78C197.063 192.224 196.369 191.837 195.638 191.642C194.528 191.275 193.561 190.37 192.928 189.104C192.634 188.463 192.507 187.711 192.567 186.964C192.628 186.217 192.872 185.518 193.263 184.974C194.009 184.075 195.312 183.836 195.561 182.539C195.604 182.181 195.604 181.816 195.561 181.458C195.431 178.395 196.165 175.377 197.619 172.992C198.734 171.171 201.05 169.26 202.808 170.716C203.614 171.399 204.223 172.821 204.935 173.686C205.867 174.87 206.894 175.915 207.996 176.804Z" fill="url(#paint7_linear_2_539)"/>
<path d="M201.144 170.25C200.913 170.578 200.738 170.969 200.63 171.394C200.522 171.82 200.484 172.272 200.518 172.719C200.518 173.618 200.724 174.494 200.793 175.381C200.905 176.277 200.758 177.196 200.381 177.953C199.763 179.023 198.468 179.41 198.28 180.73C198.26 181.152 198.318 181.574 198.448 181.96C198.578 182.346 198.776 182.685 199.026 182.948C199.527 183.468 199.948 184.109 200.269 184.837C200.352 185.047 200.374 185.29 200.329 185.52C200.226 185.907 199.875 186.043 199.566 186.089C199.131 186.175 198.687 186.14 198.263 185.987C197.677 185.649 197.131 185.2 196.642 184.655C195.775 183.87 194.783 183.363 193.743 183.176C193.275 183.185 192.82 182.975 192.457 182.584C192.301 182.322 192.206 182.006 192.182 181.674C192.122 180.451 192.327 179.231 192.774 178.158C193.499 176.093 194.336 174.1 195.278 172.195C195.564 171.527 195.925 170.921 196.35 170.398C197.029 169.738 197.823 169.315 198.657 169.169C199.738 168.884 201.83 168.543 202.602 169.874C202.355 169.772 202.092 169.753 201.838 169.819C201.583 169.884 201.345 170.032 201.144 170.25Z" fill="#606161"/>
<path d="M215.492 153.932C218.339 160.76 219.634 166.984 218.391 167.906C218.185 168.065 216.796 169.043 216.487 168.93C214.935 168.213 213.357 162.933 210.981 157.255C208.605 151.577 205.715 146.752 206.093 144.636C206.161 144.226 207.876 143.43 208.074 143.282C209.317 142.36 212.653 147.128 215.492 153.932Z" fill="#6F87FC"/>
<path d="M209.086 158.268C211.916 165.095 215.243 169.863 216.504 168.941C216.627 168.834 216.73 168.691 216.806 168.524C216.882 168.356 216.928 168.168 216.941 167.974C217.25 165.801 215.964 160.589 213.605 154.968C211.247 149.347 208.734 145.33 207.13 144.374C206.987 144.271 206.828 144.21 206.665 144.196C206.502 144.183 206.339 144.216 206.187 144.295C204.935 145.216 206.23 151.475 209.086 158.268Z" fill="black"/>
<path d="M210.406 157.392C212.705 162.899 215.312 167.109 216.916 167.985C217.224 165.812 215.938 160.6 213.58 154.979C211.221 149.358 208.708 145.341 207.105 144.386C206.762 146.548 208.048 151.805 210.406 157.392Z" fill="#BD1B0F"/>
<path d="M218.031 168.076L218.794 170.432L217.816 171.08L216.984 168.736L218.031 168.076Z" fill="#6F87FC"/>
<path d="M222.833 179.421L225.775 186.76C225.816 186.927 225.831 187.103 225.82 187.277C225.809 187.452 225.771 187.621 225.709 187.776C225.648 187.931 225.563 188.068 225.461 188.179C225.359 188.29 225.241 188.372 225.114 188.422C224.154 188.911 223.717 188.513 223.717 188.513L220.766 181.173C220.766 181.173 221.427 178.533 222.833 179.421Z" fill="black"/>
<path d="M146.507 304.19L186.171 318.296C188.491 319.121 189.868 322.286 189.246 325.364L182.641 358.057C182.02 361.135 179.635 362.962 177.314 362.137L137.65 348.031C135.33 347.206 133.953 344.041 134.575 340.963L141.18 308.27C141.802 305.192 144.187 303.365 146.507 304.19Z" fill="#606161"/>
<path d="M146.507 304.19L186.171 318.296C188.491 319.121 189.868 322.286 189.246 325.364L182.641 358.057C182.02 361.135 179.635 362.962 177.314 362.137L137.65 348.031C135.33 347.206 133.953 344.041 134.575 340.963L141.18 308.27C141.802 305.192 144.187 303.365 146.507 304.19Z" fill="url(#paint8_linear_2_539)"/>
<path d="M143.349 303.097L182.881 316.965C185.194 317.777 186.573 320.921 185.961 323.99L179.468 356.574C178.857 359.642 176.486 361.472 174.174 360.661L134.641 346.792C132.329 345.981 130.95 342.836 131.561 339.768L138.055 307.184C138.666 304.116 141.036 302.286 143.349 303.097Z" fill="#606161"/>
<path d="M143.349 303.097L182.881 316.965C185.194 317.777 186.573 320.921 185.961 323.99L179.468 356.574C178.857 359.642 176.486 361.472 174.174 360.661L134.641 346.792C132.329 345.981 130.95 342.836 131.561 339.768L138.055 307.184C138.666 304.116 141.036 302.286 143.349 303.097Z" fill="url(#paint9_linear_2_539)"/>
<path d="M96.3609 436.923V472.926C108.502 479.799 121.532 483.481 134.731 483.77C205.758 485.147 276.811 485.272 347.839 486.046C358.928 486.171 370.523 486.046 381.286 483.087V321.849H277.755V382.931H198.074V436.923H96.3609Z" fill="#6F87FC"/>
<path opacity="0.37" d="M221.881 314.044C220.303 318.595 219.017 353.289 218.108 362.745C219.643 353.289 225.337 318.55 226.684 316.297C228.253 313.634 228.03 306.875 226.898 304.246C225.766 301.618 210.938 294.87 203.22 294.87C201.076 294.787 198.96 295.516 197.118 296.971C195.275 298.426 193.783 300.547 192.817 303.086C192.817 303.086 223.639 308.752 221.881 314.044Z" fill="#642127"/>
<g opacity="0.24">
<path opacity="0.24" d="M359.683 169.897V157.38C372.075 156.015 379.305 146.286 380.334 133.132H371.243C370.753 136.895 369.366 140.351 367.285 142.989C365.203 145.628 362.539 147.31 359.683 147.788V114.676C373.405 109.202 378.782 102.341 378.782 89.6422C378.782 75.8056 370.729 66.6229 359.683 65.6557V56.3137H353.791V65.7581C340.069 67.5446 335.618 79.333 335.001 87.8216H343.868C345.009 82.2005 347.487 76.7273 353.782 75.2139V105.083C337.985 111.114 333.44 119.876 333.44 132.074C333.44 147.287 341.081 156.197 353.782 157.426V169.942L359.683 169.897ZM359.683 102.762V74.9408C367.118 75.7714 369.803 81.6543 369.803 88.2312C369.803 94.8082 367.427 99.2004 359.683 102.762ZM353.791 117.008V147.97C346.664 147.014 342.848 142.281 342.848 133.314C342.848 126.054 345.223 120.979 353.791 117.008Z" fill="#6F87FC"/>
</g>
<path d="M356.827 168.952V156.436C369.219 155.07 376.449 145.341 377.487 132.188H368.396C367.906 135.953 366.517 139.409 364.434 142.048C362.351 144.687 359.684 146.368 356.827 146.843V113.731C370.549 108.247 375.934 101.396 375.934 88.6978C375.934 74.8498 367.881 65.6784 356.827 64.7112V55.3237H350.944V64.7681C337.222 66.5546 332.771 78.343 332.145 86.8316H341.03C342.153 81.256 344.64 75.8056 350.944 74.2694V104.139C335.146 110.17 330.601 118.931 330.601 131.129C330.601 146.343 338.242 155.252 350.944 156.481V168.998L356.827 168.952ZM356.827 101.818V73.9963C364.262 74.8156 366.947 80.7098 366.947 87.2868C366.947 93.8637 364.571 98.2559 356.827 101.818ZM350.944 116.064V147.025C343.817 146.07 340 141.336 340 132.37C340 125.11 342.367 120.035 350.944 116.064Z" fill="#BD1B0F"/>
<g opacity="0.24">
<path opacity="0.24" d="M312.994 200.654V194.828C318.783 194.191 322.162 189.639 322.642 183.449H318.354C318.123 185.204 317.473 186.814 316.5 188.043C315.528 189.272 314.284 190.055 312.951 190.276V174.858C319.366 172.298 321.879 169.1 321.879 163.149C321.879 156.686 318.114 152.396 312.951 151.953V147.594H310.207V152.044C303.792 152.886 301.717 158.382 301.425 162.353H305.576C305.789 160.853 306.35 159.478 307.18 158.422C308.01 157.365 309.068 156.679 310.207 156.459V170.42C302.823 173.231 300.705 177.327 300.705 183.017C300.705 190.128 304.272 194.282 310.207 194.862V200.688L312.994 200.654ZM312.994 169.294V156.299C316.425 156.686 317.72 159.44 317.72 162.512C317.72 165.584 316.63 167.633 312.994 169.294ZM310.25 175.95V190.413C306.914 189.969 305.104 187.727 305.104 183.586C305.156 180.172 306.262 177.805 310.267 175.939L310.25 175.95Z" fill="#6F87FC"/>
</g>
<path d="M311.682 200.21V194.384C317.471 193.747 320.85 189.207 321.33 183.005H317.085C316.853 184.76 316.203 186.371 315.231 187.599C314.258 188.828 313.015 189.611 311.682 189.833V174.414C318.097 171.854 320.61 168.657 320.61 162.705C320.61 156.242 316.845 151.953 311.682 151.509V147.162H308.929V151.577C302.514 152.408 300.439 157.904 300.156 161.818H304.298C304.515 160.321 305.077 158.951 305.907 157.897C306.737 156.843 307.793 156.158 308.929 155.935V169.885C301.554 172.696 299.427 176.792 299.427 182.493C299.427 189.594 303.003 193.758 308.929 194.327V200.153L311.682 200.21ZM311.682 168.85V155.855C315.155 156.242 316.407 158.996 316.407 162.068C316.407 165.141 315.301 167.189 311.682 168.85ZM308.929 175.507V189.969C305.602 189.525 303.783 187.284 303.783 183.142C303.818 179.728 304.933 177.361 308.929 175.507Z" fill="#BD1B0F"/>
<g opacity="0.24">
<path opacity="0.24" d="M373.182 233.436V227.61C378.97 226.973 382.349 222.433 382.83 216.288H378.542C378.31 218.043 377.66 219.654 376.688 220.882C375.715 222.111 374.471 222.894 373.139 223.116V207.64C379.554 205.08 382.066 201.883 382.066 195.932C382.066 189.468 378.302 185.179 373.139 184.735V180.377H370.454V184.792C364.031 185.634 361.964 191.13 361.672 195.101H365.823C366.035 193.602 366.596 192.228 367.427 191.173C368.257 190.118 369.316 189.434 370.454 189.218V203.169C363.07 205.979 360.943 210.075 360.943 215.776C360.943 222.877 364.52 227.03 370.454 227.61V233.436H373.182ZM373.182 202.076V189.082C376.612 189.468 377.907 192.222 377.907 195.294C377.907 198.367 376.801 200.415 373.182 202.11V202.076ZM370.437 208.733V223.195C367.101 222.751 365.292 220.51 365.292 216.368C365.309 212.954 366.432 210.588 370.454 208.733H370.437Z" fill="#6F87FC"/>
</g>
<path d="M371.852 232.992V227.144C377.641 226.506 381.012 221.966 381.5 215.765H377.255C377.022 217.519 376.372 219.128 375.4 220.357C374.427 221.586 373.184 222.369 371.852 222.592V207.208C378.267 204.648 380.771 201.439 380.771 195.488C380.771 189.025 377.015 184.746 371.852 184.291V179.944H369.099V184.359C362.684 185.19 360.609 190.697 360.326 194.6H364.451C364.668 193.104 365.23 191.734 366.06 190.68C366.89 189.626 367.946 188.94 369.082 188.717V202.668C361.707 205.478 359.58 209.575 359.58 215.276C359.58 222.376 363.156 226.541 369.082 227.11V232.935L371.852 232.992ZM371.852 201.632V188.649C375.326 189.025 376.578 191.778 376.578 194.851C376.578 197.923 375.471 199.971 371.852 201.632ZM369.099 208.289V222.751C365.772 222.308 363.954 220.066 363.954 215.924C363.988 212.511 365.094 210.144 369.099 208.289Z" fill="#BD1B0F"/>
</g>
<defs>
<linearGradient id="paint0_linear_2_539" x1="142.226" y1="297.408" x2="164.026" y2="822.98" gradientUnits="userSpaceOnUse">
<stop stop-color="#010101" stop-opacity="0"/>
<stop offset="0.95" stop-color="#010101"/>
</linearGradient>
<linearGradient id="paint1_linear_2_539" x1="-11139.6" y1="62217.8" x2="-16648.3" y2="116117" gradientUnits="userSpaceOnUse">
<stop stop-color="#010101" stop-opacity="0"/>
<stop offset="0.95" stop-color="#010101"/>
</linearGradient>
<linearGradient id="paint2_linear_2_539" x1="-15404.7" y1="11955" x2="-13701.8" y2="15679.3" gradientUnits="userSpaceOnUse">
<stop stop-color="#010101" stop-opacity="0"/>
<stop offset="0.95" stop-color="#010101"/>
</linearGradient>
<linearGradient id="paint3_linear_2_539" x1="238.622" y1="199.47" x2="200.449" y2="199.47" gradientUnits="userSpaceOnUse">
<stop stop-color="#E5C6D6"/>
<stop offset="0.42" stop-color="#EAD4D0"/>
<stop offset="1" stop-color="#F0E9CB"/>
</linearGradient>
<linearGradient id="paint4_linear_2_539" x1="-4784.95" y1="3399.74" x2="-5029.23" y2="3399.74" gradientUnits="userSpaceOnUse">
<stop stop-color="#010101" stop-opacity="0"/>
<stop offset="0.95" stop-color="#010101"/>
</linearGradient>
<linearGradient id="paint5_linear_2_539" x1="-6528.73" y1="19889.8" x2="-7028.63" y2="19889.8" gradientUnits="userSpaceOnUse">
<stop stop-color="#010101" stop-opacity="0"/>
<stop offset="0.95" stop-color="#010101"/>
</linearGradient>
<linearGradient id="paint6_linear_2_539" x1="-8249.54" y1="19945.9" x2="-9031.74" y2="19945.9" gradientUnits="userSpaceOnUse">
<stop stop-color="#E5C6D6"/>
<stop offset="0.42" stop-color="#EAD4D0"/>
<stop offset="1" stop-color="#F0E9CB"/>
</linearGradient>
<linearGradient id="paint7_linear_2_539" x1="-5558.88" y1="7339.04" x2="-6004.27" y2="7339.04" gradientUnits="userSpaceOnUse">
<stop stop-color="#E5C6D6"/>
<stop offset="0.42" stop-color="#EAD4D0"/>
<stop offset="1" stop-color="#F0E9CB"/>
</linearGradient>
<linearGradient id="paint8_linear_2_539" x1="-17513.4" y1="13471" x2="-15694.5" y2="15332.5" gradientUnits="userSpaceOnUse">
<stop stop-color="#010101" stop-opacity="0"/>
<stop offset="0.95" stop-color="#010101"/>
</linearGradient>
<linearGradient id="paint9_linear_2_539" x1="-15969.3" y1="13552.3" x2="-19129.2" y2="13552.3" gradientUnits="userSpaceOnUse">
<stop stop-color="#010101" stop-opacity="0"/>
<stop offset="0.95" stop-color="#010101"/>
</linearGradient>
<clipPath id="clip0_2_539">
<rect width="486" height="486" fill="white" transform="matrix(-1 0 0 1 486 0)"/>
</clipPath>
</defs>
</svg>
