<svg width="486" height="486" viewBox="0 0 486 486" fill="none" xmlns="http://www.w3.org/2000/svg">
<path d="M75.0262 385.151V404.045H374.475L413.294 338.466V315.817L75.0262 385.151Z" fill="white"/>
<path d="M374.475 404.77H75.0262C74.8812 404.77 74.7421 404.694 74.6396 404.558C74.5371 404.422 74.4795 404.237 74.4795 404.045V385.151C74.4779 384.977 74.5237 384.808 74.6085 384.674C74.6932 384.541 74.8114 384.453 74.9412 384.426L413.209 315.107C413.289 315.092 413.371 315.1 413.449 315.13C413.526 315.161 413.598 315.214 413.659 315.285C413.72 315.351 413.769 315.435 413.802 315.53C413.836 315.625 413.853 315.728 413.853 315.833V338.482C413.856 338.647 413.812 338.808 413.732 338.934L374.913 404.512C374.859 404.595 374.791 404.662 374.716 404.706C374.64 404.751 374.558 404.773 374.475 404.77ZM75.5851 403.303H374.22L412.76 338.208V316.687L75.5851 385.78V403.303Z" fill="#231F20"/>
<path d="M138.656 210.146C136.365 210.245 134.093 209.572 132.051 208.191C130.01 206.81 128.265 204.765 126.98 202.247C125.315 198.469 124.272 194.266 123.918 189.915C122.764 180.097 121.694 170.457 122.8 160.592C123.021 157.777 123.64 155.043 124.623 152.531C125.117 151.272 125.824 150.181 126.688 149.342C127.552 148.504 128.55 147.94 129.604 147.695C130.44 143.542 132.422 139.957 135.157 137.652C139.26 133.976 144.274 132.544 149.153 133.654C148.154 133.664 147.173 133.301 146.322 132.606C145.907 132.245 145.61 131.688 145.492 131.047C145.375 130.406 145.446 129.73 145.691 129.156C146.286 128.092 147.465 128.141 148.449 128.334C153.528 129.316 158.41 131.628 162.81 135.137C162.543 132.767 164.499 130.785 166.309 130.849C168.121 131.151 169.818 132.186 171.169 133.815C173.722 136.125 175.899 139.09 177.572 142.537C179.419 146.808 179.152 153.482 177.84 157.98C177.479 159.446 176.766 160.714 175.81 161.591C175.106 162.284 174.158 162.542 173.466 163.203C172.056 164.525 172.433 163.735 171.825 166.089C170.513 171.167 169.808 175.987 167.767 180.758C165.743 185.314 163.426 189.629 160.842 193.655C157.037 199.985 152.112 204.969 146.505 208.163C144.011 209.496 141.344 210.169 138.656 210.146Z" fill="white"/>
<path d="M138.802 210.952H138.644C136.257 211.048 133.89 210.34 131.766 208.894C129.641 207.448 127.827 205.311 126.494 202.682C124.781 198.806 123.704 194.494 123.335 190.028C122.265 181.032 121.05 170.828 122.217 160.479C122.444 157.553 123.083 154.71 124.1 152.096C124.615 150.817 125.328 149.697 126.193 148.81C127.058 147.924 128.055 147.291 129.118 146.954C130.062 142.825 132.088 139.28 134.829 136.959C137.956 134.172 141.61 132.603 145.375 132.429C145.108 131.951 144.925 131.4 144.84 130.817C144.795 130.449 144.805 130.073 144.869 129.711C144.934 129.349 145.052 129.007 145.217 128.705C146.116 127.093 147.938 127.448 148.546 127.56C153.374 128.52 158.028 130.652 162.275 133.848C162.409 133.167 162.668 132.541 163.029 132.026C163.444 131.407 163.956 130.916 164.529 130.584C165.101 130.253 165.721 130.091 166.346 130.108C168.284 130.41 170.102 131.509 171.546 133.251C174.177 135.602 176.415 138.648 178.119 142.198C180.087 146.776 179.759 153.773 178.411 158.319C178.01 159.915 177.224 161.291 176.175 162.236C175.755 162.621 175.302 162.941 174.826 163.187C174.469 163.364 174.127 163.591 173.806 163.864L173.138 164.461C172.797 164.751 172.797 164.751 172.615 165.476L172.396 166.347C172.02 167.83 171.68 169.281 171.351 170.731C170.64 174.352 169.617 177.851 168.302 181.161C166.252 185.754 163.91 190.106 161.303 194.171C157.433 200.582 152.423 205.617 146.723 208.824C144.21 210.199 141.52 210.922 138.802 210.952ZM145.909 134.041C142.198 134.066 138.575 135.547 135.497 138.297C132.874 140.482 130.979 143.912 130.199 147.889C130.173 148.054 130.109 148.205 130.015 148.321C129.922 148.436 129.804 148.51 129.677 148.533C128.721 148.751 127.815 149.256 127.03 150.011C126.244 150.765 125.599 151.749 125.145 152.886C124.202 155.354 123.613 158.032 123.408 160.785C122.278 170.876 123.468 180.952 124.525 189.802C124.872 194.041 125.882 198.137 127.49 201.828C128.724 204.228 130.394 206.176 132.345 207.492C134.297 208.808 136.468 209.449 138.656 209.356C141.27 209.347 143.857 208.663 146.274 207.341C151.785 204.241 156.628 199.372 160.368 193.171C162.927 189.174 165.227 184.898 167.245 180.388C168.509 177.175 169.5 173.784 170.197 170.28C170.525 168.813 170.865 167.346 171.254 165.831L171.461 164.992C171.74 163.864 171.813 163.687 172.481 163.122L173.113 162.558C173.495 162.223 173.902 161.942 174.328 161.72C174.716 161.52 175.086 161.266 175.434 160.962C176.297 160.19 176.939 159.054 177.256 157.738C178.471 153.531 178.812 147.115 177.038 142.988C175.412 139.627 173.287 136.742 170.793 134.508C169.538 132.99 167.967 132.012 166.285 131.703C165.829 131.683 165.375 131.794 164.955 132.031C164.536 132.268 164.16 132.624 163.855 133.074C163.665 133.337 163.521 133.653 163.433 133.998C163.345 134.344 163.315 134.71 163.345 135.073C163.366 135.225 163.353 135.382 163.308 135.525C163.263 135.667 163.187 135.789 163.09 135.875C162.993 135.961 162.879 136.007 162.762 136.008C162.645 136.008 162.531 135.963 162.433 135.879C158.1 132.419 153.293 130.129 148.291 129.14C147.149 128.915 146.432 129.14 146.116 129.656C145.98 129.92 145.928 130.244 145.97 130.559C146.045 131.125 146.279 131.633 146.626 131.978C146.936 132.271 147.287 132.479 147.659 132.59C148.169 132.59 148.692 132.751 149.202 132.88C149.363 132.908 149.509 133.02 149.608 133.19C149.708 133.361 149.751 133.577 149.731 133.791C149.71 134.005 149.625 134.199 149.497 134.33C149.368 134.462 149.205 134.52 149.044 134.492C148.513 134.444 147.985 134.347 147.465 134.202C147.015 134.073 146.456 134.041 145.909 134.041Z" fill="#101057"/>
<path d="M175.227 181.081C175.227 181.081 182.311 194.896 180.901 197.814C179.492 200.732 174.705 198.894 174.705 198.894" fill="white"/>
<path d="M177.718 200.264C176.642 200.247 175.572 200.047 174.535 199.668C174.382 199.604 174.253 199.465 174.176 199.279C174.099 199.092 174.08 198.874 174.122 198.668C174.143 198.566 174.179 198.469 174.228 198.386C174.278 198.302 174.34 198.232 174.41 198.181C174.481 198.13 174.558 198.098 174.638 198.088C174.718 198.077 174.798 198.088 174.875 198.12C176.09 198.572 179.443 199.345 180.391 197.379C181.132 195.767 178.022 187.964 174.729 181.532C174.684 181.444 174.653 181.346 174.637 181.242C174.621 181.138 174.621 181.031 174.636 180.927C174.651 180.823 174.682 180.724 174.726 180.635C174.77 180.547 174.827 180.471 174.893 180.412C174.959 180.353 175.034 180.311 175.112 180.29C175.19 180.269 175.271 180.268 175.349 180.289C175.428 180.309 175.502 180.349 175.569 180.408C175.636 180.466 175.693 180.542 175.738 180.629C177.451 183.966 182.93 195.138 181.412 198.249C180.971 198.966 180.402 199.526 179.757 199.878C179.112 200.23 178.411 200.363 177.718 200.264Z" fill="#231F20"/>
<path d="M173.575 162.687C178.034 167.394 176.855 177.534 176.88 184.112C176.88 193.386 176.758 202.645 176.515 211.887C176.333 217.755 164.888 218.078 162.846 216.353L164.997 231.828L138.656 228.056V210.146C138.656 210.146 149.275 208.437 153.637 196.395C157.999 184.353 157.828 161.897 157.828 161.897C157.828 161.897 169.213 158.093 173.575 162.687Z" fill="white"/>
<path d="M164.997 232.634H164.936L138.583 228.846C138.436 228.826 138.299 228.734 138.201 228.588C138.102 228.442 138.048 228.252 138.048 228.056V210.146C138.044 209.947 138.097 209.754 138.197 209.604C138.296 209.455 138.434 209.36 138.583 209.34C138.68 209.34 148.923 207.535 153.09 196.057C157.257 184.579 157.221 162.204 157.221 161.913C157.217 161.731 157.262 161.553 157.346 161.409C157.43 161.265 157.549 161.164 157.683 161.124C158.157 160.962 169.407 157.271 173.952 162.059C177.9 166.218 177.706 174.165 177.597 180.549C177.597 181.806 177.597 183.015 177.597 184.111C177.597 193.349 177.511 202.699 177.232 211.919C177.162 212.849 176.897 213.734 176.467 214.475C176.038 215.215 175.461 215.782 174.802 216.111C171.801 218.207 166.297 218.448 163.709 217.594L165.604 231.716C165.618 231.839 165.611 231.966 165.584 232.085C165.556 232.205 165.51 232.316 165.447 232.409C165.387 232.484 165.316 232.543 165.239 232.582C165.162 232.621 165.079 232.638 164.997 232.634ZM139.263 227.331L164.256 230.91L162.251 216.498C162.227 216.345 162.239 216.186 162.285 216.042C162.33 215.898 162.407 215.776 162.506 215.692C162.606 215.609 162.722 215.565 162.84 215.565C162.958 215.565 163.074 215.609 163.174 215.692C164.487 216.804 170.914 216.965 174.109 214.692C175.227 213.918 175.81 212.967 175.847 211.871C176.126 202.682 176.248 193.349 176.211 184.144C176.211 183.015 176.211 181.79 176.211 180.5C176.357 174.487 176.539 166.991 173.065 163.332C169.42 159.544 160.453 161.93 158.314 162.558C158.314 166.395 158.059 185.707 154.062 196.766C150.065 207.825 141.402 210.324 139.142 210.856L139.263 227.331Z" fill="#231F20"/>
<path d="M161.911 187.239C161.696 184.924 160.997 182.735 159.894 180.92C159.201 179.371 158.337 177.969 157.33 176.761C156.82 176.164 156.217 175.725 155.563 175.474C154.91 175.224 154.223 175.167 153.552 175.31C152.971 175.517 152.43 175.884 151.963 176.386C151.496 176.889 151.115 177.516 150.842 178.228C150.318 179.667 150.036 181.24 150.016 182.838C149.937 186.321 150.55 189.771 151.794 192.841C153.037 195.911 154.867 198.493 157.1 200.329L156.711 199.781" fill="white"/>
<path d="M157.1 201.086C156.981 201.138 156.853 201.138 156.735 201.086C154.415 199.167 152.514 196.476 151.22 193.281C149.926 190.085 149.285 186.496 149.36 182.87C149.378 181.152 149.685 179.461 150.259 177.921C150.569 177.104 151.007 176.384 151.544 175.808C152.08 175.233 152.702 174.816 153.369 174.584C154.13 174.405 154.911 174.457 155.654 174.736C156.397 175.015 157.082 175.515 157.658 176.196C158.72 177.45 159.63 178.912 160.356 180.533C161.523 182.472 162.255 184.806 162.47 187.271C162.473 187.482 162.414 187.687 162.305 187.84C162.196 187.994 162.046 188.085 161.887 188.093C161.727 188.094 161.573 188.014 161.456 187.871C161.339 187.727 161.267 187.53 161.255 187.319C161.03 185.161 160.371 183.123 159.347 181.419C158.69 179.94 157.871 178.598 156.917 177.438C156.481 176.915 155.962 176.527 155.399 176.304C154.836 176.081 154.242 176.028 153.661 176.148C153.164 176.327 152.702 176.644 152.304 177.077C151.906 177.511 151.582 178.051 151.353 178.663C150.866 179.989 150.609 181.443 150.599 182.919C150.543 186.059 151.068 189.171 152.127 191.981C153.186 194.791 154.747 197.214 156.674 199.039C156.766 199.026 156.858 199.04 156.945 199.082C157.031 199.124 157.109 199.192 157.172 199.281L157.561 199.829C157.658 199.974 157.711 200.16 157.711 200.353C157.711 200.546 157.658 200.732 157.561 200.877C157.5 200.954 157.427 201.013 157.348 201.049C157.268 201.085 157.183 201.098 157.1 201.086Z" fill="#231F20"/>
<path d="M173.271 177.223C173.813 177.174 174.178 175.659 174.086 173.838C173.993 172.017 173.479 170.58 172.937 170.628C172.394 170.677 172.03 172.192 172.122 174.013C172.214 175.834 172.729 177.271 173.271 177.223Z" fill="#231F20"/>
<path d="M132.909 234.94L134.768 222.269L168.618 225.009L170.744 234.15C170.744 234.15 152.154 246.917 132.909 234.94Z" fill="white"/>
<path d="M150.478 240.856C144.325 240.902 138.24 239.152 132.654 235.73C132.53 235.654 132.43 235.525 132.368 235.364C132.307 235.203 132.287 235.02 132.313 234.843L134.172 222.156C134.196 221.962 134.275 221.788 134.392 221.668C134.51 221.548 134.657 221.492 134.804 221.511L168.654 224.252C168.778 224.258 168.898 224.316 168.996 224.418C169.094 224.519 169.166 224.658 169.201 224.816L171.315 233.972C171.359 234.153 171.352 234.348 171.297 234.523C171.241 234.698 171.14 234.84 171.011 234.924C164.563 238.816 157.562 240.838 150.478 240.856ZM133.65 234.521C150.66 244.693 167.135 235.568 170.1 233.779L168.265 225.815L135.363 223.156L133.65 234.521Z" fill="#231F20"/>
<path d="M176.697 204.569C176.697 204.569 174.802 209.405 168.873 204.569H176.697Z" fill="white"/>
<path d="M173.538 207.535C171.753 207.393 170.03 206.607 168.557 205.262C168.442 205.135 168.365 204.958 168.341 204.762C168.316 204.566 168.346 204.366 168.424 204.197C168.503 204.028 168.625 203.902 168.767 203.843C168.91 203.784 169.064 203.796 169.201 203.875C171.291 205.6 173.125 206.245 174.498 205.761C175.189 205.53 175.786 204.952 176.163 204.149C176.237 203.959 176.365 203.816 176.519 203.751C176.673 203.686 176.84 203.704 176.983 203.803C177.126 203.901 177.234 204.071 177.283 204.275C177.332 204.479 177.318 204.701 177.244 204.891C176.696 206.065 175.824 206.91 174.814 207.245C174.401 207.418 173.972 207.515 173.538 207.535Z" fill="#231F20"/>
<path d="M378.582 372.206H70.2634L111.525 312.141L415.737 308.724L378.582 372.206Z" fill="white"/>
<path d="M378.582 372.932H70.2634C70.1568 372.936 70.052 372.896 69.9629 372.818C69.8739 372.74 69.8049 372.628 69.7653 372.497C69.7197 372.367 69.7045 372.223 69.7219 372.082C69.7392 371.941 69.7882 371.81 69.8625 371.707L111.172 311.658C111.222 311.581 111.284 311.52 111.353 311.478C111.422 311.436 111.497 311.415 111.573 311.416L415.785 307.982C415.888 307.984 415.988 308.022 416.076 308.093C416.164 308.164 416.235 308.265 416.283 308.385C416.325 308.512 416.342 308.652 416.331 308.791C416.321 308.929 416.283 309.061 416.223 309.175L379.08 372.658C379.021 372.756 378.945 372.832 378.857 372.88C378.77 372.928 378.676 372.946 378.582 372.932ZM71.527 371.465H378.302L414.594 309.465L111.78 312.883L71.527 371.465Z" fill="#231F20"/>
<path d="M288.611 360.535L312.219 318.348H202.455L169.565 362.566L288.611 360.535Z" fill="white"/>
<path d="M169.565 363.372C169.446 363.375 169.33 363.33 169.23 363.244C169.13 363.158 169.053 363.034 169.006 362.889C168.959 362.741 168.946 362.579 168.968 362.421C168.989 362.264 169.045 362.118 169.128 362.002L202.03 317.783C202.084 317.706 202.15 317.645 202.224 317.603C202.297 317.561 202.376 317.54 202.455 317.542H312.255C312.368 317.542 312.478 317.583 312.574 317.662C312.67 317.741 312.748 317.853 312.798 317.987C312.849 318.121 312.87 318.271 312.86 318.42C312.85 318.569 312.809 318.712 312.741 318.831L289.097 361.003C289.042 361.103 288.971 361.185 288.889 361.244C288.807 361.302 288.716 361.336 288.623 361.341L169.553 363.372H169.565ZM202.711 319.154L171.036 361.744L288.307 359.729L311.04 319.154H202.711Z" fill="#231F20"/>
<path d="M302.754 325.005L286.375 353.861H180.598L205.335 326.214L302.754 325.005Z" fill="white"/>
<path d="M286.375 354.667H180.598C180.471 354.67 180.347 354.62 180.243 354.524C180.139 354.428 180.06 354.292 180.017 354.134C179.974 353.976 179.97 353.804 180.004 353.643C180.039 353.481 180.11 353.338 180.209 353.233L204.934 325.586C205.046 325.473 205.182 325.411 205.323 325.408L302.742 324.199C302.855 324.194 302.967 324.232 303.064 324.309C303.161 324.386 303.239 324.5 303.288 324.635C303.347 324.763 303.379 324.911 303.379 325.062C303.379 325.213 303.347 325.36 303.288 325.489L286.91 354.345C286.848 354.453 286.767 354.539 286.673 354.595C286.58 354.652 286.478 354.676 286.375 354.667ZM182.262 353.055H286.072L301.527 325.828L205.542 327.004L182.262 353.055Z" fill="#D1D3D4"/>
<path d="M378.57 372.206H70.2634V385.151H378.57V372.206Z" fill="white"/>
<path d="M378.582 385.893H70.2634C70.1173 385.889 69.9783 385.809 69.8761 385.67C69.7739 385.531 69.7166 385.345 69.7167 385.151V372.255C69.7166 372.061 69.7739 371.875 69.8761 371.736C69.9783 371.598 70.1173 371.518 70.2634 371.513H378.582C378.728 371.518 378.867 371.598 378.969 371.736C379.071 371.875 379.129 372.061 379.129 372.255V385.151C379.129 385.345 379.071 385.531 378.969 385.67C378.867 385.809 378.728 385.889 378.582 385.893ZM70.8223 384.41H378.023V372.932H70.8223V384.41Z" fill="#231F20"/>
<path d="M259.014 346.72C263.23 348.122 268.734 342.561 270.957 338.466C271.266 337.788 271.707 337.231 272.233 336.854C272.592 336.693 272.972 336.627 273.351 336.661C275.748 336.61 278.136 336.259 280.483 335.613C282.767 334.968 285.343 333.711 286.12 330.777C286.898 327.843 285.659 324.635 283.885 322.716C279.851 318.203 274.031 318.444 268.843 317.187C266.729 316.414 264.53 316.13 262.343 316.349C260.307 316.938 258.524 318.557 257.373 320.862C256.106 322.774 254.661 324.464 253.072 325.892C250.764 328.299 248.488 330.739 246.244 333.211C249.889 337.289 253.534 342.883 257.641 346.107C258.075 346.393 258.537 346.599 259.014 346.72Z" fill="white"/>
<path d="M260.423 347.784C259.894 347.787 259.368 347.701 258.856 347.526C258.322 347.35 257.811 347.073 257.337 346.704C254.533 344.27 251.934 341.443 249.585 338.273C248.297 336.661 247.155 335.145 245.855 333.775C245.786 333.699 245.731 333.605 245.693 333.497C245.655 333.39 245.635 333.273 245.635 333.154C245.635 333.036 245.655 332.919 245.693 332.812C245.731 332.704 245.786 332.609 245.855 332.534C248.127 330.035 250.424 327.569 252.696 325.215L253.583 324.312C254.809 323.18 255.92 321.842 256.887 320.331C258.129 317.852 260.052 316.116 262.246 315.494C264.102 315.222 265.98 315.408 267.786 316.042L269.001 316.333C270.216 316.623 271.516 316.848 272.767 317.058C276.874 317.735 281.115 318.444 284.322 322.039C286.218 324.135 287.7 327.746 286.752 331.067C285.987 333.694 284.006 335.419 280.677 336.354C278.279 337.019 275.837 337.376 273.387 337.418C273.084 337.389 272.779 337.433 272.488 337.547C272.106 337.85 271.788 338.277 271.565 338.789L271.467 338.966C269.329 342.803 264.639 347.784 260.423 347.784ZM259.208 345.962C262.999 347.236 268.296 342.061 270.52 338.031L270.605 337.87C270.949 337.103 271.45 336.482 272.051 336.08C272.475 335.881 272.925 335.794 273.375 335.822C275.739 335.778 278.095 335.433 280.41 334.791C283.302 333.985 285.003 332.582 285.598 330.503C286.351 327.939 285.1 325.022 283.545 323.281C280.604 320.056 276.546 319.331 272.61 318.67C271.395 318.461 270.034 318.235 268.782 317.929L267.567 317.638C265.896 317.056 264.157 316.892 262.44 317.155C260.548 317.701 258.894 319.212 257.835 321.362C256.805 322.993 255.616 324.434 254.299 325.65L253.437 326.537C251.359 328.681 249.257 330.938 247.18 333.211C248.261 334.452 249.342 335.822 250.399 337.144C252.688 340.231 255.217 342.987 257.944 345.366C258.324 345.657 258.733 345.875 259.159 346.011L259.208 345.962Z" fill="#231F20"/>
<path d="M91.0521 393.695C91.0521 393.695 86.1192 255.284 112.752 236.552C121.038 230.716 187.888 226.734 203.67 244.354C219.453 261.974 220.765 333.598 220.765 333.598L250.12 324.377L261.869 352.62C261.869 352.62 218.627 378.993 210.353 384.104C196.21 392.825 91.0521 393.695 91.0521 393.695Z" fill="#6F87FC"/>
<path d="M180.598 333.936C180.518 333.926 180.44 333.895 180.369 333.845C180.298 333.795 180.236 333.727 180.185 333.644C180.134 333.562 180.096 333.467 180.073 333.365C180.05 333.263 180.042 333.156 180.051 333.05L185.458 254.413C185.472 254.2 185.55 254.002 185.674 253.865C185.798 253.727 185.959 253.661 186.12 253.68C186.281 253.699 186.43 253.803 186.533 253.967C186.637 254.132 186.687 254.345 186.673 254.558L181.205 333.275C181.179 333.463 181.104 333.633 180.993 333.754C180.881 333.875 180.741 333.939 180.598 333.936Z" fill="#231F20"/>
<path d="M163.673 259.717H103.02C98.597 259.716 94.2251 260.97 90.197 263.393C86.1689 265.816 82.5776 269.353 79.6635 273.767C76.7494 278.182 74.5799 283.371 73.3003 288.989C72.0207 294.606 71.6605 300.521 72.2439 306.338L82.0368 404.045H205.335L194.4 295.473C193.409 285.587 189.748 276.515 184.097 269.939C178.446 263.363 171.189 259.731 163.673 259.717Z" fill="#DB3C2B"/>
<path d="M227.278 357.891C231.19 357.891 231.19 349.831 227.278 349.831C223.366 349.831 223.366 357.891 227.278 357.891Z" fill="#6F87FC"/>
<path d="M228.153 357.891C232.065 357.891 232.077 349.831 228.153 349.831C224.228 349.831 224.24 357.891 228.153 357.891Z" fill="#6F87FC"/>
<path d="M378.582 385.151L415.737 320.153V308.724L378.582 372.207V385.151Z" fill="white"/>
<path d="M378.582 385.893H378.4C378.289 385.847 378.192 385.755 378.124 385.63C378.056 385.505 378.02 385.354 378.023 385.2V372.303C378.021 372.138 378.064 371.978 378.144 371.852L415.299 308.369C415.366 308.245 415.461 308.153 415.571 308.107C415.68 308.06 415.798 308.062 415.907 308.111C416.018 308.162 416.114 308.258 416.181 308.385C416.249 308.512 416.285 308.665 416.283 308.82V320.25C416.284 320.412 416.246 320.57 416.174 320.701L379.08 385.603C379.022 385.702 378.946 385.781 378.859 385.832C378.772 385.882 378.677 385.903 378.582 385.893ZM379.129 372.448V382.959L415.178 319.911V310.868L379.129 372.448Z" fill="#231F20"/>
<path d="M374.475 404.77C374.329 404.77 374.189 404.694 374.084 404.559C373.98 404.423 373.919 404.239 373.916 404.045V385.151C373.919 384.956 373.979 384.77 374.083 384.632C374.187 384.493 374.328 384.414 374.475 384.41C374.621 384.414 374.76 384.494 374.862 384.633C374.965 384.771 375.022 384.957 375.022 385.151V404.045C375.022 404.237 374.964 404.422 374.862 404.558C374.759 404.694 374.62 404.77 374.475 404.77Z" fill="#231F20"/>
<path d="M219.733 104.121H414.74V242.549C414.74 244.066 414.286 245.522 413.477 246.595C412.668 247.669 411.571 248.271 410.427 248.271H224.046C222.902 248.271 221.805 247.669 220.996 246.595C220.187 245.522 219.733 244.066 219.733 242.549V104.121Z" fill="white"/>
<path d="M410.415 249.013H224.046C222.757 249.013 221.521 248.334 220.609 247.124C219.698 245.915 219.186 244.275 219.186 242.565V104.121C219.186 103.924 219.245 103.736 219.35 103.597C219.454 103.458 219.597 103.38 219.745 103.38H414.752C414.9 103.384 415.04 103.463 415.144 103.601C415.248 103.74 415.308 103.926 415.311 104.121V242.549C415.313 243.401 415.187 244.245 414.941 245.032C414.696 245.82 414.335 246.535 413.879 247.136C413.424 247.737 412.883 248.212 412.289 248.535C411.694 248.857 411.057 249.019 410.415 249.013ZM220.279 104.863V242.549C220.283 243.871 220.681 245.138 221.387 246.072C222.093 247.006 223.049 247.53 224.046 247.53H410.415C411.412 247.53 412.368 247.006 413.074 246.072C413.78 245.138 414.178 243.871 414.181 242.549V104.863H220.279Z" fill="#231F20"/>
<path d="M224.046 81.9553H410.415C411.559 81.9553 412.656 82.5583 413.465 83.6315C414.274 84.7047 414.728 86.1604 414.728 87.6781V104.508H219.733V87.6943C219.731 86.9414 219.842 86.1955 220.058 85.4993C220.274 84.8031 220.591 84.1703 220.992 83.6372C221.392 83.1041 221.868 82.6811 222.393 82.3925C222.917 82.1039 223.479 81.9553 224.046 81.9553Z" fill="white"/>
<path d="M414.74 105.233H219.733C219.66 105.236 219.587 105.218 219.52 105.183C219.452 105.147 219.39 105.094 219.338 105.027C219.286 104.959 219.245 104.879 219.217 104.789C219.188 104.7 219.174 104.605 219.174 104.508V87.6943C219.174 85.9841 219.686 84.344 220.597 83.1347C221.509 81.9254 222.745 81.246 224.034 81.246H410.415C411.704 81.246 412.94 81.9254 413.851 83.1347C414.763 84.344 415.275 85.9841 415.275 87.6943V104.508C415.272 104.696 415.215 104.876 415.116 105.011C415.016 105.146 414.882 105.225 414.74 105.233ZM220.34 103.766H414.181V87.6459C414.181 86.3205 413.785 85.0494 413.078 84.1122C412.372 83.175 411.414 82.6485 410.415 82.6485H224.046C223.047 82.6485 222.089 83.175 221.383 84.1122C220.676 85.0494 220.279 86.3205 220.279 87.6459L220.34 103.766Z" fill="#231F20"/>
<path d="M321.853 122.241H229.088V202.86H321.853V122.241Z" fill="white"/>
<path d="M321.841 203.682H229.088C228.927 203.682 228.773 203.597 228.659 203.446C228.545 203.295 228.481 203.09 228.481 202.876V122.273C228.481 122.059 228.545 121.854 228.659 121.703C228.773 121.552 228.927 121.467 229.088 121.467H321.841C322.002 121.467 322.157 121.552 322.271 121.703C322.385 121.854 322.449 122.059 322.449 122.273V202.876C322.449 203.09 322.385 203.295 322.271 203.446C322.157 203.597 322.002 203.682 321.841 203.682ZM229.696 202.07H321.234V123.079H229.696V202.07Z" fill="#D1D3D4"/>
<path d="M240.108 156.175C241.967 156.175 243.474 154.175 243.474 151.709C243.474 149.243 241.967 147.244 240.108 147.244C238.25 147.244 236.743 149.243 236.743 151.709C236.743 154.175 238.25 156.175 240.108 156.175Z" fill="white"/>
<path d="M240.108 156.964C239.322 156.964 238.553 156.655 237.9 156.075C237.246 155.495 236.737 154.671 236.437 153.707C236.136 152.742 236.058 151.682 236.212 150.659C236.367 149.636 236.746 148.696 237.303 147.96C237.86 147.223 238.569 146.722 239.341 146.521C240.112 146.319 240.911 146.426 241.637 146.827C242.363 147.229 242.983 147.907 243.418 148.776C243.853 149.645 244.084 150.666 244.081 151.709C244.078 153.104 243.658 154.441 242.913 155.426C242.169 156.411 241.16 156.964 240.108 156.964ZM240.108 148.05C239.563 148.05 239.03 148.264 238.576 148.666C238.122 149.069 237.769 149.64 237.56 150.309C237.351 150.977 237.297 151.713 237.403 152.423C237.51 153.133 237.772 153.785 238.158 154.297C238.544 154.808 239.035 155.157 239.57 155.298C240.105 155.439 240.66 155.367 241.164 155.09C241.668 154.813 242.098 154.344 242.402 153.742C242.705 153.14 242.866 152.433 242.866 151.709C242.866 150.739 242.576 149.808 242.059 149.122C241.541 148.435 240.84 148.05 240.108 148.05Z" fill="#D1D3D4"/>
<path d="M311.04 152.515H250.533C250.373 152.511 250.22 152.425 250.107 152.275C249.994 152.124 249.929 151.922 249.925 151.709C249.925 151.495 249.989 151.29 250.103 151.139C250.217 150.988 250.372 150.903 250.533 150.903H311.04C311.201 150.903 311.356 150.988 311.47 151.139C311.583 151.29 311.648 151.495 311.648 151.709C311.648 151.923 311.583 152.128 311.47 152.279C311.356 152.43 311.201 152.515 311.04 152.515Z" fill="#D1D3D4"/>
<path d="M240.108 171.973C241.967 171.973 243.474 169.973 243.474 167.507C243.474 165.041 241.967 163.042 240.108 163.042C238.25 163.042 236.743 165.041 236.743 167.507C236.743 169.973 238.25 171.973 240.108 171.973Z" fill="white"/>
<path d="M240.108 172.763C239.322 172.763 238.553 172.453 237.9 171.873C237.246 171.293 236.737 170.469 236.437 169.505C236.136 168.541 236.058 167.48 236.212 166.457C236.367 165.434 236.746 164.495 237.303 163.758C237.86 163.021 238.569 162.521 239.341 162.319C240.112 162.117 240.911 162.224 241.637 162.626C242.363 163.027 242.983 163.705 243.418 164.574C243.853 165.443 244.084 166.464 244.081 167.507C244.078 168.903 243.658 170.239 242.913 171.224C242.169 172.209 241.16 172.763 240.108 172.763ZM240.108 163.848C239.563 163.848 239.03 164.063 238.576 164.465C238.122 164.867 237.769 165.438 237.56 166.107C237.351 166.776 237.297 167.511 237.403 168.221C237.51 168.931 237.772 169.583 238.158 170.095C238.544 170.607 239.035 170.955 239.57 171.096C240.105 171.238 240.66 171.165 241.164 170.888C241.668 170.611 242.098 170.142 242.402 169.54C242.705 168.939 242.866 168.231 242.866 167.507C242.866 166.537 242.576 165.606 242.059 164.92C241.541 164.233 240.84 163.848 240.108 163.848Z" fill="#D1D3D4"/>
<path d="M296.594 168.313H250.569C250.408 168.313 250.254 168.228 250.14 168.077C250.026 167.926 249.962 167.721 249.962 167.507C249.962 167.294 250.026 167.089 250.14 166.937C250.254 166.786 250.408 166.701 250.569 166.701H296.594C296.755 166.701 296.909 166.786 297.023 166.937C297.137 167.089 297.201 167.294 297.201 167.507C297.201 167.721 297.137 167.926 297.023 168.077C296.909 168.228 296.755 168.313 296.594 168.313Z" fill="#D1D3D4"/>
<path d="M240.108 187.771C241.967 187.771 243.474 185.772 243.474 183.306C243.474 180.839 241.967 178.84 240.108 178.84C238.25 178.84 236.743 180.839 236.743 183.306C236.743 185.772 238.25 187.771 240.108 187.771Z" fill="white"/>
<path d="M240.108 188.577C239.322 188.577 238.554 188.268 237.901 187.689C237.248 187.109 236.738 186.286 236.438 185.323C236.137 184.36 236.058 183.3 236.212 182.277C236.365 181.255 236.743 180.315 237.299 179.578C237.855 178.841 238.562 178.339 239.333 178.135C240.104 177.932 240.903 178.036 241.629 178.435C242.355 178.834 242.975 179.51 243.412 180.377C243.848 181.244 244.081 182.263 244.081 183.305C244.078 184.702 243.659 186.041 242.914 187.028C242.17 188.016 241.161 188.573 240.108 188.577ZM240.108 179.646C239.563 179.646 239.03 179.861 238.576 180.263C238.122 180.665 237.769 181.236 237.56 181.905C237.351 182.574 237.297 183.31 237.403 184.019C237.51 184.729 237.772 185.381 238.158 185.893C238.544 186.405 239.035 186.753 239.57 186.895C240.105 187.036 240.66 186.963 241.164 186.686C241.668 186.409 242.098 185.94 242.402 185.339C242.705 184.737 242.866 184.029 242.866 183.305C242.866 182.335 242.576 181.404 242.059 180.718C241.541 180.032 240.84 179.646 240.108 179.646Z" fill="#D1D3D4"/>
<path d="M304.576 184.112H250.569C250.408 184.112 250.254 184.027 250.14 183.875C250.026 183.724 249.962 183.519 249.962 183.305C249.962 183.092 250.026 182.887 250.14 182.736C250.254 182.584 250.408 182.499 250.569 182.499H304.576C304.737 182.499 304.892 182.584 305.006 182.736C305.12 182.887 305.184 183.092 305.184 183.305C305.184 183.519 305.12 183.724 305.006 183.875C304.892 184.027 304.737 184.112 304.576 184.112Z" fill="#D1D3D4"/>
<path d="M268.734 133.654H236.743V140.231H268.734V133.654Z" fill="#D1D3D4"/>
<path d="M297.347 198.636C296.132 196.621 294.723 194.042 293.471 192.059C292.936 182.387 291.296 176.922 290.361 176.229C289.024 175.245 287.493 176.793 286.084 177.567C285.832 177.73 285.547 177.787 285.27 177.728C285.059 177.623 284.868 177.458 284.711 177.244C281.455 173.424 278.563 166.218 276.425 165.428C274.991 164.896 273.059 168.749 276.06 173.133C277.737 175.584 281.102 180.114 281.163 180.404C281.224 180.694 279.693 186.755 279.474 189.141C279.073 193.51 288.793 207.551 290.798 210.856L297.347 198.636Z" fill="white"/>
<path d="M290.798 211.662C290.708 211.663 290.618 211.638 290.536 211.587C290.455 211.537 290.382 211.463 290.324 211.371C289.984 210.807 289.437 209.953 288.745 208.889C283.788 201.215 278.527 192.768 278.879 189.044C279.152 187.04 279.53 185.063 280.009 183.128C280.228 182.177 280.458 181.113 280.543 180.629C280.203 180.114 279.231 178.76 278.357 177.55C277.482 176.341 276.34 174.745 275.611 173.682C273.509 170.619 273.582 167.749 274.396 166.073C274.597 165.545 274.924 165.12 275.326 164.863C275.728 164.607 276.182 164.533 276.619 164.654C278.016 165.154 279.486 167.685 281.2 170.619C282.379 172.779 283.701 174.796 285.148 176.648C285.24 176.772 285.347 176.875 285.464 176.954C285.613 176.95 285.758 176.9 285.89 176.809C286.181 176.648 286.485 176.454 286.801 176.245C288.016 175.455 289.364 174.633 290.689 175.519C292.013 176.406 293.568 182.338 294.091 191.737C294.747 192.784 295.439 193.977 296.12 195.17C296.8 196.363 297.335 197.218 297.857 198.12C297.939 198.261 297.983 198.434 297.983 198.612C297.983 198.79 297.939 198.963 297.857 199.104L291.308 211.323C291.256 211.427 291.186 211.512 291.103 211.571C291.021 211.63 290.928 211.661 290.835 211.662H290.798ZM276.157 166.185C275.996 166.217 275.842 166.3 275.709 166.426C275.576 166.552 275.467 166.718 275.392 166.911C274.882 168.039 274.857 170.135 276.51 172.601C277.239 173.665 278.284 175.116 279.243 176.438C281.673 179.823 281.673 179.888 281.746 180.178C281.819 180.468 281.746 180.871 281.175 183.58C280.723 185.434 280.358 187.324 280.082 189.238C279.778 192.462 286.704 203.263 289.668 207.841L290.762 209.534L296.582 198.668C296.108 197.879 295.609 197.056 295.123 196.154C294.407 194.912 293.678 193.655 292.997 192.575C292.911 192.446 292.864 192.28 292.864 192.107C292.329 182.435 290.664 177.373 290.057 176.938C289.449 176.503 288.332 176.938 287.299 177.696C286.971 177.905 286.643 178.131 286.315 178.308C285.939 178.556 285.509 178.625 285.1 178.502C284.788 178.374 284.504 178.147 284.274 177.841C282.771 175.928 281.401 173.84 280.179 171.602C278.733 169.136 277.251 166.572 276.23 166.202L276.157 166.185Z" fill="#231F20"/>
<path d="M296.46 193.687C296.46 193.687 317.589 218.787 319.764 218.368C323.409 212.129 336.373 186.288 336.373 186.288C339.665 180.533 349.155 176.083 362.726 178.55C362.726 178.55 392.834 179.372 398.666 192.075C402.019 199.394 404.874 218.884 406.733 247.691H306.289C298.1 231.264 284.188 209.356 284.188 209.356L296.46 193.687Z" fill="#6F87FC"/>
<path d="M357.963 184.515L358.632 239.034L376.711 181.532L357.963 184.515Z" fill="#231F20"/>
<path d="M358.632 239.776H358.51C358.373 239.739 358.25 239.64 358.161 239.496C358.072 239.352 358.024 239.172 358.024 238.986L357.356 184.466C357.352 184.267 357.405 184.074 357.504 183.924C357.603 183.775 357.741 183.68 357.89 183.66L376.65 180.742C376.754 180.722 376.859 180.74 376.956 180.794C377.052 180.848 377.136 180.936 377.197 181.049C377.264 181.161 377.307 181.295 377.322 181.436C377.337 181.578 377.323 181.722 377.282 181.855L359.203 239.357C359.147 239.491 359.064 239.602 358.963 239.677C358.862 239.751 358.747 239.785 358.632 239.776ZM358.571 185.175L359.19 235.149L375.739 182.483L358.571 185.175Z" fill="#231F20"/>
<path d="M348.183 124.868L348.268 124.659C350.139 120.532 354.343 116.389 357.732 114.438C365.703 109.796 375.751 112.407 382.215 119.952C384.646 122.641 386.352 126.308 387.075 130.398C387.828 134.267 389.614 138.216 390.173 142.166C390.586 145.1 389.784 148.098 389.857 151.097C390.015 157.545 394.11 162.526 398.265 165.831C392.19 173.198 383.539 175.503 375.313 176.148C360.917 177.301 346.498 174.446 332.983 167.765C335.06 165.606 336.742 162.852 337.904 159.709C339.065 156.565 339.676 153.114 339.69 149.613C339.69 147.469 339.495 145.148 340.407 143.391C341.318 141.634 342.666 141.182 343.76 139.989C347.259 136.217 346.166 129.592 348.183 124.868Z" fill="white"/>
<path d="M369.202 177.196C356.78 177.194 344.458 174.257 332.813 168.523C332.711 168.47 332.621 168.383 332.553 168.27C332.485 168.157 332.44 168.022 332.424 167.878C332.411 167.736 332.425 167.592 332.465 167.459C332.506 167.327 332.571 167.21 332.655 167.12C334.657 165.036 336.279 162.379 337.4 159.348C338.521 156.317 339.113 152.99 339.131 149.613V148.695C338.946 146.702 339.239 144.682 339.969 142.923C340.571 141.911 341.329 141.081 342.193 140.489C342.614 140.151 343.02 139.78 343.408 139.377C345.291 137.313 345.704 134.299 346.141 131.091C346.364 128.789 346.868 126.551 347.636 124.465L348.158 124.868L347.66 124.417V124.24C349.616 119.919 354.039 115.68 357.38 113.697C365.338 109.054 375.678 111.375 382.506 119.355C385.042 122.143 386.831 125.942 387.609 130.188C387.986 131.96 388.457 133.695 389.019 135.379C389.749 137.511 390.315 139.737 390.708 142.021C390.888 143.822 390.856 145.649 390.61 147.437C390.465 148.636 390.396 149.85 390.404 151.064C390.55 157.513 394.899 162.349 398.52 165.138C398.603 165.199 398.674 165.288 398.725 165.395C398.775 165.502 398.805 165.624 398.812 165.75C398.822 165.875 398.81 166.002 398.776 166.12C398.743 166.238 398.688 166.343 398.617 166.427C393.405 172.747 385.993 176.1 375.289 176.954C373.345 177.115 371.268 177.196 369.202 177.196ZM334.234 167.523C347.394 173.776 361.373 176.42 375.326 175.294C385.325 174.488 392.336 171.489 397.305 165.895C393.587 162.768 389.456 157.835 389.298 151.064C389.291 149.764 389.364 148.464 389.517 147.179C389.74 145.584 389.776 143.953 389.626 142.343C389.241 140.173 388.7 138.057 388.01 136.024C387.424 134.273 386.932 132.468 386.54 130.623C385.829 126.687 384.17 123.167 381.814 120.596C375.326 113.02 365.521 110.811 357.975 115.212C354.792 117.082 350.613 121.08 348.79 125.11L348.729 125.255L348.183 124.901L348.705 125.32C348.003 127.244 347.543 129.308 347.344 131.429C346.895 134.766 346.409 138.232 344.185 140.667C343.751 141.124 343.292 141.539 342.812 141.908C342.1 142.399 341.468 143.073 340.953 143.891C340.379 145.381 340.163 147.069 340.334 148.727V149.678C340.308 153.047 339.753 156.372 338.703 159.44C337.652 162.507 336.13 165.25 334.234 167.491V167.523Z" fill="#231F20"/>
<path d="M353.784 150.42C353.495 149.116 353.002 147.907 352.338 146.873C352.004 146.36 351.556 145.999 351.059 145.843C350.562 145.687 350.04 145.743 349.568 146.002C349.223 146.25 348.931 146.609 348.719 147.046C348.507 147.482 348.381 147.983 348.353 148.501C348.307 149.525 348.436 150.55 348.729 151.5C349.156 153.324 349.911 154.984 350.928 156.336C351.434 157.005 352.038 157.529 352.703 157.876C353.367 158.222 354.078 158.384 354.792 158.351" fill="white"/>
<path d="M354.549 159.173C353.051 159.123 351.623 158.322 350.552 156.932C349.473 155.493 348.665 153.737 348.195 151.806C347.883 150.739 347.746 149.596 347.794 148.453C347.821 147.793 347.971 147.152 348.232 146.589C348.493 146.026 348.856 145.558 349.288 145.229C349.879 144.902 350.531 144.826 351.155 145.01C351.779 145.195 352.345 145.632 352.775 146.26C353.501 147.37 354.04 148.672 354.355 150.081C354.384 150.18 354.398 150.287 354.396 150.393C354.394 150.5 354.376 150.605 354.344 150.703C354.311 150.8 354.264 150.888 354.205 150.961C354.147 151.034 354.078 151.091 354.002 151.129C353.849 151.198 353.682 151.186 353.535 151.096C353.388 151.006 353.273 150.845 353.213 150.645C352.95 149.464 352.507 148.367 351.913 147.421C351.659 147.042 351.326 146.772 350.955 146.645C350.585 146.519 350.195 146.542 349.835 146.712C349.595 146.911 349.394 147.183 349.248 147.505C349.103 147.828 349.016 148.191 348.997 148.566C348.971 149.475 349.091 150.382 349.349 151.226C349.75 152.914 350.45 154.451 351.39 155.707C351.829 156.308 352.357 156.782 352.94 157.101C353.523 157.42 354.149 157.576 354.78 157.561C354.938 157.552 355.094 157.623 355.213 157.761C355.333 157.899 355.409 158.093 355.424 158.302C355.431 158.408 355.421 158.515 355.397 158.616C355.372 158.717 355.333 158.811 355.281 158.892C355.229 158.973 355.166 159.039 355.094 159.088C355.023 159.136 354.945 159.165 354.865 159.173H354.549Z" fill="#231F20"/>
<path d="M359.166 168.475L357.951 184.595C357.951 184.595 358.534 193.735 366.092 191.914C368.325 191.35 370.436 190.133 372.271 188.351C374.106 186.569 375.618 184.267 376.699 181.613L377.865 153.627C377.865 152.435 374.645 147.534 375.52 137.346C372.928 136.991 370.419 135.925 368.154 134.216C365.889 132.506 363.916 130.19 362.362 127.415C362.362 127.415 358.85 133.17 357.38 134.944C356.205 136.263 355.16 137.774 354.27 139.441C351.937 144.116 351.694 150.565 352.253 155.9C352.702 160.35 354.962 168.571 359.166 168.475Z" fill="white"/>
<path d="M364.221 192.881C362.711 192.945 361.23 192.332 360.017 191.14C358.528 189.494 357.575 187.15 357.356 184.595L358.51 169.232C354.464 168.555 352.156 160.93 351.633 156.013C351.208 152.08 350.928 144.632 353.747 138.99C354.661 137.266 355.74 135.705 356.955 134.347C358.376 132.622 361.815 126.964 361.815 126.916C361.879 126.82 361.958 126.744 362.046 126.691C362.133 126.638 362.229 126.61 362.325 126.609C362.42 126.62 362.512 126.659 362.594 126.723C362.676 126.787 362.746 126.875 362.799 126.98C364.313 129.661 366.227 131.9 368.422 133.556C370.617 135.212 373.046 136.249 375.556 136.604C375.718 136.633 375.866 136.742 375.97 136.91C376.068 137.081 376.116 137.293 376.103 137.507C375.586 142.4 376.227 147.385 377.938 151.774C378.212 152.367 378.386 153.033 378.448 153.724L377.306 181.645C377.323 181.746 377.323 181.851 377.306 181.951C376.19 184.726 374.618 187.131 372.706 188.99C370.794 190.848 368.592 192.112 366.262 192.688C365.588 192.84 364.904 192.905 364.221 192.881ZM358.571 184.595C358.65 185.723 358.92 186.813 359.361 187.783C359.801 188.754 360.401 189.58 361.116 190.199C361.831 190.819 362.642 191.217 363.489 191.363C364.335 191.509 365.196 191.4 366.007 191.043C368.119 190.504 370.117 189.358 371.86 187.688C373.604 186.017 375.052 183.861 376.103 181.371C376.2 179.05 377.221 153.821 377.233 153.627C377.121 153.231 376.991 152.843 376.844 152.467C375.132 148.042 374.431 143.05 374.827 138.103C369.913 137.229 365.436 133.895 362.313 128.786C361.28 130.398 358.935 134.17 357.769 135.589C356.643 136.831 355.639 138.255 354.78 139.828C352.192 145.035 352.459 152.032 352.86 155.739C353.261 159.447 355.29 167.62 359.118 167.62H359.203C359.285 167.617 359.367 167.639 359.443 167.684C359.519 167.728 359.586 167.795 359.64 167.878C359.701 167.959 359.747 168.059 359.775 168.168C359.802 168.277 359.81 168.393 359.798 168.507L358.583 184.627L358.571 184.595Z" fill="#231F20"/>
<path d="M364.221 140.892C364.221 140.892 359.786 148.13 360.576 149.581C361.365 151.032 364.063 150.468 364.063 150.468" fill="white"/>
<path d="M362.969 151.387C362.453 151.455 361.932 151.373 361.443 151.144C360.953 150.916 360.508 150.547 360.138 150.065C359.203 148.453 361.596 143.907 363.783 140.392C363.883 140.226 364.029 140.12 364.188 140.095C364.348 140.071 364.508 140.132 364.634 140.264C364.758 140.402 364.836 140.599 364.852 140.813C364.868 141.027 364.82 141.24 364.719 141.408C362.665 144.761 361.001 148.372 361.147 149.162C361.584 149.904 363.285 149.839 364.026 149.678C364.106 149.661 364.187 149.665 364.266 149.69C364.345 149.715 364.419 149.76 364.484 149.823C364.55 149.886 364.605 149.965 364.647 150.056C364.69 150.148 364.718 150.249 364.731 150.355C364.744 150.461 364.741 150.569 364.722 150.673C364.703 150.778 364.669 150.876 364.622 150.963C364.574 151.05 364.514 151.123 364.446 151.179C364.377 151.235 364.3 151.273 364.221 151.29C363.805 151.357 363.387 151.39 362.969 151.387Z" fill="#231F20"/>
<path d="M359.312 142.826C359.405 141.908 359.183 141.111 358.817 141.046C358.452 140.981 358.08 141.673 357.988 142.59C357.895 143.508 358.117 144.305 358.482 144.37C358.848 144.435 359.22 143.743 359.312 142.826Z" fill="#231F20"/>
<path d="M370.432 142.345C370.441 141.419 370.148 140.664 369.779 140.658C369.41 140.652 369.104 141.398 369.096 142.324C369.088 143.25 369.38 144.005 369.749 144.011C370.118 144.016 370.424 143.271 370.432 142.345Z" fill="#231F20"/>
<path d="M374.341 147.486C374.61 146.11 375.071 144.813 375.702 143.665C376.06 143.005 376.53 142.468 377.076 142.098C377.621 141.728 378.225 141.536 378.837 141.537C379.214 141.561 379.582 141.696 379.914 141.933C380.246 142.17 380.534 142.503 380.757 142.907C381.028 143.489 381.194 144.145 381.243 144.826C381.644 148.404 380.745 153.047 378.217 154.885C377.791 155.245 377.295 155.436 376.79 155.436C376.284 155.436 375.789 155.245 375.362 154.885" fill="white"/>
<path d="M376.65 156.271C376.064 156.288 375.491 156.044 375.022 155.578C374.953 155.516 374.895 155.437 374.85 155.344C374.806 155.251 374.776 155.147 374.763 155.038C374.75 154.93 374.754 154.819 374.774 154.712C374.795 154.605 374.831 154.505 374.882 154.418C374.933 154.331 374.996 154.259 375.069 154.206C375.141 154.152 375.221 154.119 375.304 154.109C375.387 154.098 375.47 154.11 375.549 154.144C375.628 154.177 375.701 154.232 375.763 154.305C376.101 154.553 376.484 154.673 376.87 154.65C377.256 154.628 377.63 154.463 377.95 154.176C380.234 152.564 381.048 148.275 380.684 144.938C380.644 144.37 380.511 143.82 380.295 143.326C380.126 143.025 379.908 142.778 379.658 142.603C379.408 142.427 379.132 142.327 378.849 142.311C378.332 142.314 377.823 142.481 377.364 142.797C376.906 143.114 376.511 143.572 376.213 144.132C375.649 145.208 375.238 146.409 374.998 147.679C374.95 147.882 374.845 148.052 374.704 148.154C374.564 148.257 374.399 148.283 374.244 148.227C374.166 148.198 374.094 148.148 374.03 148.08C373.967 148.013 373.915 147.929 373.876 147.835C373.838 147.74 373.814 147.636 373.806 147.529C373.799 147.422 373.807 147.314 373.831 147.212C374.123 145.741 374.621 144.357 375.301 143.133C375.719 142.373 376.268 141.756 376.902 141.336C377.536 140.915 378.237 140.702 378.946 140.715C379.424 140.73 379.892 140.892 380.313 141.189C380.735 141.485 381.099 141.908 381.376 142.424C381.693 143.104 381.893 143.869 381.96 144.664C382.385 148.566 381.376 153.547 378.618 155.562C378.019 156.02 377.341 156.265 376.65 156.271Z" fill="#231F20"/>
<path d="M336.324 243.258C336.167 243.254 336.018 243.169 335.907 243.022C335.796 242.875 335.732 242.676 335.729 242.468C335.729 241.275 340.309 208.84 341.221 202.344C341.251 202.13 341.345 201.941 341.48 201.819C341.616 201.696 341.782 201.65 341.944 201.691C342.105 201.732 342.247 201.855 342.339 202.035C342.432 202.215 342.466 202.436 342.436 202.65C340.273 218.013 337.017 241.34 336.968 242.484C336.965 242.591 336.946 242.697 336.912 242.794C336.877 242.891 336.829 242.979 336.769 243.051C336.709 243.123 336.639 243.178 336.562 243.214C336.486 243.25 336.405 243.264 336.324 243.258Z" fill="#231F20"/>
<path d="M385.058 245.805C384.897 245.805 384.742 245.72 384.628 245.569C384.514 245.418 384.45 245.213 384.45 244.999V200.925C384.45 200.712 384.514 200.507 384.628 200.355C384.742 200.204 384.897 200.119 385.058 200.119C385.219 200.119 385.373 200.204 385.487 200.355C385.601 200.507 385.665 200.712 385.665 200.925V244.999C385.665 245.213 385.601 245.418 385.487 245.569C385.373 245.72 385.219 245.805 385.058 245.805Z" fill="#231F20"/>
<path d="M368.509 152.547L358.632 153.789C358.632 153.789 358.631 163.139 362.811 162.526C366.991 161.913 368.145 158.319 368.509 152.547Z" fill="white"/>
<path d="M362.422 163.364C361.583 163.376 360.772 162.968 360.15 162.22C358.06 159.753 358.024 154.03 358.024 153.789C358.02 153.587 358.075 153.391 358.177 153.241C358.278 153.092 358.419 152.999 358.571 152.983L368.449 151.757C368.537 151.746 368.627 151.76 368.711 151.799C368.795 151.838 368.871 151.901 368.935 151.983C368.997 152.065 369.045 152.163 369.077 152.272C369.108 152.38 369.122 152.496 369.117 152.612C368.838 157.738 367.902 162.591 362.884 163.332L362.422 163.364ZM359.263 154.514C359.336 156.029 359.652 159.479 360.964 160.962C361.202 161.248 361.484 161.459 361.791 161.582C362.098 161.704 362.421 161.735 362.738 161.672C365.994 161.204 367.416 158.931 367.841 153.402L359.263 154.514Z" fill="#231F20"/>
<path d="M359.166 168.475C363.124 168.584 367.057 167.613 370.721 165.621C370.721 165.621 363.905 176.535 358.632 180.581L359.166 168.475Z" fill="#231F20"/>
<path d="M358.632 181.387C358.549 181.387 358.466 181.365 358.39 181.321C358.314 181.278 358.245 181.214 358.189 181.134C358.132 181.054 358.088 180.959 358.059 180.856C358.031 180.753 358.019 180.643 358.024 180.533L358.571 168.426C358.568 168.319 358.583 168.212 358.615 168.113C358.647 168.014 358.695 167.926 358.755 167.854C358.815 167.781 358.886 167.728 358.963 167.696C359.041 167.664 359.122 167.654 359.203 167.669C363.064 167.753 366.899 166.805 370.478 164.88C370.602 164.797 370.745 164.775 370.88 164.817C371.016 164.859 371.136 164.963 371.22 165.111C371.304 165.258 371.346 165.44 371.339 165.625C371.332 165.809 371.277 165.985 371.182 166.121C370.903 166.572 364.245 177.212 358.935 181.274C358.842 181.341 358.738 181.38 358.632 181.387ZM359.749 169.297L359.3 179.066C362.741 175.676 365.891 171.795 368.692 167.491C365.792 168.659 362.78 169.267 359.749 169.297Z" fill="#231F20"/>
<path d="M353.893 217.207C353.811 217.208 353.729 217.185 353.653 217.14C353.578 217.096 353.511 217.031 353.456 216.949L345.546 205.923C345.487 205.838 345.442 205.738 345.415 205.629C345.387 205.519 345.378 205.403 345.387 205.289C345.396 205.174 345.424 205.064 345.468 204.964C345.512 204.865 345.572 204.78 345.643 204.714L352.848 198.169L345.631 191.059C345.553 190.985 345.49 190.887 345.446 190.773C345.403 190.66 345.38 190.534 345.38 190.407C345.38 190.279 345.403 190.154 345.446 190.04C345.49 189.927 345.553 189.828 345.631 189.754L354.488 181.693C354.554 181.626 354.628 181.578 354.708 181.55C354.788 181.523 354.871 181.517 354.953 181.534C355.034 181.55 355.112 181.589 355.182 181.647C355.252 181.704 355.312 181.781 355.359 181.87C355.406 181.96 355.439 182.062 355.456 182.169C355.472 182.276 355.472 182.387 355.455 182.494C355.439 182.601 355.406 182.702 355.359 182.792C355.311 182.882 355.251 182.958 355.181 183.015L347.016 190.479L354.245 197.604C354.326 197.677 354.39 197.776 354.433 197.892C354.476 198.008 354.495 198.137 354.488 198.265C354.489 198.394 354.464 198.521 354.418 198.634C354.371 198.747 354.303 198.842 354.221 198.91L346.931 205.552L354.343 215.885C354.4 215.96 354.445 216.049 354.476 216.147C354.506 216.246 354.522 216.351 354.522 216.457C354.522 216.564 354.506 216.669 354.476 216.767C354.445 216.866 354.4 216.955 354.343 217.03C354.215 217.163 354.054 217.227 353.893 217.207Z" fill="#231F20"/>
<path d="M369.008 217.949C368.902 217.946 368.798 217.908 368.707 217.837C368.615 217.767 368.539 217.666 368.485 217.546C368.444 217.455 368.417 217.354 368.406 217.25C368.395 217.145 368.399 217.038 368.42 216.936C368.44 216.834 368.476 216.738 368.525 216.655C368.573 216.571 368.634 216.501 368.704 216.449L380.161 207.374L373.892 197.862C373.828 197.77 373.781 197.66 373.756 197.539C373.731 197.419 373.727 197.292 373.746 197.169C373.765 197.044 373.806 196.926 373.865 196.826C373.924 196.725 374 196.644 374.086 196.589L381.923 191.753L377.391 185.304C377.334 185.229 377.289 185.14 377.258 185.042C377.227 184.944 377.211 184.839 377.211 184.732C377.211 184.626 377.227 184.52 377.258 184.422C377.289 184.324 377.334 184.235 377.391 184.16C377.507 184.011 377.661 183.928 377.822 183.928C377.983 183.928 378.138 184.011 378.254 184.16L383.345 191.495C383.41 191.589 383.457 191.703 383.482 191.826C383.507 191.949 383.51 192.079 383.49 192.204C383.474 192.328 383.434 192.445 383.374 192.543C383.315 192.642 383.238 192.719 383.15 192.768L375.301 197.604L381.522 206.971C381.582 207.06 381.626 207.165 381.651 207.279C381.676 207.394 381.682 207.514 381.668 207.631C381.654 207.748 381.621 207.86 381.571 207.958C381.52 208.055 381.454 208.137 381.376 208.196L369.36 217.836C369.252 217.913 369.13 217.952 369.008 217.949Z" fill="#231F20"/>
<path d="M288.332 192.172C288.185 192.171 288.043 192.103 287.931 191.978C286.909 190.844 286.253 189.235 286.096 187.481C285.636 188.151 285.052 188.651 284.403 188.934C283.754 189.216 283.06 189.271 282.39 189.093C282.094 189.04 281.815 188.877 281.585 188.623C281.355 188.37 281.183 188.035 281.09 187.658C280.386 184.708 284.735 178.26 285.634 177.002C285.691 176.927 285.758 176.867 285.832 176.826C285.906 176.785 285.985 176.764 286.066 176.764C286.146 176.764 286.225 176.785 286.299 176.826C286.373 176.867 286.441 176.927 286.497 177.002C286.554 177.077 286.599 177.166 286.63 177.265C286.661 177.363 286.677 177.468 286.677 177.575C286.677 177.681 286.661 177.786 286.63 177.885C286.599 177.983 286.554 178.072 286.497 178.147C284.188 181.371 281.904 185.853 282.232 187.223C282.232 187.303 282.293 187.481 282.621 187.561C284.371 188.077 285.646 185.949 286.339 184.337C286.5 183.689 286.725 183.071 287.007 182.499C287.091 182.339 287.216 182.224 287.359 182.176C287.503 182.129 287.654 182.152 287.785 182.242C287.917 182.329 288.02 182.476 288.076 182.657C288.132 182.838 288.136 183.04 288.089 183.225C287.916 183.826 287.709 184.408 287.469 184.966C287.198 185.984 287.169 187.089 287.386 188.129C287.603 189.17 288.057 190.097 288.684 190.785C288.796 190.939 288.859 191.144 288.859 191.358C288.859 191.571 288.796 191.777 288.684 191.93C288.59 192.06 288.466 192.145 288.332 192.172Z" fill="#231F20"/>
<path d="M237.132 96.4155C238.453 96.4155 239.525 94.9937 239.525 93.2398C239.525 91.4859 238.453 90.064 237.132 90.064C235.81 90.064 234.738 91.4859 234.738 93.2398C234.738 94.9937 235.81 96.4155 237.132 96.4155Z" fill="#D1D3D4"/>
<path d="M248.419 96.4155C249.741 96.4155 250.812 94.9937 250.812 93.2398C250.812 91.4859 249.741 90.064 248.419 90.064C247.097 90.064 246.025 91.4859 246.025 93.2398C246.025 94.9937 247.097 96.4155 248.419 96.4155Z" fill="#D1D3D4"/>
<path d="M259.706 96.4155C261.028 96.4155 262.1 94.9937 262.1 93.2398C262.1 91.4859 261.028 90.064 259.706 90.064C258.384 90.064 257.313 91.4859 257.313 93.2398C257.313 94.9937 258.384 96.4155 259.706 96.4155Z" fill="#D1D3D4"/>
</svg>
