<svg width="486" height="486" viewBox="0 0 486 486" fill="none" xmlns="http://www.w3.org/2000/svg">
<path opacity="0.18" d="M463.227 379.507C459.35 404.915 450.804 428.91 436.202 445.743C412.444 473.153 377.77 476.313 346.567 470.66C315.364 465.006 284.819 451.937 253.293 451.984C211.725 451.984 175.244 486.683 135.903 485.984C99.6009 485.349 63.8619 458.035 43.2155 418.969C41.9788 416.64 40.7819 414.263 39.6249 411.839C39.2778 411.124 38.9546 410.394 38.6195 409.679C37.7338 407.726 36.896 405.789 36.0941 403.82C35.723 402.93 35.364 402.009 35.0169 401.104C34.6698 400.199 34.2509 399.135 33.8798 398.134C33.8798 398.039 33.808 397.976 33.7841 397.896C33.4011 396.896 33.054 395.895 32.6949 394.863C29.3903 385.432 26.7421 375.619 24.7835 365.548C17.5691 328.611 18.9925 289.637 28.8649 253.799C29.7506 250.623 30.7081 247.446 31.7494 244.27C36.8361 228.787 43.7781 214.288 53.3652 203.252C72.7069 181.019 99.7326 175.588 122.988 161.264C134.186 154.187 144.716 145.381 154.359 135.03C188.23 99.4105 214.957 49.3876 253.138 21.5019C269.476 9.72836 287.494 2.63578 306.028 0.682845C337.132 -2.7153 368.263 6.81415 395.101 27.9493C456.968 77.067 444.915 163.186 455.914 246.255C460.511 280.938 466.495 315.684 465.669 350.859C465.463 360.482 464.647 370.065 463.227 379.507Z" fill="#6F87FC"/>
<path d="M412.982 209.493H133.305V390.258H412.982V209.493Z" fill="#6F87FC"/>
<path d="M396.621 232.058H149.619V367.088H396.621V232.058Z" fill="url(#paint0_linear_2_328)"/>
<path d="M266.746 349.827C288.249 349.827 305.681 326.698 305.681 298.168C305.681 269.638 288.249 246.51 266.746 246.51C245.243 246.51 227.812 269.638 227.812 298.168C227.812 326.698 245.243 349.827 266.746 349.827Z" fill="#6F87FC"/>
<path d="M262.593 337.837L262.88 328.309C259.059 328.083 255.363 326.431 252.216 323.545L254.083 317.367C257.015 320.119 260.478 321.7 264.065 321.925C269.116 322.179 272.587 318.543 272.755 313.207C272.922 307.871 270.253 304.727 265.13 301.614C258.033 297.485 253.724 292.944 253.964 284.813C254.191 277.047 258.524 271.378 265.071 270.314L265.346 260.786L269.727 261.008L269.451 270.076C272.666 270.299 275.786 271.593 278.524 273.84L276.609 280.033C273.986 277.76 270.942 276.491 267.812 276.365C262.378 276.079 260.211 280.287 260.104 284.019C259.96 288.878 262.497 291.451 268.482 295.135C275.663 299.439 279.158 304.504 278.907 312.826C278.691 320.226 274.598 326.959 267.297 328.166L266.998 337.901L262.593 337.837Z" fill="url(#paint1_linear_2_328)"/>
<path d="M189.679 313.096C195.178 313.096 199.637 307.18 199.637 299.883C199.637 292.586 195.178 286.671 189.679 286.671C184.179 286.671 179.72 292.586 179.72 299.883C179.72 307.18 184.179 313.096 189.679 313.096Z" fill="#6F87FC"/>
<path d="M343.802 313.096C349.302 313.096 353.76 307.18 353.76 299.883C353.76 292.586 349.302 286.671 343.802 286.671C338.302 286.671 333.844 292.586 333.844 299.883C333.844 307.18 338.302 313.096 343.802 313.096Z" fill="#6F87FC"/>
<path d="M396.62 253.719C405.637 253.719 412.946 244.021 412.946 232.059C412.946 220.096 405.637 210.398 396.62 210.398C387.604 210.398 380.295 220.096 380.295 232.059C380.295 244.021 387.604 253.719 396.62 253.719Z" fill="#6F87FC"/>
<path d="M396.644 388.702C405.661 388.702 412.97 379.004 412.97 367.041C412.97 355.078 405.661 345.38 396.644 345.38C387.628 345.38 380.319 355.078 380.319 367.041C380.319 379.004 387.628 388.702 396.644 388.702Z" fill="#6F87FC"/>
<path d="M149.607 253.719C158.623 253.719 165.932 244.021 165.932 232.059C165.932 220.096 158.623 210.398 149.607 210.398C140.59 210.398 133.281 220.096 133.281 232.059C133.281 244.021 140.59 253.719 149.607 253.719Z" fill="#6F87FC"/>
<path d="M149.631 388.702C158.647 388.702 165.956 379.004 165.956 367.041C165.956 355.078 158.647 345.38 149.631 345.38C140.614 345.38 133.305 355.078 133.305 367.041C133.305 379.004 140.614 388.702 149.631 388.702Z" fill="#6F87FC"/>
<path d="M281.229 209.493C281.229 209.493 253.341 325.006 170.66 286.544L156.058 276.698L133.317 303.615V209.493H281.229Z" fill="url(#paint2_linear_2_328)"/>
<path d="M121.815 180.162C121.815 159.746 126.378 139.79 134.926 122.815C143.475 105.84 155.625 92.6099 169.841 84.7973C184.057 76.9847 199.699 74.9405 214.79 78.9234C229.882 82.9062 243.744 92.7371 254.624 107.173C265.504 121.609 272.914 140.001 275.916 160.024C278.918 180.047 277.377 200.802 271.489 219.663C265.6 238.524 255.629 254.645 242.835 265.988C230.041 277.33 215 283.384 199.613 283.384C178.99 283.337 159.222 272.447 144.64 253.1C130.058 233.752 121.85 207.524 121.815 180.162ZM131.043 180.162C131.043 198.165 135.067 215.764 142.605 230.733C150.144 245.702 160.859 257.369 173.395 264.259C185.931 271.148 199.725 272.951 213.033 269.438C226.341 265.926 238.566 257.257 248.16 244.527C257.755 231.797 264.289 215.577 266.936 197.92C269.583 180.263 268.225 161.961 263.032 145.328C257.84 128.695 249.046 114.479 237.764 104.477C226.482 94.4746 213.218 89.136 199.649 89.136C181.459 89.1613 164.02 98.7596 151.158 115.825C138.296 132.89 131.062 156.028 131.043 180.162Z" fill="#BD1B0F"/>
<path d="M94.2389 333.136C95.2887 333.13 96.327 332.846 97.2929 332.301C98.2589 331.756 99.1331 330.96 99.8643 329.96L150.864 261.278C151.592 260.297 152.168 259.135 152.558 257.859C152.948 256.582 153.145 255.216 153.137 253.839C153.129 252.462 152.917 251.1 152.513 249.831C152.108 248.563 151.519 247.413 150.78 246.446C150.04 245.479 149.165 244.716 148.203 244.198C147.241 243.68 146.211 243.419 145.173 243.43C144.135 243.44 143.109 243.722 142.153 244.258C141.196 244.795 140.329 245.576 139.601 246.557L88.6015 315.271C87.5064 316.745 86.7642 318.616 86.4683 320.649C86.1724 322.681 86.336 324.784 86.9385 326.693C87.541 328.603 88.5555 330.233 89.8544 331.379C91.1534 332.526 92.6788 333.137 94.2389 333.136Z" fill="#6F87FC"/>
<path d="M69.7983 354.956C71.5587 357.251 73.933 358.526 76.401 358.502C78.8689 358.479 81.2291 357.158 82.9641 354.829L143.012 273.982C143.345 273.535 143.649 273.051 143.922 272.537C144.076 272.267 144.22 271.986 144.352 271.696C144.781 270.738 144.974 269.628 144.905 268.518C144.837 267.408 144.51 266.354 143.969 265.502C142.808 263.663 141.539 261.948 140.175 260.373C138.604 258.522 136.9 256.879 135.089 255.466C134.348 254.882 133.488 254.62 132.629 254.717C131.771 254.814 130.957 255.264 130.301 256.006C130.118 256.195 129.946 256.402 129.786 256.625L69.7504 337.456C68.8843 338.607 68.1982 339.973 67.7316 341.477C67.265 342.981 67.0271 344.593 67.0316 346.219C67.036 347.845 67.2827 349.455 67.7576 350.954C68.2324 352.453 68.9259 353.813 69.7983 354.956Z" fill="#BD1B0F"/>
<path d="M88.9007 422.717C89.705 422.736 90.5063 422.853 91.2945 423.066C91.686 423.181 92.0557 423.401 92.3809 423.713C92.7061 424.024 92.9799 424.42 93.1856 424.877C93.4525 425.753 93.479 426.727 93.2602 427.626C93.0414 428.526 92.5914 429.295 91.9887 429.8C90.7547 430.704 89.3491 431.112 87.9432 430.975C87.0553 431.037 86.1681 430.837 85.346 430.387C84.3406 429.72 83.4908 428.323 82.3777 428.498C81.8925 428.642 81.4278 428.889 81.0013 429.228C80.1827 429.747 79.2462 429.836 78.3803 429.477C77.5143 429.117 76.783 428.336 76.3334 427.291C76.1088 426.614 75.9829 425.886 75.9624 425.147C75.8187 422.781 76.4052 420.049 77.9731 419.049C79.8522 417.858 81.0013 419.255 82.4974 420.383C84.4835 421.753 86.6659 422.548 88.9007 422.717Z" fill="#6F87FC"/>
<path d="M89.2239 409.854L83.2395 422.384C83.2395 422.384 80.5944 423.702 79.0145 422.384L77.4346 421.129L81.4681 402.581L89.2239 409.854Z" fill="#FCBDBA"/>
<path d="M107.596 318.288C107.596 318.288 105.142 354.194 104.005 362.753C101.492 381.095 90.2053 410.013 90.2053 410.013C90.2053 410.013 83.1078 412.189 81.3962 407.202L80.4268 404.36C80.4268 404.36 92.6829 366.009 85.9444 333.867C85.7644 332.922 85.6325 331.961 85.5494 330.993C85.1812 327.282 85.0691 323.535 85.2143 319.797L107.596 318.288Z" fill="#FFC9B0"/>
<path d="M110.313 427.386C111.104 427.211 111.905 427.136 112.707 427.164C113.114 427.187 113.513 427.318 113.881 427.55C114.249 427.782 114.578 428.109 114.849 428.513C115.23 429.339 115.38 430.317 115.273 431.275C115.166 432.233 114.808 433.11 114.263 433.754C113.156 434.957 111.808 435.703 110.385 435.898C109.503 436.167 108.586 436.167 107.704 435.898C106.603 435.469 105.561 434.31 104.484 434.707C104.011 434.969 103.574 435.334 103.192 435.787C102.448 436.519 101.52 436.843 100.601 436.689C99.6819 436.535 98.8433 435.916 98.2603 434.961C97.9462 434.331 97.7192 433.632 97.5901 432.896C97.1353 430.562 97.3387 427.688 98.787 426.306C100.499 424.718 101.839 425.798 103.491 426.56C105.694 427.48 108.021 427.762 110.313 427.386Z" fill="#6F87FC"/>
<path d="M108.877 414.364L104.58 428.339C104.58 428.339 102.114 430.308 100.355 429.435L98.6074 428.561L100.116 409.028L108.877 414.364Z" fill="#FCBDBA"/>
<path d="M140.81 272.172C141.097 271.664 141.468 271.108 141.935 271.188C142.21 271.188 142.473 271.521 142.749 271.426C142.917 271.34 143.063 271.191 143.168 270.997C143.825 270.07 144.555 269.24 145.346 268.52C145.832 267.957 146.416 267.565 147.046 267.376C147.487 267.337 147.927 267.465 148.315 267.747C148.703 268.028 149.023 268.45 149.236 268.964C149.638 270.071 149.736 271.329 149.511 272.521C149.275 273.686 148.921 274.803 148.458 275.84C148.158 276.607 147.788 277.322 147.357 277.968C145.98 279.874 143.838 280.192 142.078 281.367C141.893 281.517 141.684 281.61 141.468 281.637C141.278 281.6 141.096 281.503 140.94 281.354C140.784 281.205 140.657 281.007 140.57 280.779C139.888 279.489 139.475 277.982 139.374 276.412C139.501 274.832 140.004 273.347 140.81 272.172Z" fill="#FCBDBA"/>
<path d="M123.695 257.022C123.903 256.944 124.125 256.973 124.317 257.102C124.425 257.218 124.522 257.351 124.605 257.499C124.976 258.039 125.586 258.055 126.077 258.34C126.39 258.56 126.665 258.864 126.883 259.234C127.102 259.603 127.26 260.029 127.346 260.485C127.518 261.409 127.595 262.36 127.573 263.312C127.605 263.815 127.565 264.322 127.454 264.805C127.397 265.041 127.287 265.249 127.14 265.402C126.993 265.555 126.814 265.645 126.628 265.662C126.328 265.601 126.045 265.442 125.802 265.202C125.302 264.836 124.722 264.712 124.162 264.852C123.437 265.154 122.744 265.581 122.103 266.123C121.777 266.38 121.405 266.516 121.026 266.516C120.646 266.516 120.274 266.38 119.948 266.123C119.649 265.779 119.419 265.343 119.278 264.852C118.679 263.137 118.009 261.168 119.206 259.754C120.477 258.298 122.034 257.351 123.695 257.022Z" fill="#FCBDBA"/>
<path d="M114.861 318.336C114.861 318.336 117.255 354.861 117.255 363.69C117.255 382.651 109.894 414.316 109.894 414.316C109.894 414.316 103.084 418.191 100.702 413.602L99.3017 410.982C99.3017 410.982 106.351 369.693 95.2323 339.123C94.9245 338.224 94.6684 337.295 94.4663 336.344C93.5905 332.722 92.9656 329.001 92.5991 325.228L114.861 318.336Z" fill="#FFC9B0"/>
<path d="M111.522 225.119C112.436 227.542 113.019 230.16 113.245 232.853C113.349 234.203 113.182 235.567 112.762 236.804C112.342 238.042 111.683 239.111 110.852 239.903C110.356 240.221 109.89 240.616 109.463 241.079C108.003 243.079 109.691 246.7 108.829 249.289C108.476 250.183 107.965 250.95 107.339 251.525C106.714 252.1 105.993 252.466 105.238 252.592C104.011 252.746 102.774 252.478 101.648 251.814C101.294 251.683 100.967 251.446 100.693 251.121C100.419 250.796 100.205 250.392 100.068 249.94C100.011 249.256 100.081 248.563 100.271 247.923C101.336 242.476 98.5955 236.807 99.0743 231.249C99.5171 226.485 103.467 217.369 107.859 218.211C110.169 218.608 110.78 222.848 111.522 225.119Z" fill="#FCBDBA"/>
<path d="M141.911 282.812C141.911 282.812 125.154 302.614 124.017 302.614C122.88 302.614 117.566 293.769 115.89 291.006L115.412 290.18L114.813 318.336C112.749 319.944 110.601 321.355 108.386 322.56C105.468 324.248 102.379 325.355 99.2178 325.847C98.2187 325.974 97.2127 325.974 96.2136 325.847C88.0867 324.863 84.52 321.258 84.52 321.258L88.7091 265.677C88.9733 261.742 90.0647 257.984 91.859 254.832C93.6533 251.679 96.0785 249.258 98.8587 247.843C99.8984 247.191 101.063 246.975 102.198 247.224C104.514 247.774 106.884 247.774 109.2 247.224C113.868 246.398 118.631 254.862 118.631 254.862L124.843 281.859L139.409 274.983C140.38 275.791 141.14 276.976 141.587 278.376C142.035 279.776 142.148 281.324 141.911 282.812Z" fill="#005BA6"/>
<path d="M109.272 222.372C108.326 223.531 107.381 224.261 106.974 225.976C106.705 227.257 106.608 228.59 106.686 229.915C106.519 229.915 106.387 229.74 106.315 229.518C106.289 229.294 106.21 229.088 106.088 228.93C106.033 228.894 105.972 228.874 105.911 228.872C105.85 228.87 105.788 228.885 105.732 228.916C105.675 228.948 105.624 228.995 105.582 229.055C105.541 229.115 105.509 229.186 105.49 229.264C105.411 229.584 105.411 229.928 105.49 230.248C105.885 232.36 106.411 234.409 106.686 236.6C106.686 236.839 106.686 237.108 106.782 237.347C106.869 238.045 106.84 238.76 106.698 239.443C106.506 240.094 106.212 240.683 105.837 241.174C105.613 241.58 105.333 241.925 105.011 242.19C104.709 242.389 104.386 242.523 104.053 242.587C102.974 242.754 101.882 242.722 100.81 242.492C99.9028 242.367 99.0151 242.062 98.1766 241.587C97.6546 241.25 97.1543 240.857 96.6805 240.412C95.5329 239.38 94.4591 238.21 93.4728 236.918C91.0791 233.948 90.2891 228.009 90.337 223.848C90.337 223.42 90.337 222.975 90.337 222.53C90.4136 221.227 90.6396 219.948 91.0072 218.735C91.9871 215.982 93.635 213.745 95.6871 212.383C99.8762 209.381 106.112 207.857 110.05 212.669C110.251 212.907 110.428 213.179 110.576 213.479C111.809 215.924 110.744 220.561 109.272 222.372Z" fill="#F6A569"/>
<path d="M106.71 239.379C106.518 240.03 106.224 240.62 105.849 241.11C105.625 241.516 105.345 241.861 105.023 242.127C104.721 242.325 104.398 242.459 104.065 242.524C102.986 242.69 101.894 242.658 100.822 242.428C99.9147 242.304 99.0271 241.999 98.1886 241.523C97.6666 241.186 97.1662 240.793 96.6925 240.348C95.5448 239.316 94.4711 238.147 93.4848 236.854C91.091 233.885 90.3011 227.946 90.349 223.785C90.349 223.356 90.349 222.912 90.349 222.467C91.2466 221.546 92.3358 221.022 93.1138 222.117C93.6062 223.105 93.9477 224.211 94.1192 225.373C94.4995 226.74 94.9722 228.058 95.5315 229.311C96.0555 230.583 96.7584 231.71 97.6021 232.63C99.0937 233.957 100.807 234.78 102.593 235.028C102.728 234.017 102.662 232.978 102.402 232.011C103.228 233.308 104.201 234.428 105.286 235.33C105.765 235.743 106.28 236.124 106.758 236.6C106.758 236.839 106.758 237.108 106.854 237.347C106.914 238.03 106.866 238.723 106.71 239.379Z" fill="url(#paint3_linear_2_328)"/>
<path d="M91.7141 216.766C91.109 216.416 90.4671 216.191 89.8108 216.099C89.6885 216.054 89.5596 216.051 89.4362 216.09C89.3127 216.129 89.1987 216.208 89.1045 216.321C88.0519 217.591 87.3697 219.311 87.1773 221.181C87.0041 221.964 87.0041 222.797 87.1773 223.579C87.3332 224.08 87.5799 224.522 87.8955 224.866C88.5334 225.631 89.3503 226.082 90.2091 226.143C91.0679 226.204 91.9163 225.87 92.6119 225.199C94.3955 223.151 93.8568 218.132 91.7141 216.766Z" fill="#6F87FC"/>
<path d="M80.3071 258.912C80.3445 258.391 80.4849 257.893 80.7141 257.467C80.5582 257.938 80.4223 258.421 80.3071 258.912Z" fill="#F6A569"/>
<path d="M87.967 248.034C88.0044 247.192 87.911 246.349 87.6928 245.557C87.4746 244.765 87.1361 244.04 86.6983 243.429C87.0896 245.476 87.0064 247.631 86.4598 249.615C85.9132 251.598 84.9285 253.316 83.6343 254.545C82.964 255.148 82.21 255.625 81.5756 256.292C81.2541 256.631 80.9682 257.027 80.7259 257.467C81.2645 256.037 81.6166 254.496 81.7671 252.909C81.8046 252.332 81.7432 251.751 81.5876 251.21C81.5067 250.94 81.389 250.693 81.2405 250.48C81.0199 250.158 80.784 249.856 80.5343 249.574C78.5983 247.098 76.8651 244.357 75.3638 241.396C73.4465 238.339 71.977 234.832 71.0311 231.058C70.4017 227.611 70.5011 224.001 71.3183 220.625C72.0185 217.132 73.5303 214.02 75.6391 211.732C76.8585 210.657 78.2435 209.956 79.6929 209.681C81.1423 209.407 82.6197 209.565 84.0173 210.144C84.0173 210.144 91.2585 212.002 90.1454 219.195C89.8581 221.006 89.5349 222.705 89.2956 224.325C88.5296 229.184 88.3021 233.408 91.0789 238.204C92.8743 241.206 90.66 246.541 87.967 248.034Z" fill="#F6A569"/>
<path d="M80.3071 258.912C80.3445 258.391 80.4849 257.893 80.7141 257.467C80.5582 257.938 80.4223 258.421 80.3071 258.912Z" fill="url(#paint4_linear_2_328)"/>
<path d="M87.967 248.034C88.0043 247.192 87.911 246.349 87.6928 245.557C87.4746 244.765 87.1361 244.04 86.6983 243.429C87.0895 245.476 87.0064 247.631 86.4598 249.615C85.9132 251.598 84.9284 253.316 83.6343 254.545C82.964 255.148 82.21 255.625 81.5756 256.292C81.254 256.631 80.9682 257.027 80.7258 257.467C81.2645 256.037 81.6166 254.496 81.7671 252.909C81.8046 252.332 81.7432 251.751 81.5876 251.21C81.5066 250.94 81.389 250.693 81.2405 250.48C82.1275 248.462 82.6365 246.191 82.7246 243.858C82.8323 239.093 80.7019 234.441 81.049 229.565C82.2013 231.992 83.7623 234.03 85.6091 235.52C84.8311 232.9 86.9137 223.102 89.3075 224.198C88.5415 229.057 88.3141 233.281 91.0909 238.077C92.8742 241.206 90.66 246.541 87.967 248.034Z" fill="url(#paint5_linear_2_328)"/>
<path d="M115.89 291.006L115.412 290.18L114.813 318.336C112.749 319.944 110.601 321.356 108.386 322.56C105.468 324.248 102.379 325.355 99.2178 325.847C99.4009 322.538 100.476 319.426 102.246 317.081C103.371 315.605 104.771 314.461 105.837 312.873C107.145 310.661 108.043 308.072 108.458 305.314C110.492 294.738 110.289 283.669 110.086 272.776C111.282 276.857 112.479 280.986 113.676 285.003C114.346 287.052 115.34 288.91 115.89 291.006Z" fill="url(#paint6_linear_2_328)"/>
<path d="M281.217 209.493L338.368 129.345L319.062 105.715L384.029 107.176L386.974 180.162L371.39 162.328L335.4 209.493H281.217Z" fill="#6F87FC"/>
<path d="M281.217 209.493L338.368 129.345L319.062 105.715L384.029 107.176L386.974 180.162L371.39 162.328L335.4 209.493H281.217Z" fill="url(#paint7_linear_2_328)"/>
<defs>
<linearGradient id="paint0_linear_2_328" x1="275.986" y1="-53.9293" x2="260.312" y2="1042.81" gradientUnits="userSpaceOnUse">
<stop offset="0.01"/>
<stop offset="0.13" stop-opacity="0.69"/>
<stop offset="0.25" stop-opacity="0.32"/>
<stop offset="1" stop-opacity="0"/>
</linearGradient>
<linearGradient id="paint1_linear_2_328" x1="4668.67" y1="5495.32" x2="30705.1" y2="26727.3" gradientUnits="userSpaceOnUse">
<stop offset="0.01"/>
<stop offset="0.13" stop-opacity="0.69"/>
<stop offset="0.25" stop-opacity="0.32"/>
<stop offset="1" stop-opacity="0"/>
</linearGradient>
<linearGradient id="paint2_linear_2_328" x1="17733.3" y1="1145.07" x2="29054.5" y2="54146.6" gradientUnits="userSpaceOnUse">
<stop offset="0.01"/>
<stop offset="0.13" stop-opacity="0.69"/>
<stop offset="0.25" stop-opacity="0.32"/>
<stop offset="1" stop-opacity="0"/>
</linearGradient>
<linearGradient id="paint3_linear_2_328" x1="1597.92" y1="3535.23" x2="1273.33" y2="4082.94" gradientUnits="userSpaceOnUse">
<stop offset="0.01"/>
<stop offset="0.13" stop-opacity="0.69"/>
<stop offset="0.25" stop-opacity="0.32"/>
<stop offset="1" stop-opacity="0"/>
</linearGradient>
<linearGradient id="paint4_linear_2_328" x1="109.167" y1="523.361" x2="109.868" y2="523.579" gradientUnits="userSpaceOnUse">
<stop offset="0.01"/>
<stop offset="0.13" stop-opacity="0.69"/>
<stop offset="0.25" stop-opacity="0.32"/>
<stop offset="1" stop-opacity="0"/>
</linearGradient>
<linearGradient id="paint5_linear_2_328" x1="790.742" y1="4991.44" x2="2086.09" y2="6227.51" gradientUnits="userSpaceOnUse">
<stop offset="0.01"/>
<stop offset="0.13" stop-opacity="0.69"/>
<stop offset="0.25" stop-opacity="0.32"/>
<stop offset="1" stop-opacity="0"/>
</linearGradient>
<linearGradient id="paint6_linear_2_328" x1="1368.51" y1="10524.1" x2="2696.31" y2="10990" gradientUnits="userSpaceOnUse">
<stop offset="0.01"/>
<stop offset="0.13" stop-opacity="0.69"/>
<stop offset="0.25" stop-opacity="0.32"/>
<stop offset="1" stop-opacity="0"/>
</linearGradient>
<linearGradient id="paint7_linear_2_328" x1="22600.2" y1="21332.4" x2="37961.6" y2="-5430.6" gradientUnits="userSpaceOnUse">
<stop offset="0.01"/>
<stop offset="0.13" stop-opacity="0.69"/>
<stop offset="0.25" stop-opacity="0.32"/>
<stop offset="1" stop-opacity="0"/>
</linearGradient>
</defs>
</svg>
