<svg width="486" height="486" viewBox="0 0 486 486" fill="none" xmlns="http://www.w3.org/2000/svg">
<path opacity="0.18" d="M191.647 47.0728C176.013 66.828 167.876 95.1011 152.74 115.526C125.097 152.799 77.2591 160.149 57.5686 205.474C47.7203 228.039 47.3387 256.353 53.26 281.171C59.1813 305.99 70.9746 327.721 84.3376 346.815C108.121 380.78 137.691 407.82 170.51 423.688C186.083 431.218 202.64 436.281 219.136 434.566C238.624 432.549 256.88 421.303 276.103 416.599C296.378 411.699 317.41 414.149 337.599 408.563C357.788 402.977 378.5 386.195 382.748 359.424C385.388 342.764 381.196 325.124 384.04 308.554C389.013 279.57 412.686 264.25 425.698 240.044C432.44 227.442 436.234 212.484 436.605 197.038C436.975 180.623 433.029 163.481 423.969 152.301C417.118 143.856 408.07 139.471 399.397 134.84C359.376 113.517 326.489 81.1116 291.521 48.5836C261.509 20.6454 221.081 9.88165 191.647 47.0728Z" fill="#6F87FC"/>
<path d="M247.315 305.704L253.661 450.769L263.909 451.814L287.268 301.465L297.16 453.733H307.408L325.486 307.966L287.268 279.285L247.315 305.704Z" fill="#25233A"/>
<path d="M381.289 117.943C381.289 117.943 383.246 112.227 381.947 101.839C380.649 91.4507 389.155 76.9221 389.155 76.9221C389.817 77.406 390.352 78.1457 390.69 79.0428C391.027 79.9399 391.151 80.952 391.045 81.9447L397.114 60.9807C397.114 60.9807 400.105 59.0616 403.084 70.2173C406.063 81.373 403.743 91.124 402.906 96.4895C401.509 105.522 395.372 112.17 395.021 116.416C394.669 119.765 394.136 123.075 393.427 126.322L381.289 117.943Z" fill="url(#paint0_linear_2_369)"/>
<path d="M287.084 85.0152C287.084 85.0152 260.001 84.9254 257.699 86.9508C255.397 88.9761 249.432 93.9578 245.554 106.804C241.677 119.65 221.734 190.284 221.734 190.284C221.734 190.284 220.14 197.585 225.47 204.91C230.8 212.236 247.684 238.68 247.684 238.68L241.061 305.353C241.061 305.353 282.916 309.542 287.841 292.8C287.841 292.8 303.112 304.307 325.51 307.974L332.897 311.698L333.512 185.776C336.543 190.646 340.487 194.373 344.947 196.582C349.406 198.791 354.226 199.404 358.921 198.361C375.478 194.963 391.229 166.968 398.314 131.549L375.46 115.542C375.46 115.542 366.787 161.08 352.199 153.191C342.025 147.678 342.031 126.943 340.886 112.357C340.583 108.504 339.385 104.871 337.457 101.961C335.53 99.0505 332.968 97.0073 330.127 96.1138L310.769 90.0133L287.084 85.0152Z" fill="white"/>
<path d="M267.048 218.524L264.038 305.206C264.038 305.206 245.284 306.227 241.055 305.353L247.672 238.696L267.048 218.524Z" fill="#6F87FC"/>
<path d="M267.048 218.524L264.038 305.206C264.038 305.206 245.284 306.227 241.055 305.353L247.672 238.696L267.048 218.524Z" fill="url(#paint1_linear_2_369)"/>
<path d="M333.512 185.776L327.382 167.466L319.331 306.733L332.903 311.698L333.512 185.776Z" fill="#6F87FC"/>
<path d="M333.512 185.776L327.382 167.466L319.331 306.733L332.903 311.698L333.512 185.776Z" fill="url(#paint2_linear_2_369)"/>
<path d="M285.803 98.7354C285.803 98.7354 300.73 112.227 309.045 102.696L287.034 226.144L285.803 98.7354Z" fill="#25233A"/>
<path d="M289.564 65.9379C289.564 65.9379 282.639 101.055 287.564 108.691C292.488 116.326 307.876 116.972 309.045 102.696C310.215 88.4208 315.293 69.3352 315.293 69.3352L289.564 65.9379Z" fill="url(#paint3_linear_2_369)"/>
<path opacity="0.19" d="M288.825 74.5211C288.825 74.5211 294.716 94.1211 299.794 97.2326C304.872 100.344 309.291 98.0493 309.932 95.3135C310.572 92.5776 313.225 77.9021 313.225 77.9021L288.825 74.5211Z" fill="url(#paint4_linear_2_369)"/>
<path d="M325.055 46.6319C325.055 68.9188 315.588 86.9835 303.906 86.9835C292.223 86.9835 282.763 68.8943 282.763 46.6319C282.763 24.3695 293.134 16.1211 304.829 16.1211C316.524 16.1211 325.055 24.3286 325.055 46.6319Z" fill="url(#paint5_linear_2_369)"/>
<path d="M333.26 33.8264C332.466 39.9106 329.893 45.3496 326.871 50.0455C326.86 49.641 326.833 49.2376 326.791 48.8368C326.483 44.3614 325.954 39.8534 324.495 35.8272C322.901 31.4172 320.032 27.587 316.431 26.5662C314.031 25.8802 311.452 26.4519 308.971 26.6234C306.94 26.754 304.977 26.6234 303.229 25.3004C302.425 24.5401 301.575 23.8707 300.686 23.2995C295.621 20.8495 292.223 32.9036 292.02 37.5177C291.786 42.8424 292.439 48.3958 291.023 53.402C289.792 52.765 289.342 50.8131 288.881 49.1553C288.419 47.4975 287.453 45.6681 286.142 45.9458C285.818 46.047 285.513 46.2383 285.249 46.5072C284.985 46.7761 284.767 47.1164 284.609 47.5056C283.581 49.7188 283.84 52.6016 284.56 55.019C285.28 57.4363 286.406 59.625 287.102 62.0587C287.662 64.0674 287.915 66.2043 287.845 68.3442C287.775 70.4841 287.385 72.584 286.696 74.521C283.804 69.3497 281.748 63.4415 280.657 57.1668L277.58 60.7193L277.783 45.3088C277.949 33.3691 278.399 20.3677 284.258 11.319C288.752 4.36913 295.756 1.05346 302.625 0.220453C310.252 -0.702384 318.296 1.28212 324.464 7.34998C330.631 13.4178 334.571 23.8059 333.26 33.8264Z" fill="#3F3D56"/>
<path d="M330.182 33.8755C327.905 43.994 326.791 48.8369 326.791 48.8369C326.483 44.3615 325.954 39.8535 324.495 35.8273C322.901 31.4173 320.032 27.5871 316.431 26.5663C314.031 25.8803 311.452 26.452 308.971 26.6235C308.971 26.6235 318.204 20.1636 322.304 18.5303C326.403 16.8969 332.46 23.7651 330.182 33.8755Z" fill="#25233A"/>
<path opacity="0.19" d="M288.825 56.3502C288.825 56.3502 286.72 55.2151 287.379 53.0345C288.038 50.854 287.447 49.6862 286.763 49.4004C286.08 49.1145 284.08 51.3767 286.148 56.3502C288.216 61.3237 288.825 56.3502 288.825 56.3502Z" fill="url(#paint6_linear_2_369)"/>
<path d="M284.123 80.4746L277.968 83.3085C277.441 83.5518 276.972 83.9739 276.607 84.5327C276.242 85.0916 275.994 85.7676 275.887 86.4935L270.409 124.06L280.996 126.298L275.493 136.384L287.01 218.508L286.179 82.402C286.175 82.1295 286.13 81.8608 286.048 81.6112C285.966 81.3615 285.847 81.1359 285.699 80.947C285.551 80.7582 285.376 80.6099 285.185 80.5106C284.994 80.4113 284.79 80.363 284.584 80.3685C284.428 80.3745 284.272 80.4103 284.123 80.4746Z" fill="#6F87FC"/>
<path d="M310.787 89.9807L317.367 93.1657L319.331 131.549H309.919L313.939 142.362L287.034 226.144C287.034 226.144 307.593 118.883 310.787 89.9807Z" fill="#6F87FC"/>
<path d="M284.123 80.4746L277.968 83.3085C277.441 83.5518 276.972 83.9739 276.607 84.5327C276.242 85.0916 275.994 85.7676 275.887 86.4935L270.409 124.06L280.996 126.298L275.493 136.384L287.01 218.508L286.179 82.402C286.175 82.1295 286.13 81.8608 286.048 81.6112C285.966 81.3615 285.847 81.1359 285.699 80.947C285.551 80.7582 285.376 80.6099 285.185 80.5106C284.994 80.4113 284.79 80.363 284.584 80.3685C284.428 80.3745 284.272 80.4103 284.123 80.4746Z" fill="url(#paint7_linear_2_369)"/>
<path d="M310.787 89.9807L317.367 93.1657L319.331 131.549H309.919L313.939 142.362L287.034 226.144C287.034 226.144 307.593 118.883 310.787 89.9807Z" fill="url(#paint8_linear_2_369)"/>
<path d="M257.175 127.988L247.703 193.175L267.061 218.524L257.175 127.988Z" fill="#6F87FC"/>
<path d="M257.175 127.988L247.703 193.175L267.061 218.524L263.435 185.319L257.175 127.988Z" fill="url(#paint9_linear_2_369)"/>
<path d="M267.061 218.524L253.008 241.75L247.678 238.688L265.386 216.328L267.061 218.524Z" fill="#25233A"/>
<path d="M265.485 221.121C265.485 221.121 269.732 233.372 270.409 240.436L252.984 241.734L265.485 221.121Z" fill="url(#paint10_linear_2_369)"/>
<path d="M251.125 241.734L278.743 240.419C278.743 240.419 276.749 277.986 276.577 282.151C276.404 286.316 246.607 289.166 246.607 289.166L251.125 241.734Z" fill="white"/>
<path d="M331.112 243.106L303.924 240.656C303.924 240.656 300.976 277.962 301.148 282.151C301.32 286.341 328.957 291.682 328.957 291.682L331.112 243.106Z" fill="white"/>
<path d="M251.125 241.734L278.743 240.419C278.743 240.419 276.749 277.986 276.577 282.151C276.404 286.316 246.607 289.166 246.607 289.166L251.125 241.734Z" fill="#6F87FC"/>
<path d="M251.125 241.734L278.743 240.419C278.743 240.419 276.749 277.986 276.577 282.151C276.404 286.316 246.607 289.166 246.607 289.166L251.125 241.734Z" fill="url(#paint11_linear_2_369)"/>
<path d="M331.112 243.106L303.924 240.656C303.924 240.656 300.976 277.962 301.148 282.151C301.32 286.341 328.957 291.682 328.957 291.682L331.112 243.106Z" fill="#6F87FC"/>
<path d="M331.112 243.106L303.924 240.656C303.924 240.656 300.976 277.962 301.148 282.151C301.32 286.341 328.957 291.682 328.957 291.682L331.112 243.106Z" fill="url(#paint12_linear_2_369)"/>
<path d="M377.509 116.963L378.901 114.015L397.643 127.988L398.339 131.541L377.509 116.963Z" fill="#25233A"/>
<path d="M274.158 108.054C273.912 108.054 273.677 107.925 273.503 107.695C273.328 107.466 273.23 107.154 273.228 106.829C273.087 94.5213 276.964 86.9998 280.245 82.8511C282.332 80.1772 284.813 78.1056 287.533 76.7669C287.768 76.6662 288.024 76.6935 288.243 76.8429C288.463 76.9922 288.629 77.2513 288.705 77.5632C288.781 77.8751 288.761 78.2142 288.648 78.506C288.536 78.7978 288.34 79.0182 288.105 79.119C287.564 79.3558 274.847 85.1133 275.087 106.837C275.089 106.999 275.068 107.16 275.023 107.311C274.978 107.462 274.911 107.6 274.825 107.716C274.74 107.832 274.638 107.925 274.526 107.988C274.413 108.052 274.292 108.085 274.17 108.086L274.158 108.054Z" fill="#25233A"/>
<path d="M284.671 138.679H284.597C284.475 138.666 284.355 138.622 284.246 138.548C284.137 138.475 284.04 138.373 283.96 138.249C283.881 138.125 283.82 137.982 283.783 137.827C283.745 137.673 283.731 137.51 283.741 137.347C284.517 124.207 282.215 114.056 277.586 110.193C276.462 109.23 275.154 108.713 273.816 108.703C272.478 108.693 271.166 109.19 270.034 110.136C264.038 114.775 262.266 127.286 262.604 137.388C262.624 137.559 262.616 137.734 262.582 137.9C262.548 138.067 262.487 138.222 262.405 138.356C262.322 138.49 262.219 138.599 262.103 138.677C261.986 138.754 261.859 138.799 261.729 138.807C261.599 138.815 261.469 138.787 261.347 138.724C261.226 138.661 261.116 138.565 261.024 138.442C260.933 138.319 260.862 138.172 260.816 138.01C260.77 137.848 260.75 137.675 260.758 137.503C260.284 123.44 263.404 112.406 269.11 107.996C270.537 106.827 272.184 106.217 273.861 106.236C275.538 106.255 277.177 106.902 278.589 108.103C283.895 112.521 286.456 123.252 285.612 137.503C285.601 137.823 285.497 138.124 285.321 138.344C285.145 138.563 284.912 138.683 284.671 138.679Z" fill="#25233A"/>
<path d="M264.586 138.834C264.587 139.559 264.427 140.268 264.124 140.872C263.821 141.476 263.39 141.948 262.886 142.227C262.381 142.506 261.826 142.58 261.289 142.44C260.753 142.3 260.26 141.952 259.873 141.441C259.485 140.929 259.221 140.276 259.113 139.565C259.005 138.854 259.059 138.117 259.267 137.446C259.475 136.776 259.828 136.202 260.282 135.798C260.736 135.393 261.27 135.177 261.816 135.175C262.179 135.174 262.539 135.268 262.875 135.451C263.21 135.634 263.515 135.904 263.772 136.243C264.03 136.583 264.234 136.987 264.374 137.431C264.513 137.876 264.585 138.352 264.586 138.834Z" fill="#6F87FC"/>
<path d="M287.084 139.283C287.084 140.008 286.921 140.717 286.618 141.32C286.314 141.923 285.882 142.393 285.377 142.671C284.872 142.948 284.317 143.021 283.781 142.879C283.245 142.738 282.752 142.389 282.366 141.876C281.979 141.363 281.716 140.71 281.609 139.998C281.503 139.287 281.557 138.55 281.766 137.88C281.976 137.21 282.33 136.637 282.784 136.234C283.239 135.831 283.773 135.616 284.32 135.616C285.053 135.616 285.756 136.002 286.274 136.69C286.792 137.378 287.084 138.31 287.084 139.283Z" fill="#6F87FC"/>
<path d="M264.586 138.834C264.587 139.559 264.427 140.268 264.124 140.872C263.821 141.476 263.39 141.948 262.886 142.227C262.381 142.506 261.826 142.58 261.289 142.44C260.753 142.3 260.26 141.952 259.873 141.441C259.485 140.929 259.221 140.276 259.113 139.565C259.005 138.854 259.059 138.117 259.267 137.446C259.475 136.776 259.828 136.202 260.282 135.798C260.736 135.393 261.27 135.177 261.816 135.175C262.179 135.174 262.539 135.268 262.875 135.451C263.21 135.634 263.515 135.904 263.772 136.243C264.03 136.583 264.234 136.987 264.374 137.431C264.513 137.876 264.585 138.352 264.586 138.834Z" fill="url(#paint13_linear_2_369)"/>
<path d="M287.084 139.283C287.084 140.008 286.921 140.717 286.618 141.32C286.314 141.923 285.882 142.393 285.377 142.671C284.872 142.948 284.317 143.021 283.781 142.879C283.245 142.738 282.752 142.389 282.366 141.876C281.979 141.363 281.716 140.71 281.609 139.998C281.503 139.287 281.557 138.55 281.766 137.88C281.976 137.21 282.33 136.637 282.784 136.234C283.239 135.831 283.773 135.616 284.32 135.616C285.053 135.616 285.756 136.002 286.274 136.69C286.792 137.378 287.084 138.31 287.084 139.283Z" fill="url(#paint14_linear_2_369)"/>
<path d="M315.293 163.669C315.135 163.668 314.98 163.615 314.842 163.514C314.705 163.413 314.588 163.267 314.504 163.09C314.42 162.913 314.371 162.711 314.361 162.503C314.352 162.294 314.382 162.086 314.45 161.897L319.681 147.327C331.376 99.4622 311.68 86.2566 311.495 86.1341C311.384 86.0633 311.285 85.9643 311.203 85.8427C311.121 85.7211 311.058 85.5792 311.018 85.4253C310.977 85.2713 310.96 85.1083 310.967 84.9455C310.974 84.7826 311.005 84.6232 311.058 84.4763C311.111 84.3294 311.186 84.1978 311.278 84.0891C311.369 83.9805 311.476 83.8969 311.592 83.843C311.708 83.7892 311.831 83.7662 311.954 83.7753C312.077 83.7845 312.197 83.8257 312.307 83.8964C312.529 84.0434 317.847 87.5061 321.602 97.2653C325.036 106.143 327.794 122.182 321.436 148.168L321.393 148.315L316.136 162.958C316.061 163.171 315.942 163.351 315.792 163.477C315.643 163.602 315.47 163.669 315.293 163.669Z" fill="#25233A"/>
<path d="M313.945 173.183C316.919 173.183 319.331 169.984 319.331 166.037C319.331 162.091 316.919 158.891 313.945 158.891C310.97 158.891 308.559 162.091 308.559 166.037C308.559 169.984 310.97 173.183 313.945 173.183Z" fill="#6F87FC"/>
<path d="M313.945 173.183C316.919 173.183 319.331 169.984 319.331 166.037C319.331 162.091 316.919 158.891 313.945 158.891C310.97 158.891 308.559 162.091 308.559 166.037C308.559 169.984 310.97 173.183 313.945 173.183Z" fill="url(#paint15_linear_2_369)"/>
<path d="M316.875 168.954C318.356 166.989 318.356 163.804 316.875 161.839C315.394 159.875 312.994 159.875 311.513 161.839C310.032 163.804 310.032 166.989 311.513 168.954C312.994 170.919 315.394 170.919 316.875 168.954Z" fill="#6F87FC"/>
<path d="M318.091 165.986C319.572 164.022 319.572 160.836 318.091 158.872C316.611 156.907 314.21 156.907 312.729 158.872C311.248 160.836 311.248 164.022 312.729 165.986C314.21 167.951 316.611 167.951 318.091 165.986Z" fill="#6F87FC"/>
<path d="M318.091 165.986C319.572 164.022 319.572 160.836 318.091 158.872C316.611 156.907 314.21 156.907 312.729 158.872C311.248 160.836 311.248 164.022 312.729 165.986C314.21 167.951 316.611 167.951 318.091 165.986Z" fill="url(#paint16_linear_2_369)"/>
<path d="M214.114 278.484H136.638C135.687 278.484 134.774 277.983 134.101 277.09C133.428 276.197 133.05 274.986 133.05 273.723C133.05 272.46 133.428 271.249 134.101 270.356C134.774 269.464 135.687 268.962 136.638 268.962H214.114C215.065 268.962 215.978 269.464 216.651 270.356C217.324 271.249 217.702 272.46 217.702 273.723C217.705 274.348 217.614 274.968 217.436 275.547C217.258 276.126 216.996 276.653 216.664 277.097C216.333 277.541 215.938 277.895 215.504 278.137C215.07 278.379 214.603 278.506 214.132 278.509L214.114 278.484Z" fill="#6F87FC"/>
<path d="M175.951 273.666C175.951 274.926 175.575 276.134 174.905 277.027C174.235 277.919 173.325 278.423 172.375 278.427H49.77V268.929H172.375C173.321 268.936 174.227 269.437 174.897 270.323C175.566 271.21 175.945 272.411 175.951 273.666Z" fill="#6F87FC"/>
<path d="M217.69 273.666C217.688 274.928 217.31 276.138 216.637 277.03C215.964 277.923 215.053 278.425 214.101 278.427H172.375C173.327 278.427 174.24 277.926 174.913 277.033C175.586 276.14 175.964 274.929 175.964 273.666C175.964 272.403 175.586 271.192 174.913 270.299C174.24 269.406 173.327 268.905 172.375 268.905H214.114C215.063 268.909 215.973 269.413 216.643 270.305C217.313 271.197 217.69 272.406 217.69 273.666Z" fill="url(#paint17_linear_2_369)"/>
<path d="M175.951 273.666C175.951 274.926 175.575 276.134 174.905 277.027C174.235 277.919 173.325 278.423 172.375 278.427H49.77V268.929H172.375C173.321 268.936 174.227 269.437 174.897 270.323C175.566 271.21 175.945 272.411 175.951 273.666Z" fill="url(#paint18_linear_2_369)"/>
<path d="M212.827 278.452H136.638V391.585H212.827V278.452Z" fill="#6F87FC"/>
<path d="M212.827 278.452H136.638V391.585H212.827V278.452Z" fill="url(#paint19_linear_2_369)"/>
<path d="M175.964 278.452H49.7762V391.585H175.964V278.452Z" fill="#6F87FC"/>
<path d="M254.843 457.049L255.107 450.769L263.909 451.814L262.74 461.23C262.74 461.23 258.388 470.124 254.843 457.049Z" fill="url(#paint20_linear_2_369)"/>
<path d="M306.515 462.161L306.183 453.733L297.16 453.619V464.187C297.16 464.187 302.982 475.236 306.515 462.161Z" fill="url(#paint21_linear_2_369)"/>
<path d="M254.843 457.049C254.843 457.049 238.224 467.919 236.266 471.872C234.978 474.76 234.034 477.895 233.466 481.165C233.466 481.165 243.628 481.402 249.937 478.609C256.246 475.816 263.909 472.794 263.909 472.794V458.38C263.909 458.38 263.78 456.698 261.94 458.617C260.099 460.536 258.246 462.333 256.615 461.067C254.984 459.801 255.827 456.959 254.843 457.049Z" fill="#6F87FC"/>
<path d="M306.946 460.332C306.946 460.332 321.491 472.329 323.196 476.453C324.324 479.461 325.096 482.681 325.486 486C325.486 486 315.336 485.257 309.199 481.868C303.062 478.479 295.596 474.722 295.596 474.722L296.384 460.348C296.384 460.348 296.606 458.715 298.335 460.765C300.065 462.815 303.259 465.273 304.977 464.187C306.694 463.101 305.968 460.144 306.946 460.332Z" fill="#6F87FC"/>
<path d="M254.843 457.049C254.843 457.049 238.224 467.919 236.266 471.872C234.978 474.76 234.034 477.895 233.466 481.165C233.466 481.165 243.628 481.402 249.937 478.609C256.246 475.816 263.909 472.794 263.909 472.794V458.38C263.909 458.38 263.78 456.698 261.94 458.617C260.099 460.536 258.246 462.333 256.615 461.067C254.984 459.801 255.827 456.959 254.843 457.049Z" fill="url(#paint22_linear_2_369)"/>
<path d="M306.946 460.332C306.946 460.332 321.491 472.329 323.196 476.453C324.324 479.461 325.096 482.681 325.486 486C325.486 486 315.336 485.257 309.199 481.868C303.062 478.479 295.596 474.722 295.596 474.722L296.384 460.348C296.384 460.348 296.606 458.715 298.335 460.765C300.065 462.815 303.259 465.273 304.977 464.187C306.694 463.101 305.968 460.144 306.946 460.332Z" fill="url(#paint23_linear_2_369)"/>
<path d="M176.462 268.766V268.921H109.026C109.026 268.921 118.874 225.94 148.838 227.271C149.453 227.271 149.995 227.336 150.549 227.393C178.266 230.08 176.875 265.173 176.462 268.766Z" fill="#6F87FC"/>
<path d="M176.462 268.766H159.228L159.357 266.504C159.357 266.504 164.614 233.02 150.555 227.426C178.266 230.08 176.875 265.173 176.462 268.766Z" fill="#6F87FC"/>
<path d="M176.462 268.766V268.921H109.026C109.026 268.921 118.874 225.94 148.838 227.271C149.453 227.271 149.995 227.336 150.549 227.393C178.266 230.08 176.875 265.173 176.462 268.766Z" fill="#BD1B0F"/>
<path d="M176.462 268.766H159.228L159.357 266.504C159.357 266.504 164.614 233.02 150.555 227.426C178.266 230.08 176.875 265.173 176.462 268.766Z" fill="#AB180E"/>
<defs>
<linearGradient id="paint0_linear_2_369" x1="385.148" y1="149.116" x2="406.843" y2="61.1317" gradientUnits="userSpaceOnUse">
<stop stop-color="#ECC4D7"/>
<stop offset="0.42" stop-color="#EFD4D1"/>
<stop offset="1" stop-color="#F2EAC9"/>
</linearGradient>
<linearGradient id="paint1_linear_2_369" x1="241.055" y1="262.118" x2="267.048" y2="262.118" gradientUnits="userSpaceOnUse">
<stop offset="0.01" stop-color="white" stop-opacity="0"/>
<stop offset="0.13" stop-color="white" stop-opacity="0.17"/>
<stop offset="0.37" stop-color="white" stop-opacity="0.46"/>
<stop offset="0.59" stop-color="white" stop-opacity="0.68"/>
<stop offset="0.77" stop-color="white" stop-opacity="0.85"/>
<stop offset="0.91" stop-color="white" stop-opacity="0.95"/>
<stop offset="1" stop-color="white" stop-opacity="0.99"/>
</linearGradient>
<linearGradient id="paint2_linear_2_369" x1="7050.49" y1="-43535.7" x2="6464.69" y2="-43537.5" gradientUnits="userSpaceOnUse">
<stop offset="0.01" stop-color="white" stop-opacity="0"/>
<stop offset="0.13" stop-color="white" stop-opacity="0.17"/>
<stop offset="0.37" stop-color="white" stop-opacity="0.46"/>
<stop offset="0.59" stop-color="white" stop-opacity="0.68"/>
<stop offset="0.77" stop-color="white" stop-opacity="0.85"/>
<stop offset="0.91" stop-color="white" stop-opacity="0.95"/>
<stop offset="1" stop-color="white" stop-opacity="0.99"/>
</linearGradient>
<linearGradient id="paint3_linear_2_369" x1="15424" y1="23252.8" x2="18169.2" y2="21970" gradientUnits="userSpaceOnUse">
<stop stop-color="#ECC4D7"/>
<stop offset="0.42" stop-color="#EFD4D1"/>
<stop offset="1" stop-color="#F2EAC9"/>
</linearGradient>
<linearGradient id="paint4_linear_2_369" x1="327.745" y1="72.6509" x2="278.91" y2="85.4533" gradientUnits="userSpaceOnUse">
<stop stop-color="#183866"/>
<stop offset="1" stop-color="#1A7FC1"/>
</linearGradient>
<linearGradient id="paint5_linear_2_369" x1="20436.3" y1="37783.7" x2="23342.2" y2="37783.7" gradientUnits="userSpaceOnUse">
<stop stop-color="#ECC4D7"/>
<stop offset="0.42" stop-color="#EFD4D1"/>
<stop offset="1" stop-color="#F2EAC9"/>
</linearGradient>
<linearGradient id="paint6_linear_2_369" x1="2038.97" y1="4932.5" x2="2000.16" y2="4927.22" gradientUnits="userSpaceOnUse">
<stop stop-color="#183866"/>
<stop offset="1" stop-color="#1A7FC1"/>
</linearGradient>
<linearGradient id="paint7_linear_2_369" x1="7532.32" y1="55967.7" x2="8760.67" y2="55996.4" gradientUnits="userSpaceOnUse">
<stop offset="0.01" stop-color="white" stop-opacity="0"/>
<stop offset="0.13" stop-color="white" stop-opacity="0.17"/>
<stop offset="0.37" stop-color="white" stop-opacity="0.46"/>
<stop offset="0.59" stop-color="white" stop-opacity="0.68"/>
<stop offset="0.77" stop-color="white" stop-opacity="0.85"/>
<stop offset="0.91" stop-color="white" stop-opacity="0.95"/>
<stop offset="1" stop-color="white" stop-opacity="0.99"/>
</linearGradient>
<linearGradient id="paint8_linear_2_369" x1="17783.9" y1="52156.1" x2="15192.2" y2="52489.1" gradientUnits="userSpaceOnUse">
<stop offset="0.01" stop-color="white" stop-opacity="0"/>
<stop offset="0.13" stop-color="white" stop-opacity="0.17"/>
<stop offset="0.37" stop-color="white" stop-opacity="0.46"/>
<stop offset="0.59" stop-color="white" stop-opacity="0.68"/>
<stop offset="0.77" stop-color="white" stop-opacity="0.85"/>
<stop offset="0.91" stop-color="white" stop-opacity="0.95"/>
<stop offset="1" stop-color="white" stop-opacity="0.99"/>
</linearGradient>
<linearGradient id="paint9_linear_2_369" x1="6429.53" y1="-34364.7" x2="6934.39" y2="-34374.2" gradientUnits="userSpaceOnUse">
<stop offset="0.01" stop-color="white" stop-opacity="0"/>
<stop offset="0.13" stop-color="white" stop-opacity="0.17"/>
<stop offset="0.37" stop-color="white" stop-opacity="0.46"/>
<stop offset="0.59" stop-color="white" stop-opacity="0.68"/>
<stop offset="0.77" stop-color="white" stop-opacity="0.85"/>
<stop offset="0.91" stop-color="white" stop-opacity="0.95"/>
<stop offset="1" stop-color="white" stop-opacity="0.99"/>
</linearGradient>
<linearGradient id="paint10_linear_2_369" x1="7915.6" y1="6139.04" x2="8091.74" y2="6939.67" gradientUnits="userSpaceOnUse">
<stop stop-color="#ECC4D7"/>
<stop offset="0.42" stop-color="#EFD4D1"/>
<stop offset="1" stop-color="#F2EAC9"/>
</linearGradient>
<linearGradient id="paint11_linear_2_369" x1="14572.3" y1="16373.2" x2="14389.9" y2="12595.4" gradientUnits="userSpaceOnUse">
<stop offset="0.01" stop-color="white" stop-opacity="0"/>
<stop offset="0.13" stop-color="white" stop-opacity="0.17"/>
<stop offset="0.37" stop-color="white" stop-opacity="0.46"/>
<stop offset="0.59" stop-color="white" stop-opacity="0.68"/>
<stop offset="0.77" stop-color="white" stop-opacity="0.85"/>
<stop offset="0.91" stop-color="white" stop-opacity="0.95"/>
<stop offset="1" stop-color="white" stop-opacity="0.99"/>
</linearGradient>
<linearGradient id="paint12_linear_2_369" x1="16322" y1="17846" x2="15822.7" y2="12484.5" gradientUnits="userSpaceOnUse">
<stop offset="0.01" stop-color="white" stop-opacity="0"/>
<stop offset="0.13" stop-color="white" stop-opacity="0.17"/>
<stop offset="0.37" stop-color="white" stop-opacity="0.46"/>
<stop offset="0.59" stop-color="white" stop-opacity="0.68"/>
<stop offset="0.77" stop-color="white" stop-opacity="0.85"/>
<stop offset="0.91" stop-color="white" stop-opacity="0.95"/>
<stop offset="1" stop-color="white" stop-opacity="0.99"/>
</linearGradient>
<linearGradient id="paint13_linear_2_369" x1="260.69" y1="136.563" x2="267.712" y2="144.605" gradientUnits="userSpaceOnUse">
<stop stop-opacity="0"/>
<stop offset="0.99"/>
</linearGradient>
<linearGradient id="paint14_linear_2_369" x1="2385.95" y1="1370.17" x2="2427.57" y2="1442.66" gradientUnits="userSpaceOnUse">
<stop stop-opacity="0"/>
<stop offset="0.99"/>
</linearGradient>
<linearGradient id="paint15_linear_2_369" x1="4844.36" y1="3064.54" x2="5032.86" y2="3064.54" gradientUnits="userSpaceOnUse">
<stop stop-opacity="0"/>
<stop offset="0.99"/>
</linearGradient>
<linearGradient id="paint16_linear_2_369" x1="3592.04" y1="2064.93" x2="3571.38" y2="2427.04" gradientUnits="userSpaceOnUse">
<stop stop-opacity="0"/>
<stop offset="0.99"/>
</linearGradient>
<linearGradient id="paint17_linear_2_369" x1="15189.9" y1="-2372.37" x2="15204.5" y2="-1616.9" gradientUnits="userSpaceOnUse">
<stop stop-opacity="0"/>
<stop offset="0.99"/>
</linearGradient>
<linearGradient id="paint18_linear_2_369" x1="25433.1" y1="-2623.78" x2="25428.4" y2="-699.914" gradientUnits="userSpaceOnUse">
<stop stop-opacity="0"/>
<stop offset="0.99"/>
</linearGradient>
<linearGradient id="paint19_linear_2_369" x1="12396.2" y1="-20966.4" x2="40984.6" y2="-21235.8" gradientUnits="userSpaceOnUse">
<stop stop-opacity="0"/>
<stop offset="0.99"/>
</linearGradient>
<linearGradient id="paint20_linear_2_369" x1="4164.09" y1="932.795" x2="4297.64" y2="932.795" gradientUnits="userSpaceOnUse">
<stop stop-color="#ECC4D7"/>
<stop offset="0.42" stop-color="#EFD4D1"/>
<stop offset="1" stop-color="#F2EAC9"/>
</linearGradient>
<linearGradient id="paint21_linear_2_369" x1="-39745.1" y1="-437.225" x2="-39887.4" y2="-437.225" gradientUnits="userSpaceOnUse">
<stop stop-color="#ECC4D7"/>
<stop offset="0.42" stop-color="#EFD4D1"/>
<stop offset="1" stop-color="#F2EAC9"/>
</linearGradient>
<linearGradient id="paint22_linear_2_369" x1="12242.6" y1="-493.223" x2="13748.3" y2="-493.223" gradientUnits="userSpaceOnUse">
<stop stop-opacity="0"/>
<stop offset="0.99"/>
</linearGradient>
<linearGradient id="paint23_linear_2_369" x1="15101.3" y1="-421.576" x2="16553.6" y2="-421.576" gradientUnits="userSpaceOnUse">
<stop stop-opacity="0"/>
<stop offset="0.99"/>
</linearGradient>
</defs>
</svg>
