<svg width="120" height="120" viewBox="0 0 120 120" fill="none" xmlns="http://www.w3.org/2000/svg">
<path d="M110.16 21.2866C109.574 20.8884 108.918 20.613 108.229 20.4763C107.54 20.3396 106.831 20.3441 106.144 20.4897C105.457 20.6353 104.804 20.919 104.223 21.3247C103.642 21.7304 103.145 22.2501 102.759 22.854L70.5162 65.8861H49.4839L17.2471 22.854C16.4675 21.6344 15.2495 20.7837 13.861 20.4892C12.4726 20.1946 11.0274 20.4803 9.84337 21.2833C8.65938 22.0864 7.83358 23.3411 7.54763 24.7713C7.26169 26.2015 7.53902 27.6902 8.31862 28.9098L40.2411 78.8527C40.7189 79.6105 42.0708 109.682 42.0708 109.682H77.9104C77.9104 109.682 79.256 79.6105 79.7402 78.8527L111.663 28.9098C112.443 27.6933 112.724 26.2073 112.442 24.778C112.16 23.3488 111.34 22.0931 110.16 21.2866Z" fill="#6F87FC"/>
<path d="M77.9356 110.33H42.0959C41.9292 110.33 41.7692 110.262 41.6513 110.14C41.5334 110.019 41.4672 109.854 41.4672 109.682C40.9516 98.1472 40.0587 80.6209 39.7003 79.1183L7.81559 29.2467C6.94427 27.8836 6.63429 26.2198 6.95385 24.6214C7.2734 23.0229 8.19631 21.6207 9.51955 20.7231C10.8428 19.8256 12.4579 19.5063 14.0097 19.8355C15.5615 20.1646 16.9228 21.1153 17.7941 22.4784L49.8172 65.2255H70.2332L102.3 22.446C103.175 21.1069 104.525 20.1753 106.059 19.8518C107.594 19.5283 109.191 19.8389 110.506 20.7167C111.161 21.161 111.725 21.734 112.165 22.4029C112.605 23.0717 112.913 23.8234 113.072 24.6149C113.23 25.4064 113.235 26.2222 113.087 27.0158C112.939 27.8095 112.641 28.5653 112.21 29.2402L80.3312 79.1118C79.9728 80.6144 79.0736 98.1407 78.5581 109.676C78.5589 109.761 78.5434 109.845 78.5126 109.924C78.4818 110.003 78.4362 110.075 78.3784 110.136C78.3205 110.197 78.2517 110.245 78.1757 110.278C78.0998 110.312 78.0182 110.329 77.9356 110.33ZM42.6681 109.035H77.332C77.9607 95.3622 78.7718 79.2413 79.2183 78.4965L111.16 28.5536C111.844 27.4765 112.087 26.1639 111.835 24.9029C111.583 23.6418 110.856 22.5349 109.814 21.8242C109.297 21.4733 108.717 21.2307 108.109 21.1105C107.501 20.9902 106.876 20.9945 106.269 21.1232C105.662 21.2519 105.086 21.5025 104.573 21.8606C104.061 22.2187 103.622 22.6773 103.281 23.2102L71.0129 66.2877C70.9537 66.3648 70.8781 66.4271 70.7921 66.4698C70.706 66.5124 70.6116 66.5343 70.5161 66.5338H49.4839C49.3884 66.5343 49.294 66.5124 49.208 66.4698C49.1219 66.4271 49.0464 66.3648 48.9872 66.2877L16.7504 23.2491C16.4231 22.69 15.9899 22.2045 15.4765 21.8216C14.9632 21.4386 14.3803 21.166 13.7626 21.02C13.1448 20.874 12.5049 20.8576 11.8808 20.9718C11.2568 21.0859 10.6615 21.3283 10.1303 21.6845C9.59915 22.0408 9.14304 22.5035 8.78917 23.0451C8.43529 23.5867 8.19089 24.1962 8.07053 24.8372C7.95017 25.4782 7.95631 26.1376 8.08859 26.7761C8.22087 27.4146 8.47658 28.0191 8.84048 28.5536L40.7629 78.4965C41.2345 79.2349 42.0519 95.3622 42.6681 109.035Z" fill="#093F68"/>
<path d="M63.4112 70.666H56.5891V100.757H63.4112V70.666Z" fill="#093F68"/>
<path d="M63.411 101.412H56.5888C56.4221 101.412 56.2622 101.343 56.1443 101.222C56.0263 101.1 55.9601 100.936 55.9601 100.764V70.666C55.9601 70.4942 56.0263 70.3295 56.1443 70.208C56.2622 70.0865 56.4221 70.0183 56.5888 70.0183H63.411C63.5777 70.0183 63.7377 70.0865 63.8556 70.208C63.9735 70.3295 64.0397 70.4942 64.0397 70.666V100.764C64.0397 100.936 63.9735 101.1 63.8556 101.222C63.7377 101.343 63.5777 101.412 63.411 101.412ZM57.2176 100.116H62.7822V71.3137H57.2176V100.116Z" fill="#093F68"/>
<path d="M106.525 16.1828V9.86144C106.525 9.15544 106.253 8.47835 105.769 7.97914C105.284 7.47992 104.627 7.19946 103.941 7.19946C103.256 7.19946 102.599 7.47992 102.114 7.97914C101.629 8.47835 101.357 9.15544 101.357 9.86144V17.8409C100.772 18.8189 100.433 20.3733 100.433 22.841C100.433 29.5316 103.463 30.6845 106.57 30.6845C109.676 30.6845 113.524 28.1974 113.901 26.3061C114.637 22.8669 109.418 16.4549 106.525 16.1828Z" fill="#FFC9B0"/>
<path d="M106.595 31.3321C103.69 31.3321 99.8291 30.4577 99.8291 22.841C99.8291 20.5417 100.125 18.8577 100.728 17.7049V9.86142C100.728 8.98364 101.067 8.14182 101.669 7.52114C102.272 6.90045 103.089 6.55176 103.941 6.55176C104.793 6.55176 105.611 6.90045 106.213 7.52114C106.816 8.14182 107.154 8.98364 107.154 9.86142V15.6388C109.041 16.1634 111.065 18.2295 112.342 20.03C113.159 21.17 115.014 24.0651 114.542 26.4356C114.071 28.8062 109.852 31.3321 106.595 31.3321ZM101.986 17.7308C102.026 17.8929 102.003 18.0646 101.923 18.2101C101.357 19.1557 101.087 20.6777 101.087 22.8734C101.087 29.2142 103.872 30.0691 106.595 30.0691C109.6 30.0691 113.027 27.6274 113.31 26.183C113.561 24.8877 112.801 22.8539 111.329 20.8073C109.757 18.6181 107.714 16.9212 106.469 16.8305C106.312 16.8159 106.166 16.7413 106.06 16.6214C105.954 16.5014 105.896 16.3449 105.897 16.1828V9.86142C105.897 9.32719 105.691 8.81485 105.324 8.4371C104.957 8.05934 104.46 7.84712 103.941 7.84712C103.423 7.84712 102.925 8.05934 102.559 8.4371C102.192 8.81485 101.986 9.32719 101.986 9.86142V17.7308Z" fill="#093F68"/>
<path d="M112.612 14.7515H104.318C103.492 14.7515 102.822 15.4416 102.822 16.2929V16.2994C102.822 17.1508 103.492 17.8409 104.318 17.8409H112.612C113.438 17.8409 114.108 17.1508 114.108 16.2994V16.2929C114.108 15.4416 113.438 14.7515 112.612 14.7515Z" fill="#FFC9B0"/>
<path d="M112.612 18.4886H104.325C104.036 18.5048 103.746 18.4601 103.474 18.3573C103.202 18.2544 102.954 18.0956 102.743 17.8904C102.533 17.6852 102.366 17.438 102.251 17.1639C102.137 16.8899 102.078 16.5946 102.078 16.2962C102.078 15.9979 102.137 15.7026 102.251 15.4285C102.366 15.1544 102.533 14.9073 102.743 14.7021C102.954 14.4969 103.202 14.338 103.474 14.2352C103.746 14.1323 104.036 14.0876 104.325 14.1038H112.612C112.901 14.0876 113.191 14.1323 113.463 14.2352C113.734 14.338 113.983 14.4969 114.193 14.7021C114.404 14.9073 114.571 15.1544 114.686 15.4285C114.8 15.7026 114.859 15.9979 114.859 16.2962C114.859 16.5946 114.8 16.8899 114.686 17.1639C114.571 17.438 114.404 17.6852 114.193 17.8904C113.983 18.0956 113.734 18.2544 113.463 18.3573C113.191 18.4601 112.901 18.5048 112.612 18.4886ZM104.325 15.3992C104.204 15.3886 104.083 15.404 103.968 15.4443C103.854 15.4845 103.749 15.5489 103.66 15.6332C103.57 15.7175 103.499 15.82 103.451 15.9341C103.402 16.0483 103.377 16.1716 103.377 16.2962C103.377 16.4209 103.402 16.5442 103.451 16.6583C103.499 16.7724 103.57 16.8749 103.66 16.9593C103.749 17.0436 103.854 17.1079 103.968 17.1482C104.083 17.1885 104.204 17.2038 104.325 17.1933H112.612C112.733 17.2038 112.854 17.1885 112.969 17.1482C113.083 17.1079 113.188 17.0436 113.277 16.9593C113.366 16.8749 113.438 16.7724 113.486 16.6583C113.535 16.5442 113.56 16.4209 113.56 16.2962C113.56 16.1716 113.535 16.0483 113.486 15.9341C113.438 15.82 113.366 15.7175 113.277 15.6332C113.188 15.5489 113.083 15.4845 112.969 15.4443C112.854 15.404 112.733 15.3886 112.612 15.3992H104.325Z" fill="#093F68"/>
<path d="M112.612 17.8408H104.318C103.492 17.8408 102.822 18.531 102.822 19.3823V19.3888C102.822 20.2401 103.492 20.9303 104.318 20.9303H112.612C113.438 20.9303 114.108 20.2401 114.108 19.3888V19.3823C114.108 18.531 113.438 17.8408 112.612 17.8408Z" fill="#FFC9B0"/>
<path d="M112.612 21.5717H104.325C103.761 21.5717 103.221 21.3411 102.822 20.9305C102.424 20.52 102.2 19.9631 102.2 19.3825C102.2 18.8019 102.424 18.2451 102.822 17.8346C103.221 17.424 103.761 17.1934 104.325 17.1934H112.612C113.176 17.1934 113.716 17.424 114.115 17.8346C114.513 18.2451 114.737 18.8019 114.737 19.3825C114.737 19.9631 114.513 20.52 114.115 20.9305C113.716 21.3411 113.176 21.5717 112.612 21.5717ZM104.325 18.4887C104.095 18.4887 103.874 18.5829 103.711 18.7505C103.549 18.9181 103.457 19.1455 103.457 19.3825C103.457 19.6196 103.549 19.8469 103.711 20.0145C103.874 20.1822 104.095 20.2763 104.325 20.2763H112.612C112.842 20.2763 113.063 20.1822 113.226 20.0145C113.388 19.8469 113.48 19.6196 113.48 19.3825C113.48 19.1455 113.388 18.9181 113.226 18.7505C113.063 18.5829 112.842 18.4887 112.612 18.4887H104.325Z" fill="#093F68"/>
<path d="M112.612 20.9238H104.318C103.492 20.9238 102.822 21.614 102.822 22.4653V22.4718C102.822 23.3231 103.492 24.0133 104.318 24.0133H112.612C113.438 24.0133 114.108 23.3231 114.108 22.4718V22.4653C114.108 21.614 113.438 20.9238 112.612 20.9238Z" fill="#FFC9B0"/>
<path d="M112.612 24.661H104.325C104.036 24.6772 103.746 24.6325 103.474 24.5296C103.202 24.4268 102.954 24.2679 102.743 24.0627C102.533 23.8576 102.366 23.6104 102.251 23.3363C102.137 23.0622 102.078 22.767 102.078 22.4686C102.078 22.1702 102.137 21.875 102.251 21.6009C102.366 21.3268 102.533 21.0796 102.743 20.8745C102.954 20.6693 103.202 20.5104 103.474 20.4075C103.746 20.3047 104.036 20.26 104.325 20.2762H112.612C112.901 20.26 113.191 20.3047 113.463 20.4075C113.734 20.5104 113.983 20.6693 114.193 20.8745C114.404 21.0796 114.571 21.3268 114.686 21.6009C114.8 21.875 114.859 22.1702 114.859 22.4686C114.859 22.767 114.8 23.0622 114.686 23.3363C114.571 23.6104 114.404 23.8576 114.193 24.0627C113.983 24.2679 113.734 24.4268 113.463 24.5296C113.191 24.6325 112.901 24.6772 112.612 24.661ZM104.325 21.5716C104.204 21.561 104.083 21.5763 103.968 21.6166C103.854 21.6569 103.749 21.7212 103.66 21.8056C103.57 21.8899 103.499 21.9924 103.451 22.1065C103.402 22.2206 103.377 22.3439 103.377 22.4686C103.377 22.5933 103.402 22.7166 103.451 22.8307C103.499 22.9448 103.57 23.0473 103.66 23.1316C103.749 23.2159 103.854 23.2803 103.968 23.3206C104.083 23.3609 104.204 23.3762 104.325 23.3656H112.612C112.733 23.3762 112.854 23.3609 112.969 23.3206C113.083 23.2803 113.188 23.2159 113.277 23.1316C113.366 23.0473 113.438 22.9448 113.486 22.8307C113.535 22.7166 113.56 22.5933 113.56 22.4686C113.56 22.3439 113.535 22.2206 113.486 22.1065C113.438 21.9924 113.366 21.8899 113.277 21.8056C113.188 21.7212 113.083 21.6569 112.969 21.6166C112.854 21.5763 112.733 21.561 112.612 21.5716H104.325Z" fill="#093F68"/>
<path d="M113.09 28.398C113.007 28.3977 112.924 28.3803 112.848 28.347C112.771 28.3136 112.702 28.2649 112.643 28.2037C112.526 28.0824 112.461 27.9182 112.461 27.7471C112.461 27.576 112.526 27.4119 112.643 27.2905C113.12 26.8404 113.418 26.2243 113.48 25.5612C113.48 25.3224 113.388 25.0934 113.224 24.9246C113.06 24.7558 112.838 24.6609 112.606 24.6609H104.325C104.204 24.6503 104.083 24.6657 103.968 24.706C103.854 24.7463 103.749 24.8106 103.66 24.8949C103.57 24.9793 103.499 25.0817 103.451 25.1959C103.402 25.31 103.377 25.4333 103.377 25.558C103.377 25.6826 103.402 25.8059 103.451 25.92C103.499 26.0342 103.57 26.1366 103.66 26.221C103.749 26.3053 103.854 26.3696 103.968 26.4099C104.083 26.4502 104.204 26.4656 104.325 26.455H109.16C109.327 26.455 109.487 26.5232 109.605 26.6447C109.723 26.7662 109.789 26.9309 109.789 27.1027C109.789 27.2745 109.723 27.4392 109.605 27.5607C109.487 27.6821 109.327 27.7504 109.16 27.7504H104.325C104.036 27.7666 103.746 27.7219 103.474 27.619C103.202 27.5161 102.954 27.3573 102.743 27.1521C102.533 26.9469 102.366 26.6997 102.251 26.4257C102.137 26.1516 102.078 25.8563 102.078 25.558C102.078 25.2596 102.137 24.9643 102.251 24.6902C102.366 24.4162 102.533 24.169 102.743 23.9638C102.954 23.7586 103.202 23.5998 103.474 23.4969C103.746 23.394 104.036 23.3493 104.325 23.3655H112.612C113.177 23.3655 113.719 23.5969 114.119 24.0086C114.519 24.4204 114.744 24.9789 114.744 25.5612C114.692 26.5725 114.258 27.523 113.536 28.2102C113.478 28.2702 113.408 28.3177 113.331 28.35C113.255 28.3822 113.173 28.3985 113.09 28.398Z" fill="#093F68"/>
<path d="M13.4743 16.1828V9.86144C13.4743 9.15544 13.7466 8.47835 14.2312 7.97914C14.7159 7.47992 15.3732 7.19946 16.0585 7.19946C16.7439 7.19946 17.4012 7.47992 17.8859 7.97914C18.3705 8.47835 18.6428 9.15544 18.6428 9.86144V17.8409C19.2275 18.8189 19.5733 20.3733 19.5733 22.841C19.5733 29.5316 16.5364 30.6845 13.4366 30.6845C10.3368 30.6845 6.48873 28.1974 6.08003 26.3061C5.39467 22.8669 10.582 16.4549 13.4743 16.1828Z" fill="#FFC9B0"/>
<path d="M13.4053 31.3321C10.1483 31.3321 5.91039 28.7414 5.45767 26.4356C5.00496 24.1299 6.83467 21.17 7.65836 20.03C8.91589 18.2554 10.9845 16.1439 12.8394 15.6388V9.86142C12.8394 8.98364 13.1779 8.14182 13.7805 7.52114C14.383 6.90045 15.2002 6.55176 16.0524 6.55176C16.9045 6.55176 17.7218 6.90045 18.3243 7.52114C18.9269 8.14182 19.2654 8.98364 19.2654 9.86142V17.7049C19.8941 18.8577 20.1708 20.5417 20.1708 22.841C20.1771 30.4318 16.3165 31.3321 13.4053 31.3321ZM16.0524 7.84712C15.7956 7.84712 15.5413 7.89922 15.3041 8.00045C15.0668 8.10168 14.8512 8.25005 14.6697 8.4371C14.4881 8.62414 14.344 8.8462 14.2458 9.09058C14.1475 9.33497 14.0969 9.5969 14.0969 9.86142V16.1828C14.0976 16.3449 14.0391 16.5014 13.9332 16.6214C13.8273 16.7413 13.6815 16.8159 13.5247 16.8305C12.2672 16.9471 10.2426 18.6181 8.66438 20.8073C7.19307 22.8539 6.43226 24.9136 6.69006 26.183C6.973 27.6015 10.3935 30.0691 13.4053 30.0691C16.1278 30.0691 18.9133 29.2142 18.9133 22.8734C18.9133 20.6777 18.6366 19.1557 18.077 18.2101C18.0311 18.1334 18.0013 18.0477 17.9894 17.9585C17.9775 17.8693 17.9838 17.7785 18.0078 17.6919V9.91971C18.0154 9.65087 17.9706 9.38319 17.8761 9.13247C17.7816 8.88174 17.6394 8.65305 17.4577 8.45987C17.276 8.2667 17.0586 8.11296 16.8184 8.00772C16.5781 7.90248 16.3198 7.84788 16.0587 7.84712H16.0524Z" fill="#093F68"/>
<path d="M7.38785 17.8345H15.6813C16.5077 17.8345 17.1777 17.1443 17.1777 16.293V16.2865C17.1777 15.4352 16.5077 14.745 15.6813 14.745L7.38785 14.745C6.56138 14.745 5.89139 15.4352 5.89139 16.2865V16.293C5.89139 17.1443 6.56138 17.8345 7.38785 17.8345Z" fill="#FFC9B0"/>
<path d="M15.6815 18.4886H7.38811C6.84363 18.4581 6.3312 18.2138 5.95625 17.806C5.58129 17.3982 5.37231 16.8579 5.37231 16.2962C5.37231 15.7345 5.58129 15.1942 5.95625 14.7863C6.3312 14.3785 6.84363 14.1343 7.38811 14.1038H15.6815C16.226 14.1343 16.7384 14.3785 17.1134 14.7863C17.4883 15.1942 17.6973 15.7345 17.6973 16.2962C17.6973 16.8579 17.4883 17.3982 17.1134 17.806C16.7384 18.2138 16.226 18.4581 15.6815 18.4886ZM7.38811 15.3991C7.16992 15.4182 6.96665 15.521 6.81852 15.6871C6.67038 15.8533 6.58818 16.0706 6.58818 16.2962C6.58818 16.5217 6.67038 16.7391 6.81852 16.9052C6.96665 17.0713 7.16992 17.1741 7.38811 17.1932H15.6815C15.8997 17.1741 16.103 17.0713 16.2511 16.9052C16.3992 16.7391 16.4815 16.5217 16.4815 16.2962C16.4815 16.0706 16.3992 15.8533 16.2511 15.6871C16.103 15.521 15.8997 15.4182 15.6815 15.3991H7.38811Z" fill="#093F68"/>
<path d="M7.38785 20.9238H15.6813C16.5077 20.9238 17.1777 20.2337 17.1777 19.3823V19.3759C17.1777 18.5245 16.5077 17.8344 15.6813 17.8344H7.38785C6.56138 17.8344 5.89139 18.5245 5.89139 19.3759V19.3823C5.89139 20.2337 6.56138 20.9238 7.38785 20.9238Z" fill="#FFC9B0"/>
<path d="M15.6813 21.5717H7.38792C6.82428 21.5717 6.28372 21.3411 5.88516 20.9305C5.4866 20.52 5.2627 19.9631 5.2627 19.3825C5.2627 18.8019 5.4866 18.2451 5.88516 17.8346C6.28372 17.424 6.82428 17.1934 7.38792 17.1934H15.6813C16.245 17.1934 16.7856 17.424 17.1841 17.8346C17.5827 18.2451 17.8066 18.8019 17.8066 19.3825C17.8066 19.9631 17.5827 20.52 17.1841 20.9305C16.7856 21.3411 16.245 21.5717 15.6813 21.5717ZM7.38792 18.4887C7.1578 18.4887 6.93709 18.5829 6.77437 18.7505C6.61164 18.9181 6.52023 19.1455 6.52023 19.3825C6.52023 19.6196 6.61164 19.8469 6.77437 20.0145C6.93709 20.1822 7.1578 20.2763 7.38792 20.2763H15.6813C15.9115 20.2763 16.1322 20.1822 16.2949 20.0145C16.4576 19.8469 16.549 19.6196 16.549 19.3825C16.549 19.1455 16.4576 18.9181 16.2949 18.7505C16.1322 18.5829 15.9115 18.4887 15.6813 18.4887H7.38792Z" fill="#093F68"/>
<path d="M7.38785 24.0198H15.6813C16.5077 24.0198 17.1777 23.3296 17.1777 22.4783V22.4718C17.1777 21.6205 16.5077 20.9303 15.6813 20.9303H7.38785C6.56138 20.9303 5.89139 21.6205 5.89139 22.4718V22.4783C5.89139 23.3296 6.56138 24.0198 7.38785 24.0198Z" fill="#FFC9B0"/>
<path d="M15.6815 24.6609H7.38811C6.84363 24.6304 6.3312 24.3862 5.95625 23.9784C5.58129 23.5705 5.37231 23.0302 5.37231 22.4685C5.37231 21.9068 5.58129 21.3665 5.95625 20.9587C6.3312 20.5509 6.84363 20.3066 7.38811 20.2761H15.6815C16.226 20.3066 16.7384 20.5509 17.1134 20.9587C17.4883 21.3665 17.6973 21.9068 17.6973 22.4685C17.6973 23.0302 17.4883 23.5705 17.1134 23.9784C16.7384 24.3862 16.226 24.6304 15.6815 24.6609ZM7.38811 21.5715C7.16992 21.5906 6.96665 21.6934 6.81852 21.8595C6.67038 22.0256 6.58818 22.243 6.58818 22.4685C6.58818 22.6941 6.67038 22.9114 6.81852 23.0776C6.96665 23.2437 7.16992 23.3465 7.38811 23.3656H15.6815C15.8997 23.3465 16.103 23.2437 16.2511 23.0776C16.3992 22.9114 16.4815 22.6941 16.4815 22.4685C16.4815 22.243 16.3992 22.0256 16.2511 21.8595C16.103 21.6934 15.8997 21.5906 15.6815 21.5715H7.38811Z" fill="#093F68"/>
<path d="M6.91007 28.3982C6.74512 28.3975 6.58705 28.3301 6.46993 28.2104C5.74781 27.5232 5.31465 26.5727 5.2627 25.5614C5.26188 25.2733 5.31624 24.988 5.42267 24.7216C5.5291 24.4553 5.68551 24.2132 5.88294 24.0092C6.08037 23.8052 6.31493 23.6434 6.57319 23.533C6.83144 23.4226 7.10831 23.3657 7.38793 23.3657H15.6814C16.2258 23.3962 16.7383 23.6405 17.1132 24.0483C17.4882 24.4561 17.6971 24.9964 17.6971 25.5581C17.6971 26.1198 17.4882 26.6601 17.1132 27.068C16.7383 27.4758 16.2258 27.72 15.6814 27.7505H10.8461C10.6794 27.7505 10.5195 27.6823 10.4015 27.5608C10.2836 27.4394 10.2174 27.2746 10.2174 27.1029C10.2174 26.9311 10.2836 26.7663 10.4015 26.6449C10.5195 26.5234 10.6794 26.4552 10.8461 26.4552H15.6814C15.8995 26.4361 16.1028 26.3333 16.2509 26.1672C16.3991 26.001 16.4813 25.7837 16.4813 25.5581C16.4813 25.3326 16.3991 25.1152 16.2509 24.9491C16.1028 24.783 15.8995 24.6802 15.6814 24.6611H7.38793C7.27345 24.6611 7.1601 24.6844 7.05442 24.7297C6.94873 24.7751 6.8528 24.8415 6.77214 24.9252C6.69149 25.0088 6.6277 25.1081 6.58447 25.2173C6.54124 25.3265 6.51941 25.4435 6.52024 25.5614C6.58188 26.2245 6.87979 26.8406 7.35649 27.2907C7.4736 27.412 7.53933 27.5762 7.53933 27.7473C7.53933 27.9184 7.4736 28.0826 7.35649 28.2039C7.29826 28.2651 7.22882 28.3138 7.15219 28.3472C7.07556 28.3805 6.99326 28.3979 6.91007 28.3982Z" fill="#093F68"/>
<path d="M81.5573 114.741H38.4428L32.3061 85.8412C32.2119 85.3999 32.2152 84.9425 32.3156 84.5026C32.416 84.0628 32.611 83.6518 32.8862 83.2999C33.1614 82.9481 33.5097 82.6644 33.9056 82.4697C34.3014 82.2751 34.7346 82.1745 35.1732 82.1753H84.8457C85.2838 82.1754 85.7163 82.2768 86.1114 82.4718C86.5064 82.6669 86.854 82.9508 87.1285 83.3025C87.403 83.6542 87.5974 84.0648 87.6975 84.5042C87.7975 84.9435 87.8006 85.4004 87.7066 85.8412L81.5573 114.741Z" fill="#DB3C2B"/>
<path d="M81.5571 115.388H38.4427C38.2964 115.392 38.1537 115.343 38.0389 115.249C37.9241 115.156 37.8446 115.024 37.8139 114.877L31.6771 85.9772C31.5633 85.4413 31.5676 84.886 31.6899 84.352C31.8121 83.8181 32.0491 83.3193 32.3834 82.8923C32.7177 82.4653 33.1407 82.121 33.6214 81.8848C34.102 81.6486 34.628 81.5265 35.1605 81.5276H84.833C85.365 81.5275 85.8902 81.6503 86.3701 81.8869C86.85 82.1235 87.2722 82.4679 87.6058 82.8948C87.9394 83.3217 88.1758 83.8202 88.2977 84.3536C88.4196 84.8871 88.4238 85.4418 88.3101 85.9772L82.1733 114.877C82.1431 115.022 82.0654 115.152 81.9532 115.245C81.841 115.338 81.7012 115.389 81.5571 115.388ZM38.9457 114.093H81.073L87.1029 85.7051C87.1773 85.3584 87.1751 84.9989 87.0965 84.6531C87.0179 84.3074 86.865 83.9842 86.6489 83.7076C86.4328 83.4309 86.1591 83.2078 85.8481 83.0546C85.537 82.9015 85.1966 82.8224 84.8519 82.823H35.1794C34.8342 82.8211 34.4932 82.8995 34.1815 83.0522C33.8699 83.205 33.5957 83.4281 33.3794 83.7051C33.1631 83.9821 33.0102 84.3058 32.9321 84.6521C32.854 84.9983 32.8527 85.3583 32.9284 85.7051L38.9457 114.093Z" fill="#093F68"/>
<path d="M82.0163 114.741H38.2416V119.352H82.0163V114.741Z" fill="#DB3C2B"/>
<path d="M82.0164 120H38.2417C38.0749 120 37.915 119.932 37.7971 119.81C37.6792 119.689 37.6129 119.524 37.6129 119.352V114.741C37.6129 114.569 37.6792 114.404 37.7971 114.283C37.915 114.161 38.0749 114.093 38.2417 114.093H82.0164C82.1831 114.093 82.3431 114.161 82.461 114.283C82.5789 114.404 82.6451 114.569 82.6451 114.741V119.352C82.6451 119.524 82.5789 119.689 82.461 119.81C82.3431 119.932 82.1831 120 82.0164 120ZM38.8704 118.705H81.3876V115.389H38.8704V118.705Z" fill="#093F68"/>
<path d="M56.5826 69.7463H63.4991V73.8267C63.4991 74.6272 63.1904 75.3949 62.6409 75.9609C62.0914 76.527 61.3461 76.845 60.569 76.845H59.5253C58.7482 76.845 58.0029 76.527 57.4534 75.9609C56.9039 75.3949 56.5952 74.6272 56.5952 73.8267V69.7463H56.5826Z" fill="#FFC9B0"/>
<path d="M60.5627 77.5056H59.5189C58.5745 77.5038 57.6693 77.1162 57.0021 76.4277C56.3348 75.7392 55.9601 74.806 55.9601 73.8332V69.7463C55.9601 69.5745 56.0263 69.4098 56.1443 69.2883C56.2622 69.1669 56.4221 69.0986 56.5888 69.0986H63.5053C63.672 69.0986 63.832 69.1669 63.9499 69.2883C64.0678 69.4098 64.134 69.5745 64.134 69.7463V73.8267C64.1349 74.3101 64.0431 74.7888 63.8639 75.2356C63.6847 75.6823 63.4217 76.0882 63.0899 76.43C62.7581 76.7717 62.364 77.0427 61.9303 77.2273C61.4967 77.4118 61.0319 77.5064 60.5627 77.5056ZM57.2176 70.381V73.8267C57.2176 74.456 57.4599 75.0596 57.8913 75.5052C58.3227 75.9508 58.908 76.202 59.5189 76.2037H60.5627C61.1731 76.2003 61.7574 75.9486 62.1885 75.5034C62.6195 75.0581 62.8623 74.4555 62.8639 73.8267V70.394L57.2176 70.381Z" fill="#093F68"/>
<path d="M37.3425 51.2354C34.8274 49.545 34.5822 45.4516 34.1295 42.6213C32.5749 32.9386 33.5314 23.0047 36.9024 13.8253C37.1356 16.6883 37.6905 19.5138 38.556 22.2451C37.506 18.942 41.3352 13.1776 42.731 10.4832C44.6173 6.81085 46.5036 4.04524 49.6978 1.29259L53.6464 10.6128C55.5128 7.53868 56.8745 4.16874 57.6768 0.638428C57.4693 1.55166 68.1332 10.8006 68.4476 10.7552C68.9883 10.684 69.7051 6.86914 69.6485 5.50901C74.0499 10.4508 78.8222 16.3059 78.118 22.9965C79.6743 21.2507 80.7394 19.1011 81.1989 16.7787C84.1399 24.1147 85.0875 32.1368 83.9403 39.9852C83.5505 42.6731 83.0286 48.4051 80.9474 50.3481C79.0108 52.1422 74.5906 50.8404 72.2139 50.9181L50.905 51.6046C47.2204 51.7212 41.769 52.9971 38.2353 51.6759C37.9226 51.5641 37.6231 51.4164 37.3425 51.2354Z" fill="#725858"/>
<path d="M42.3284 52.9324C40.8736 52.9707 39.4232 52.7516 38.0402 52.2847C37.6818 52.1519 37.3399 51.9758 37.0216 51.7601C34.5946 50.1279 34.0979 46.6434 33.6955 43.8454C33.6389 43.4503 33.5886 43.0747 33.5257 42.712C31.9437 32.9116 32.9135 22.8544 36.3363 13.5662C36.3871 13.4294 36.4815 13.3145 36.604 13.24C36.7264 13.1656 36.8698 13.1361 37.0106 13.1564C37.1514 13.1767 37.2814 13.2456 37.3793 13.3518C37.4772 13.4579 37.5373 13.5952 37.5498 13.7411C37.6647 15.2818 37.8747 16.8134 38.1786 18.3267C38.9941 16.0109 40.048 13.7918 41.3224 11.7074C41.6557 11.1115 41.9512 10.5739 42.1901 10.127C43.9093 6.52865 46.3326 3.33558 49.3077 0.748559C49.3867 0.685099 49.4793 0.641999 49.5777 0.622846C49.6762 0.603694 49.7776 0.609046 49.8736 0.638454C49.9677 0.66195 50.0552 0.707488 50.1293 0.771522C50.2035 0.835555 50.2623 0.916355 50.3012 1.00763L53.7783 9.20083C55.2867 6.48233 56.4029 3.55216 57.0919 0.502441C57.1104 0.419486 57.1446 0.341107 57.1926 0.271787C57.2405 0.202467 57.3013 0.143564 57.3714 0.0984493C57.4414 0.0533341 57.5195 0.0228897 57.601 0.00885867C57.6825 -0.00517235 57.7659 -0.00251409 57.8464 0.0166785C57.9759 0.0476936 58.0925 0.120195 58.1795 0.223766C58.2665 0.327338 58.3194 0.456647 58.3305 0.593116C58.9593 1.78485 66.2781 8.36532 68.3153 9.89385C68.7464 8.48295 68.9938 7.01936 69.051 5.54142C69.0476 5.41003 69.083 5.28068 69.1526 5.17054C69.2223 5.0604 69.3228 4.97468 69.4408 4.92478C69.5588 4.87488 69.6888 4.86315 69.8135 4.89116C69.9382 4.91916 70.0516 4.98557 70.1387 5.08156C74.2509 9.66716 78.5579 15.0041 78.8346 21.0729C79.7004 19.7357 80.3048 18.2375 80.614 16.6621C80.6402 16.5261 80.7081 16.4024 80.8078 16.3091C80.9074 16.2159 81.0334 16.158 81.1673 16.144C81.2991 16.1334 81.4309 16.1658 81.5437 16.2368C81.6566 16.3077 81.7449 16.4135 81.7961 16.5391C84.7944 23.9798 85.7577 32.1242 84.5815 40.0888C84.5375 40.3997 84.4872 40.7365 84.4369 41.1381C84.0219 44.2599 83.3994 48.9815 81.3874 50.8533C79.8029 52.3236 77.0615 52.0256 74.6407 51.7601C73.8507 51.6515 73.0547 51.5952 72.2577 51.5917L50.9425 52.2782C49.9051 52.2782 48.7104 52.4402 47.4529 52.5762C45.7516 52.7832 44.0413 52.9021 42.3284 52.9324ZM36.6255 16.6621C33.9928 25.0179 33.3459 33.9026 34.7392 42.5695C34.7958 42.9322 34.8524 43.3208 34.909 43.7223C35.2737 46.2677 35.7201 49.4284 37.6756 50.7432C37.9147 50.9009 38.1698 51.0312 38.4364 51.1318C40.8131 52.0192 44.2525 51.65 47.2894 51.3261C48.5469 51.1837 49.8045 51.0541 50.8671 51.0217L72.1822 50.3352C73.0381 50.3355 73.8929 50.394 74.7413 50.5101C76.7911 50.7368 79.3439 51.0153 80.5134 49.9271C82.1859 48.3857 82.7958 43.7612 83.1605 41.0086C83.2108 40.6199 83.2611 40.2572 83.3051 39.9464C84.3665 32.843 83.6812 25.5789 81.3119 18.8189C80.7144 20.5313 79.7909 22.1035 78.5956 23.4434C78.5057 23.5435 78.3874 23.6118 78.2575 23.6385C78.1277 23.6653 77.993 23.6491 77.8726 23.5924C77.7542 23.5366 77.6555 23.4443 77.5902 23.3283C77.5248 23.2123 77.4961 23.0782 77.5079 22.9447C78.1367 17.0443 74.2069 11.6815 70.1513 7.04404C69.9501 8.75393 69.5226 11.2928 68.5417 11.4159C67.5608 11.539 59.1794 3.5336 57.9533 2.19289C57.11 5.28918 55.8395 8.2447 54.1807 10.969C54.1203 11.0692 54.0345 11.1505 53.9326 11.2041C53.8306 11.2578 53.7164 11.2817 53.6022 11.2734C53.4882 11.2642 53.3787 11.2232 53.2857 11.1547C53.1926 11.0863 53.1194 10.9929 53.074 10.8848L49.4461 2.34834C46.8963 4.73234 44.804 7.58849 43.2779 10.7682C43.0389 11.2281 42.7308 11.7786 42.385 12.3874C40.7942 15.2308 38.3672 19.5443 39.1846 22.012C39.2292 22.1731 39.2115 22.3458 39.1351 22.4938C39.0588 22.6418 38.9297 22.7535 38.775 22.8055C38.6204 22.8575 38.4522 22.8457 38.3058 22.7726C38.1594 22.6995 38.0462 22.5708 37.99 22.4136C37.3822 20.5304 36.9196 18.6008 36.6067 16.6427L36.6255 16.6621Z" fill="#093F68"/>
<path d="M42.1022 57.2201C45.8075 57.2201 48.8112 54.5552 48.8112 51.2679C48.8112 47.9806 45.8075 45.3157 42.1022 45.3157C38.397 45.3157 35.3933 47.9806 35.3933 51.2679C35.3933 54.5552 38.397 57.2201 42.1022 57.2201Z" fill="#FFC9B0"/>
<path d="M42.1021 57.8742C38.0528 57.8742 34.7644 54.9078 34.7644 51.2678C34.7644 47.6279 38.0528 44.6809 42.1021 44.6809C46.1514 44.6809 49.4335 47.6408 49.4335 51.2808C49.4335 54.9208 46.1451 57.8742 42.1021 57.8742ZM42.1021 45.9633C38.7508 45.9633 36.0219 48.3468 36.0219 51.2678C36.0219 54.1889 38.7508 56.5788 42.1021 56.5788C45.4534 56.5788 48.176 54.1954 48.176 51.2678C48.176 48.3403 45.4723 45.9763 42.1021 45.9763V45.9633Z" fill="#093F68"/>
<path d="M77.9669 57.2201C81.6721 57.2201 84.6758 54.5552 84.6758 51.2679C84.6758 47.9806 81.6721 45.3157 77.9669 45.3157C74.2616 45.3157 71.2579 47.9806 71.2579 51.2679C71.2579 54.5552 74.2616 57.2201 77.9669 57.2201Z" fill="#FFC9B0"/>
<path d="M77.967 57.8742C73.9177 57.8742 70.6293 54.9078 70.6293 51.2678C70.6293 47.6279 73.9177 44.6809 77.967 44.6809C82.0162 44.6809 85.2984 47.6408 85.2984 51.2808C85.2984 54.9208 82.0099 57.8742 77.967 57.8742ZM77.967 45.9633C74.6094 45.9633 71.8868 48.3468 71.8868 51.2678C71.8868 54.1889 74.6094 56.5788 77.967 56.5788C81.3246 56.5788 84.0409 54.1954 84.0409 51.2678C84.0409 48.3403 81.312 45.9763 77.967 45.9763V45.9633Z" fill="#093F68"/>
<path d="M50.6658 48.7354C51.7007 48.7354 52.5396 47.8713 52.5396 46.8053C52.5396 45.7394 51.7007 44.8752 50.6658 44.8752C49.631 44.8752 48.7921 45.7394 48.7921 46.8053C48.7921 47.8713 49.631 48.7354 50.6658 48.7354Z" fill="#093F68"/>
<path d="M69.988 48.7354C71.0228 48.7354 71.8617 47.8713 71.8617 46.8053C71.8617 45.7394 71.0228 44.8752 69.988 44.8752C68.9532 44.8752 68.1143 45.7394 68.1143 46.8053C68.1143 47.8713 68.9532 48.7354 69.988 48.7354Z" fill="#093F68"/>
<path d="M67.41 56.1191C67.3539 58.0965 66.552 59.9736 65.1743 61.3518C63.7967 62.7301 61.9519 63.501 60.0314 63.501C58.111 63.501 56.2661 62.7301 54.8885 61.3518C53.5108 59.9736 52.7089 58.0965 52.6528 56.1191H67.41Z" fill="#E2E6F5"/>
<path d="M60.0347 64.3641C57.9117 64.3624 55.8762 63.4934 54.3744 61.9477C52.8727 60.402 52.0275 58.3059 52.0242 56.1191C52.0242 55.9473 52.0904 55.7826 52.2083 55.6611C52.3262 55.5397 52.4862 55.4714 52.6529 55.4714H67.4101C67.5768 55.4714 67.7368 55.5397 67.8547 55.6611C67.9726 55.7826 68.0388 55.9473 68.0388 56.1191C68.0372 58.3053 67.1933 60.4015 65.6926 61.9473C64.1919 63.4932 62.157 64.3624 60.0347 64.3641ZM53.3069 56.7668C53.4609 58.4943 54.2359 60.1002 55.48 61.2694C56.7241 62.4386 58.3474 63.0868 60.0315 63.0868C61.7156 63.0868 63.3389 62.4386 64.583 61.2694C65.8271 60.1002 66.6022 58.4943 66.7562 56.7668H53.3069Z" fill="#093F68"/>
<path d="M59.9341 53.9363C59.3211 53.9361 58.7092 53.8842 58.1044 53.7808C57.9414 53.7508 57.7965 53.6557 57.7011 53.5162C57.6058 53.3768 57.5677 53.2042 57.5951 53.036C57.6088 52.9516 57.6386 52.8709 57.6827 52.7984C57.7269 52.7259 57.7845 52.6632 57.8523 52.6138C57.9201 52.5645 57.9968 52.5294 58.0778 52.5107C58.1589 52.492 58.2427 52.49 58.3245 52.5049C59.2264 52.6658 60.1474 52.6789 61.0533 52.5437C61.1351 51.9544 60.4246 49.953 59.4751 48.0423C59.4022 47.8908 59.3897 47.7159 59.4403 47.555C59.4909 47.3941 59.6006 47.2599 59.746 47.1813C59.8913 47.1026 60.0608 47.0856 60.2182 47.134C60.3755 47.1823 60.5083 47.2922 60.588 47.44C61.2482 48.7354 62.7259 51.9025 62.1788 53.1526C62.1181 53.3104 62.0221 53.4513 61.8986 53.5638C61.7752 53.6763 61.6278 53.7573 61.4683 53.8003C60.9639 53.9076 60.4489 53.9532 59.9341 53.9363Z" fill="#093F68"/>
<path d="M45.5855 41.1122C45.4204 41.1212 45.2552 41.0965 45.0993 41.0396C44.9434 40.9828 44.7999 40.8949 44.677 40.7809C44.4288 40.5507 44.2795 40.2284 44.262 39.8849C44.2445 39.5413 44.3602 39.2047 44.5836 38.949C44.8071 38.6933 45.12 38.5395 45.4535 38.5215L54.338 37.5564C54.6715 37.5204 55.0052 37.6222 55.2658 37.8397C55.5264 38.0571 55.6925 38.3722 55.7275 38.7158C55.7626 39.0593 55.6637 39.4032 55.4526 39.6716C55.2415 39.94 54.9356 40.1111 54.602 40.1472L45.7176 41.1057L45.5855 41.1122Z" fill="#093F68"/>
<path d="M76.0805 41.9672C76.0012 41.9768 75.921 41.9768 75.8416 41.9672L67.0389 40.2573C66.7112 40.1929 66.4218 39.9971 66.2343 39.7128C66.0468 39.4286 65.9766 39.0793 66.0391 38.7418C66.1017 38.4042 66.2918 38.1061 66.5678 37.913C66.8437 37.7198 67.1828 37.6475 67.5105 37.7119L76.3132 39.4218C76.6467 39.4536 76.9543 39.6206 77.1683 39.886C77.3823 40.1514 77.4852 40.4935 77.4544 40.837C77.4235 41.1806 77.2615 41.4974 77.0038 41.7179C76.7462 41.9383 76.4141 42.0443 76.0805 42.0126V41.9672Z" fill="#093F68"/>
<path d="M60.0345 69.7463C55.1239 69.7446 50.415 67.7345 46.9427 64.1577C43.4704 60.581 41.519 55.7304 41.5173 50.6721V31.6043C46.2296 27.7068 51.8791 25.1977 57.8652 24.3438C74.3955 30.6846 78.5454 31.6043 78.5454 31.6043V50.6721C78.5454 55.7298 76.5953 60.5804 73.124 64.1573C69.6528 67.7343 64.9445 69.7446 60.0345 69.7463Z" fill="#FFC9B0"/>
<path d="M60.0346 70.3939C54.9583 70.3888 50.0914 68.3093 46.5019 64.6118C42.9124 60.9144 40.8937 55.901 40.8887 50.672V31.6042C40.8889 31.5138 40.9074 31.4245 40.9432 31.3419C40.9789 31.2594 41.031 31.1855 41.0962 31.1249C41.354 30.8853 47.5159 25.2504 57.7836 23.7025C57.8867 23.675 57.9949 23.675 58.098 23.7025C74.339 29.9396 78.6335 30.9306 78.6775 30.9371C78.8205 30.9687 78.9483 31.0506 79.039 31.1689C79.1297 31.2871 79.1775 31.4341 79.1742 31.5848V50.6526C79.1742 55.8838 77.1586 60.9012 73.5699 64.6027C69.9812 68.3041 65.1131 70.3871 60.0346 70.3939ZM42.1462 31.9021V50.6849C42.1016 53.1334 42.5313 55.5664 43.4101 57.8419C44.2889 60.1173 45.5992 62.1895 47.2644 63.9372C48.9296 65.685 50.9164 67.0734 53.1085 68.0211C55.3006 68.9688 57.6541 69.457 60.0314 69.457C62.4088 69.457 64.7623 68.9688 66.9544 68.0211C69.1465 67.0734 71.1333 65.685 72.7985 63.9372C74.4637 62.1895 75.774 60.1173 76.6528 57.8419C77.5316 55.5664 77.9613 53.1334 77.9167 50.6849V32.1094C76.4202 31.7078 71.2329 30.1663 57.7962 24.9849C52.0884 25.8643 46.6978 28.247 42.1462 31.9021Z" fill="#093F68"/>
<path d="M54.2122 45.9763H47.126C46.1526 45.9746 45.2196 45.5755 44.5313 44.8666C43.8431 44.1576 43.4556 43.1965 43.454 42.1938V39.1951C43.4556 38.1924 43.8431 37.2313 44.5313 36.5223C45.2196 35.8134 46.1526 35.4143 47.126 35.4126H54.2122C55.1849 35.4143 56.1173 35.8136 56.8046 36.5227C57.4919 37.2319 57.8779 38.193 57.8779 39.1951V42.1938C57.8779 43.1959 57.4919 44.157 56.8046 44.8662C56.1173 45.5753 55.1849 45.9746 54.2122 45.9763ZM47.126 36.708C46.4856 36.708 45.8715 36.97 45.4187 37.4364C44.9659 37.9028 44.7115 38.5354 44.7115 39.1951V42.1938C44.7115 42.8535 44.9659 43.4861 45.4187 43.9525C45.8715 44.4189 46.4856 44.6809 47.126 44.6809H54.2122C54.8514 44.6792 55.4639 44.4164 55.9154 43.9502C56.3668 43.484 56.6203 42.8523 56.6203 42.1938V39.1951C56.6203 38.5366 56.3668 37.9049 55.9154 37.4387C55.4639 36.9725 54.8514 36.7097 54.2122 36.708H47.126Z" fill="#093F68"/>
<path d="M73.0375 45.9763H65.9513C64.9779 45.9746 64.0449 45.5755 63.3566 44.8666C62.6684 44.1576 62.281 43.1965 62.2793 42.1938V39.1951C62.281 38.1924 62.6684 37.2313 63.3566 36.5223C64.0449 35.8134 64.9779 35.4143 65.9513 35.4126H73.0375C74.0103 35.4143 74.9426 35.8136 75.6299 36.5227C76.3172 37.2319 76.7032 38.193 76.7032 39.1951V42.1938C76.7032 43.1959 76.3172 44.157 75.6299 44.8662C74.9426 45.5753 74.0103 45.9746 73.0375 45.9763ZM65.9513 36.708C65.3109 36.708 64.6968 36.97 64.244 37.4364C63.7912 37.9028 63.5368 38.5354 63.5368 39.1951V42.1938C63.5368 42.8535 63.7912 43.4861 64.244 43.9525C64.6968 44.4189 65.3109 44.6809 65.9513 44.6809H73.0375C73.6767 44.6792 74.2893 44.4164 74.7407 43.9502C75.1921 43.484 75.4457 42.8523 75.4457 42.1938V39.1951C75.4457 38.5366 75.1921 37.9049 74.7407 37.4387C74.2893 36.9725 73.6767 36.7097 73.0375 36.708H65.9513Z" fill="#093F68"/>
<path d="M62.908 40.5811C62.7661 40.5802 62.6288 40.53 62.5181 40.4386C60.5375 38.8388 58.0853 40.4386 57.9784 40.4775C57.9087 40.523 57.8309 40.5539 57.7495 40.5684C57.6681 40.583 57.5848 40.5809 57.5042 40.5622C57.4236 40.5436 57.3474 40.5088 57.2799 40.4598C57.2124 40.4108 57.1549 40.3486 57.1107 40.2767C57.0235 40.1321 56.995 39.9579 57.0315 39.7918C57.068 39.6258 57.1665 39.4812 57.3057 39.3894C57.4377 39.2987 60.613 37.252 63.2978 39.3894C63.3629 39.4423 63.4171 39.5081 63.4574 39.5827C63.4977 39.6574 63.5233 39.7395 63.5326 39.8244C63.542 39.9093 63.5349 39.9952 63.5119 40.0773C63.4888 40.1594 63.4503 40.2359 63.3984 40.3026C63.3431 40.3849 63.27 40.4529 63.1849 40.5012C63.0999 40.5495 63.005 40.5769 62.908 40.5811Z" fill="#093F68"/>
<path d="M39.3104 45.9762C39.1852 45.9757 39.0631 45.9368 38.9596 45.8644C38.8561 45.7919 38.7759 45.6893 38.7293 45.5697C38.6827 45.4501 38.6718 45.3189 38.698 45.1928C38.7243 45.0668 38.7864 44.9517 38.8765 44.8622L43.6488 40.2119C43.7719 40.1083 43.9285 40.0565 44.0871 40.067C44.2458 40.0775 44.3946 40.1495 44.5038 40.2685C44.6129 40.3876 44.6743 40.5447 44.6755 40.7085C44.6767 40.8722 44.6177 41.0303 44.5102 41.151L39.7379 45.8014C39.622 45.9132 39.4692 45.9757 39.3104 45.9762Z" fill="#093F68"/>
<path d="M80.9409 45.9764C80.7799 45.9775 80.6246 45.9149 80.5071 45.8015L75.7348 41.1511C75.6679 41.0948 75.613 41.0249 75.5735 40.9458C75.534 40.8667 75.5108 40.78 75.5052 40.6912C75.4997 40.6024 75.5119 40.5134 75.5413 40.4298C75.5706 40.3461 75.6163 40.2695 75.6756 40.2048C75.735 40.1402 75.8066 40.0888 75.886 40.0539C75.9655 40.019 76.051 40.0013 76.1374 40.002C76.2238 40.0026 76.3091 40.0216 76.388 40.0578C76.467 40.0939 76.5378 40.1464 76.5962 40.212L81.3685 44.8624C81.4856 44.9837 81.5513 45.1479 81.5513 45.319C81.5513 45.4901 81.4856 45.6542 81.3685 45.7756C81.2565 45.8969 81.1033 45.9689 80.9409 45.9764Z" fill="#093F68"/>
<path d="M61.4117 52.181C60.857 52.1799 60.305 52.1015 59.7706 51.9479C59.6184 51.8939 59.4921 51.7817 59.4177 51.6346C59.3433 51.4875 59.3266 51.3166 59.3709 51.1571C59.4153 50.9977 59.5173 50.8618 59.656 50.7776C59.7947 50.6933 59.9595 50.6671 60.1165 50.7043C60.2296 50.7043 62.9522 51.501 63.5495 49.6616C64.0337 48.1525 61.33 44.7456 59.5128 42.9516C59.453 42.8929 59.4049 42.8226 59.3714 42.7448C59.3379 42.667 59.3196 42.5831 59.3176 42.498C59.3155 42.4129 59.3298 42.3282 59.3595 42.2488C59.3892 42.1694 59.4339 42.0967 59.4908 42.0351C59.5478 41.9734 59.616 41.9239 59.6916 41.8894C59.7671 41.8549 59.8485 41.836 59.9311 41.8339C60.0138 41.8318 60.096 41.8465 60.1731 41.8771C60.2502 41.9078 60.3207 41.9537 60.3805 42.0124C60.9213 42.5435 65.637 47.2975 64.7379 50.0696C64.2097 51.7147 62.7321 52.181 61.4117 52.181Z" fill="#093F68"/>
<path d="M51.2822 41.9152C52.1018 41.9152 52.7661 41.2309 52.7661 40.3867C52.7661 39.5425 52.1018 38.8582 51.2822 38.8582C50.4627 38.8582 49.7983 39.5425 49.7983 40.3867C49.7983 41.2309 50.4627 41.9152 51.2822 41.9152Z" fill="#093F68"/>
<path d="M69.9879 41.9152C70.8074 41.9152 71.4718 41.2309 71.4718 40.3867C71.4718 39.5425 70.8074 38.8582 69.9879 38.8582C69.1684 38.8582 68.504 39.5425 68.504 40.3867C68.504 41.2309 69.1684 41.9152 69.9879 41.9152Z" fill="#093F68"/>
<path d="M45.5918 35.0175C45.3273 35.0166 45.0698 34.9299 44.856 34.7696C44.6421 34.6093 44.4828 34.3836 44.4006 34.1246C44.3184 33.8657 44.3176 33.5866 44.3983 33.3272C44.4789 33.0677 44.6369 32.841 44.8499 32.6794C45.0762 32.511 50.5088 28.5601 55.891 31.5719C56.1845 31.7351 56.403 32.0117 56.4985 32.3408C56.594 32.67 56.5587 33.0248 56.4003 33.3271C56.2419 33.6294 55.9733 33.8545 55.6538 33.9529C55.3342 34.0513 54.9898 34.0149 54.6963 33.8517C50.6848 31.6172 46.3652 34.7455 46.3212 34.7779C46.1081 34.9339 45.8532 35.0177 45.5918 35.0175Z" fill="#093F68"/>
<path d="M73.2638 35.024C73.0018 35.0223 72.7468 34.9362 72.5345 34.7779C72.459 34.7261 68.1331 31.6237 64.1593 33.8517C64.014 33.9325 63.8546 33.983 63.6904 34.0004C63.5261 34.0178 63.3601 34.0016 63.2019 33.9529C63.0436 33.9042 62.8963 33.8239 62.7682 33.7165C62.6401 33.6091 62.5338 33.4768 62.4554 33.3271C62.3769 33.1774 62.3279 33.0132 62.311 32.844C62.2942 32.6748 62.3098 32.5038 62.3571 32.3408C62.4044 32.1778 62.4824 32.026 62.5866 31.8941C62.6909 31.7622 62.8193 31.6527 62.9647 31.5719C68.3783 28.5601 73.7794 32.511 74.0058 32.6794C74.2214 32.8402 74.3819 33.0672 74.4642 33.3279C74.5465 33.5886 74.5464 33.8695 74.464 34.1301C74.3815 34.3908 74.2209 34.6177 74.0052 34.7783C73.7895 34.939 73.53 35.025 73.2638 35.024Z" fill="#093F68"/>
<path d="M64.9012 54.9143H57.2491C57.2491 54.9143 58.2237 66.9029 61.0783 65.9249C63.9329 64.9469 64.9012 54.9143 64.9012 54.9143Z" fill="#093F68"/>
<path d="M60.7451 66.6114C60.4179 66.6096 60.0986 66.5082 59.8271 66.32C57.5321 64.7655 56.7588 56.6047 56.6267 54.9726C56.6194 54.8833 56.6302 54.7935 56.6584 54.7088C56.6865 54.6241 56.7314 54.5463 56.7902 54.4803C56.8483 54.414 56.919 54.3608 56.998 54.3241C57.077 54.2873 57.1625 54.2677 57.2492 54.2666H64.9013C64.989 54.2668 65.0757 54.2859 65.1559 54.3227C65.236 54.3596 65.3078 54.4132 65.3666 54.4803C65.4251 54.5476 65.4693 54.6267 65.4963 54.7126C65.5234 54.7985 65.5327 54.8892 65.5237 54.979C64.5617 64.8821 61.8203 66.3265 61.2796 66.5143C61.108 66.5774 60.9273 66.6102 60.7451 66.6114ZM57.9408 55.562C58.2867 59.1177 59.1984 64.3575 60.5125 65.2319C60.5618 65.2736 60.621 65.3009 60.684 65.3112C60.747 65.3214 60.8115 65.3142 60.8709 65.2902C62.5623 64.7008 63.7569 59.2861 64.197 55.5749L57.9408 55.562Z" fill="#093F68"/>
<path d="M119.371 120H0.628766C0.462007 120 0.302077 119.932 0.184161 119.81C0.0662443 119.689 0 119.524 0 119.352C0 119.18 0.0662443 119.016 0.184161 118.894C0.302077 118.773 0.462007 118.705 0.628766 118.705H119.371C119.538 118.705 119.698 118.773 119.816 118.894C119.934 119.016 120 119.18 120 119.352C120 119.524 119.934 119.689 119.816 119.81C119.698 119.932 119.538 120 119.371 120Z" fill="#093F68"/>
<path d="M60.6006 104.281C63.0453 104.281 65.0271 102.741 65.0271 100.842C65.0271 98.9421 63.0453 97.4023 60.6006 97.4023C58.1559 97.4023 56.1741 98.9421 56.1741 100.842C56.1741 102.741 58.1559 104.281 60.6006 104.281Z" fill="#DB3C2B"/>
<path d="M60.6004 104.916C57.8087 104.916 55.5703 103.083 55.5703 100.835C55.5703 98.5877 57.8339 96.7483 60.6004 96.7483C63.367 96.7483 65.6306 98.5812 65.6306 100.835C65.6306 103.089 63.3859 104.916 60.6004 104.916ZM60.6004 98.0437C58.5066 98.0437 56.8278 99.2937 56.8278 100.835C56.8278 102.377 58.5318 103.62 60.6004 103.62C62.6691 103.62 64.373 102.37 64.373 100.835C64.373 99.3002 62.6942 98.0501 60.6004 98.0501V98.0437Z" fill="#093F68"/>
<path d="M60.6005 98.0502H60.4936C60.3294 98.0217 60.183 97.9272 60.0863 97.7876C59.9896 97.648 59.9507 97.4746 59.978 97.3054C60.0346 96.9751 60.5565 94.1188 62.4931 93.8856C62.5756 93.8758 62.6593 93.8829 62.7392 93.9064C62.8191 93.9299 62.8937 93.9694 62.9588 94.0227C63.0239 94.0759 63.0782 94.1418 63.1186 94.2166C63.159 94.2915 63.1846 94.3738 63.1941 94.4588C63.2036 94.5439 63.1968 94.63 63.1739 94.7123C63.1511 94.7947 63.1128 94.8716 63.0611 94.9386C63.0094 95.0057 62.9454 95.0616 62.8728 95.1032C62.8001 95.1448 62.7202 95.1712 62.6377 95.181C61.858 95.2781 61.3801 96.8067 61.2355 97.5321C61.2059 97.6817 61.126 97.8157 61.0098 97.9105C60.8936 98.0053 60.7486 98.0548 60.6005 98.0502Z" fill="#093F68"/>
<path d="M17.178 100.764H29.7974V113.892C29.7974 115.275 29.2641 116.601 28.3149 117.579C27.3656 118.557 26.0782 119.106 24.7358 119.106H22.2207C20.8783 119.106 19.5909 118.557 18.6417 117.579C17.6924 116.601 17.1592 115.275 17.1592 113.892V100.764H17.178Z" fill="#7C0B03"/>
<path d="M24.723 119.754H22.2079C20.7047 119.752 19.263 119.139 18.1971 118.047C17.1312 116.955 16.5275 115.473 16.5176 113.925V100.764C16.5176 100.592 16.5838 100.427 16.7017 100.306C16.8197 100.184 16.9796 100.116 17.1463 100.116H29.7657C29.9324 100.116 30.0924 100.184 30.2103 100.306C30.3282 100.427 30.3944 100.592 30.3944 100.764V113.892C30.3912 115.443 29.7932 116.929 28.7308 118.027C27.6684 119.125 26.2279 119.745 24.723 119.754ZM17.8066 101.412V113.892C17.8148 115.098 18.2855 116.251 19.1159 117.1C19.9464 117.95 21.0691 118.426 22.2394 118.426H24.7544C25.9252 118.426 27.0486 117.95 27.8801 117.101C28.7115 116.252 29.1836 115.098 29.1935 113.892V101.412H17.8066Z" fill="#093F68"/>
<path d="M17.1779 113.407H17.0458C15.6428 113.357 14.3132 112.749 13.3376 111.709C12.362 110.669 11.8167 109.279 11.8167 107.833C11.8167 106.387 12.362 104.998 13.3376 103.958C14.3132 102.918 15.6428 102.309 17.0458 102.26H17.1779C17.3447 102.26 17.5046 102.328 17.6225 102.45C17.7404 102.571 17.8067 102.736 17.8067 102.908V112.759C17.8067 112.931 17.7404 113.095 17.6225 113.217C17.5046 113.338 17.3447 113.407 17.1779 113.407ZM16.5491 103.62C15.5392 103.742 14.608 104.242 13.9322 105.025C13.2564 105.807 12.883 106.818 12.883 107.866C12.883 108.913 13.2564 109.924 13.9322 110.707C14.608 111.489 15.5392 111.989 16.5491 112.111V103.62Z" fill="#093F68"/>
<path d="M115.114 104.274V91.9099H90.9509V104.274H87.7631V111.878H90.5171V119.352H114.681V111.755H111.933V104.274H115.114Z" fill="#E2E6F5"/>
<path d="M114.681 120H90.5172C90.3504 120 90.1905 119.932 90.0726 119.81C89.9546 119.689 89.8884 119.524 89.8884 119.352V112.526H87.7632C87.5964 112.526 87.4365 112.458 87.3186 112.336C87.2006 112.215 87.1344 112.05 87.1344 111.878V104.268C87.1344 104.096 87.2006 103.931 87.3186 103.81C87.4365 103.688 87.5964 103.62 87.7632 103.62H90.3222V91.9101C90.3222 91.7384 90.3885 91.5736 90.5064 91.4522C90.6243 91.3307 90.7843 91.2625 90.951 91.2625H115.114C115.281 91.2625 115.441 91.3307 115.559 91.4522C115.677 91.5736 115.743 91.7384 115.743 91.9101V104.268C115.743 104.44 115.677 104.604 115.559 104.726C115.441 104.847 115.281 104.916 115.114 104.916H112.562V111.101H114.681C114.847 111.101 115.007 111.169 115.125 111.291C115.243 111.412 115.309 111.577 115.309 111.749V119.346C115.31 119.432 115.295 119.517 115.263 119.596C115.232 119.675 115.186 119.747 115.127 119.808C115.069 119.869 114.999 119.917 114.923 119.95C114.846 119.983 114.764 120 114.681 120ZM91.1459 118.705H114.052V112.403H111.933C111.766 112.403 111.606 112.335 111.488 112.213C111.37 112.092 111.304 111.927 111.304 111.755V104.268C111.304 104.096 111.37 103.931 111.488 103.81C111.606 103.688 111.766 103.62 111.933 103.62H114.486V92.5578H91.5798V104.268C91.5798 104.44 91.5135 104.604 91.3956 104.726C91.2777 104.847 91.1178 104.916 90.951 104.916H88.3919V111.224H90.5172C90.6839 111.224 90.8439 111.292 90.9618 111.414C91.0797 111.535 91.1459 111.7 91.1459 111.872V118.705Z" fill="#093F68"/>
<path d="M111.933 112.403H96.8928C96.726 112.403 96.5661 112.335 96.4482 112.213C96.3303 112.092 96.264 111.927 96.264 111.755C96.264 111.583 96.3303 111.419 96.4482 111.297C96.5661 111.176 96.726 111.107 96.8928 111.107H111.933C112.1 111.107 112.26 111.176 112.377 111.297C112.495 111.419 112.562 111.583 112.562 111.755C112.562 111.927 112.495 112.092 112.377 112.213C112.26 112.335 112.1 112.403 111.933 112.403Z" fill="#093F68"/>
<path d="M99.5463 104.915H90.951C90.7843 104.915 90.6243 104.847 90.5064 104.726C90.3885 104.604 90.3223 104.44 90.3223 104.268C90.3223 104.096 90.3885 103.931 90.5064 103.81C90.6243 103.688 90.7843 103.62 90.951 103.62H99.5463C99.713 103.62 99.8729 103.688 99.9909 103.81C100.109 103.931 100.175 104.096 100.175 104.268C100.175 104.44 100.109 104.604 99.9909 104.726C99.8729 104.847 99.713 104.915 99.5463 104.915Z" fill="#093F68"/>
<path d="M111.933 104.915H105.387C105.221 104.915 105.061 104.847 104.943 104.726C104.825 104.604 104.759 104.44 104.759 104.268C104.759 104.096 104.825 103.931 104.943 103.81C105.061 103.688 105.221 103.62 105.387 103.62H111.933C112.1 103.62 112.259 103.688 112.377 103.81C112.495 103.931 112.562 104.096 112.562 104.268C112.562 104.44 112.495 104.604 112.377 104.726C112.259 104.847 112.1 104.915 111.933 104.915Z" fill="#093F68"/>
<path d="M115.114 99.8181H94.5161C94.3493 99.8181 94.1894 99.7498 94.0715 99.6284C93.9536 99.5069 93.8873 99.3422 93.8873 99.1704C93.8873 98.9986 93.9536 98.8339 94.0715 98.7124C94.1894 98.5909 94.3493 98.5227 94.5161 98.5227H115.127C115.294 98.5227 115.454 98.5909 115.572 98.7124C115.69 98.8339 115.756 98.9986 115.756 99.1704C115.756 99.3422 115.69 99.5069 115.572 99.6284C115.454 99.7498 115.294 99.8181 115.127 99.8181H115.114Z" fill="#093F68"/>
<path d="M107.249 95.9904H91.3158C91.149 95.9904 90.9891 95.9222 90.8712 95.8007C90.7533 95.6793 90.687 95.5145 90.687 95.3428C90.687 95.171 90.7533 95.0062 90.8712 94.8848C90.9891 94.7633 91.149 94.6951 91.3158 94.6951H107.249C107.415 94.6951 107.575 94.7633 107.693 94.8848C107.811 95.0062 107.877 95.171 107.877 95.3428C107.877 95.5145 107.811 95.6793 107.693 95.8007C107.575 95.9222 107.415 95.9904 107.249 95.9904Z" fill="#093F68"/>
<path d="M106.626 107.843H88.6561C88.4894 107.843 88.3294 107.775 88.2115 107.653C88.0936 107.532 88.0273 107.367 88.0273 107.195C88.0273 107.024 88.0936 106.859 88.2115 106.737C88.3294 106.616 88.4894 106.548 88.6561 106.548H106.626C106.793 106.548 106.953 106.616 107.071 106.737C107.189 106.859 107.255 107.024 107.255 107.195C107.255 107.367 107.189 107.532 107.071 107.653C106.953 107.775 106.793 107.843 106.626 107.843Z" fill="#093F68"/>
<path d="M109.638 115.389H90.5171C90.3503 115.389 90.1904 115.32 90.0725 115.199C89.9545 115.077 89.8883 114.913 89.8883 114.741C89.8883 114.569 89.9545 114.404 90.0725 114.283C90.1904 114.161 90.3503 114.093 90.5171 114.093H109.638C109.805 114.093 109.965 114.161 110.082 114.283C110.2 114.404 110.267 114.569 110.267 114.741C110.267 114.913 110.2 115.077 110.082 115.199C109.965 115.32 109.805 115.389 109.638 115.389Z" fill="#093F68"/>
<path d="M12.7766 72.9006C12.6098 72.9006 12.4499 72.8323 12.332 72.7109C12.2141 72.5894 12.1478 72.4247 12.1478 72.2529V69.9407C12.1478 69.7689 12.2141 69.6041 12.332 69.4827C12.4499 69.3612 12.6098 69.293 12.7766 69.293C12.9434 69.293 13.1033 69.3612 13.2212 69.4827C13.3391 69.6041 13.4054 69.7689 13.4054 69.9407V72.2464C13.4062 72.332 13.3905 72.4169 13.3593 72.4963C13.3281 72.5756 13.2819 72.6477 13.2234 72.7086C13.165 72.7694 13.0954 72.8177 13.0187 72.8507C12.942 72.8836 12.8597 72.9006 12.7766 72.9006Z" fill="#FFD200"/>
<path d="M12.7766 77.9008C12.6098 77.9008 12.4499 77.8325 12.332 77.7111C12.2141 77.5896 12.1478 77.4249 12.1478 77.2531V74.9538C12.1478 74.7821 12.2141 74.6173 12.332 74.4959C12.4499 74.3744 12.6098 74.3062 12.7766 74.3062C12.9434 74.3062 13.1033 74.3744 13.2212 74.4959C13.3391 74.6173 13.4054 74.7821 13.4054 74.9538V77.2531C13.4054 77.4249 13.3391 77.5896 13.2212 77.7111C13.1033 77.8325 12.9434 77.9008 12.7766 77.9008Z" fill="#FFD200"/>
<path d="M16.3291 74.2475H14.0907C13.9239 74.2475 13.764 74.1793 13.6461 74.0578C13.5282 73.9363 13.4619 73.7716 13.4619 73.5998C13.4619 73.4281 13.5282 73.2633 13.6461 73.1418C13.764 73.0204 13.9239 72.9521 14.0907 72.9521H16.3291C16.4958 72.9521 16.6558 73.0204 16.7737 73.1418C16.8916 73.2633 16.9579 73.4281 16.9579 73.5998C16.9579 73.7716 16.8916 73.9363 16.7737 74.0578C16.6558 74.1793 16.4958 74.2475 16.3291 74.2475Z" fill="#FFD200"/>
<path d="M11.4687 74.2475H9.23655C9.0698 74.2475 8.90987 74.1793 8.79195 74.0578C8.67403 73.9363 8.60779 73.7716 8.60779 73.5998C8.60779 73.4281 8.67403 73.2633 8.79195 73.1418C8.90987 73.0204 9.0698 72.9521 9.23655 72.9521H11.4687C11.6354 72.9521 11.7954 73.0204 11.9133 73.1418C12.0312 73.2633 12.0974 73.4281 12.0974 73.5998C12.0974 73.7716 12.0312 73.9363 11.9133 74.0578C11.7954 74.1793 11.6354 74.2475 11.4687 74.2475Z" fill="#FFD200"/>
<path d="M104.23 74.2477C104.064 74.2477 103.904 74.1795 103.786 74.058C103.668 73.9365 103.602 73.7718 103.602 73.6V71.3008C103.602 71.129 103.668 70.9642 103.786 70.8428C103.904 70.7213 104.064 70.6531 104.23 70.6531C104.397 70.6531 104.557 70.7213 104.675 70.8428C104.793 70.9642 104.859 71.129 104.859 71.3008V73.6C104.859 73.7718 104.793 73.9365 104.675 74.058C104.557 74.1795 104.397 74.2477 104.23 74.2477Z" fill="#FFD200"/>
<path d="M104.23 79.2543C104.064 79.2543 103.904 79.1861 103.786 79.0646C103.668 78.9431 103.602 78.7784 103.602 78.6066V76.3074C103.602 76.1356 103.668 75.9708 103.786 75.8494C103.904 75.7279 104.064 75.6597 104.23 75.6597C104.397 75.6597 104.557 75.7279 104.675 75.8494C104.793 75.9708 104.859 76.1356 104.859 76.3074V78.6066C104.859 78.7784 104.793 78.9431 104.675 79.0646C104.557 79.1861 104.397 79.2543 104.23 79.2543Z" fill="#FFD200"/>
<path d="M107.783 75.6015H105.545C105.378 75.6015 105.218 75.5333 105.1 75.4118C104.982 75.2904 104.916 75.1256 104.916 74.9538C104.916 74.7821 104.982 74.6173 105.1 74.4959C105.218 74.3744 105.378 74.3062 105.545 74.3062H107.783C107.95 74.3062 108.11 74.3744 108.228 74.4959C108.345 74.6173 108.412 74.7821 108.412 74.9538C108.412 75.1256 108.345 75.2904 108.228 75.4118C108.11 75.5333 107.95 75.6015 107.783 75.6015Z" fill="#FFD200"/>
<path d="M102.923 75.6015H100.684C100.518 75.6015 100.358 75.5333 100.24 75.4118C100.122 75.2904 100.056 75.1256 100.056 74.9538C100.056 74.7821 100.122 74.6173 100.24 74.4959C100.358 74.3744 100.518 74.3062 100.684 74.3062H102.923C103.089 74.3062 103.249 74.3744 103.367 74.4959C103.485 74.6173 103.551 74.7821 103.551 74.9538C103.551 75.1256 103.485 75.2904 103.367 75.4118C103.249 75.5333 103.089 75.6015 102.923 75.6015Z" fill="#FFD200"/>
<path d="M110.235 53.2887C110.069 53.2887 109.909 53.2205 109.791 53.099C109.673 52.9775 109.607 52.8128 109.607 52.641V50.698C109.607 50.5262 109.673 50.3615 109.791 50.24C109.909 50.1185 110.069 50.0503 110.235 50.0503C110.402 50.0503 110.562 50.1185 110.68 50.24C110.798 50.3615 110.864 50.5262 110.864 50.698V52.641C110.864 52.8128 110.798 52.9775 110.68 53.099C110.562 53.2205 110.402 53.2887 110.235 53.2887Z" fill="#FFD200"/>
<path d="M110.235 57.505C110.069 57.505 109.909 57.4368 109.791 57.3153C109.673 57.1939 109.607 57.0291 109.607 56.8573V54.9143C109.607 54.7425 109.673 54.5778 109.791 54.4563C109.909 54.3348 110.069 54.2666 110.235 54.2666C110.402 54.2666 110.562 54.3348 110.68 54.4563C110.798 54.5778 110.864 54.7425 110.864 54.9143V56.8573C110.864 57.0291 110.798 57.1939 110.68 57.3153C110.562 57.4368 110.402 57.505 110.235 57.505Z" fill="#FFD200"/>
<path d="M113.197 54.4287H111.311C111.144 54.4287 110.984 54.3604 110.866 54.239C110.748 54.1175 110.682 53.9528 110.682 53.781C110.682 53.6092 110.748 53.4445 110.866 53.323C110.984 53.2015 111.144 53.1333 111.311 53.1333H113.197C113.364 53.1333 113.524 53.2015 113.641 53.323C113.759 53.4445 113.826 53.6092 113.826 53.781C113.826 53.9528 113.759 54.1175 113.641 54.239C113.524 54.3604 113.364 54.4287 113.197 54.4287Z" fill="#FFD200"/>
<path d="M109.103 54.4287H107.217C107.05 54.4287 106.89 54.3604 106.773 54.239C106.655 54.1175 106.588 53.9528 106.588 53.781C106.588 53.6092 106.655 53.4445 106.773 53.323C106.89 53.2015 107.05 53.1333 107.217 53.1333H109.103C109.27 53.1333 109.43 53.2015 109.548 53.323C109.666 53.4445 109.732 53.6092 109.732 53.781C109.732 53.9528 109.666 54.1175 109.548 54.239C109.43 54.3604 109.27 54.4287 109.103 54.4287Z" fill="#FFD200"/>
</svg>
