<svg width="120" height="120" viewBox="0 0 120 120" fill="none" xmlns="http://www.w3.org/2000/svg">
<path d="M50.6309 28.7188C47.5462 31.2807 48.7498 37.9417 48.7498 37.9417L51.8921 40.2167C53.0292 40.9561 54.3639 41.5253 55.8169 41.8902C57.2699 42.2551 58.8113 42.4084 60.3494 42.3408C61.8874 42.2733 63.3906 41.9863 64.7693 41.497C66.148 41.0076 67.3741 40.326 68.3745 39.4927C69.3748 38.6594 70.1289 37.6914 70.5919 36.6465C71.0549 35.6016 71.2173 34.5011 71.0694 33.4106C70.9215 32.3202 70.4664 31.262 69.731 30.2993C68.9957 29.3365 67.9953 28.4888 66.7894 27.8067L63.1426 25.9519C63.1426 25.9519 53.7011 26.1466 50.6309 28.7188Z" fill="#FFD200"/>
<path d="M59.3223 42.4303C56.5053 42.4326 53.7801 41.7184 51.6394 40.4166L48.4683 38.1262C48.4111 38.0867 48.3753 38.0341 48.3674 37.9777C48.3169 37.701 47.171 31.1732 50.3277 28.5498C53.4845 25.9264 62.7313 25.7163 63.1277 25.706C63.2062 25.7035 63.2833 25.7217 63.3439 25.7573L66.9908 27.6121C68.838 28.727 70.1591 30.2184 70.7751 31.8845C71.3911 33.5507 71.2724 35.3111 70.435 36.9277C69.5976 38.5443 68.082 39.939 66.0932 40.9232C64.1043 41.9073 61.7383 42.4334 59.3151 42.4303H59.3223ZM49.0737 37.8188L52.1295 40.0323C54.3869 41.3107 57.255 41.9151 60.1277 41.7178C63.0005 41.5205 65.6528 40.537 67.5242 38.975C69.3957 37.413 70.3397 35.395 70.1567 33.3473C69.9738 31.2996 68.6783 29.3826 66.5439 28.0015L63.0196 26.2133C61.9241 26.244 53.6502 26.572 50.8683 28.8726C48.0863 31.1732 48.9511 37.0554 49.0737 37.8291V37.8188Z" fill="#FFD200"/>
<path d="M57.1172 40.8314C63.454 40.8314 68.5911 37.1793 68.5911 32.6742C68.5911 28.1692 63.454 24.5171 57.1172 24.5171C50.7803 24.5171 45.6433 28.1692 45.6433 32.6742C45.6433 37.1793 50.7803 40.8314 57.1172 40.8314Z" fill="#FFC9B0"/>
<path d="M57.1172 41.0673C54.0314 40.9795 51.1172 40.035 49 38.4367C46.8828 36.8383 45.7316 34.7135 45.7934 32.5185C45.8552 30.3234 47.1251 28.2331 49.3305 26.6962C51.5359 25.1594 54.501 24.2986 57.5892 24.2986C60.6774 24.2986 63.6425 25.1594 65.8479 26.6962C68.0534 28.2331 69.3233 30.3234 69.3851 32.5185C69.4469 34.7135 68.2956 36.8383 66.1784 38.4367C64.0613 40.035 61.147 40.9795 58.0613 41.0673C57.7226 41.0571 57.4127 41.0673 57.1172 41.0673ZM57.1172 24.7325C54.5004 24.7282 51.9651 25.3788 49.9554 26.5702C47.9458 27.7616 46.59 29.4179 46.1258 31.2487C45.6616 33.0795 46.1185 34.968 47.4166 36.5833C48.7146 38.1986 50.7708 39.4376 53.2249 40.0832C55.6791 40.7287 58.3745 40.7396 60.8388 40.114C63.3031 39.4883 65.379 38.2661 66.7028 36.6614C68.0266 35.0567 68.5137 33.1719 68.0788 31.3375C67.644 29.5031 66.3148 27.8359 64.3244 26.6283C62.3155 25.4072 59.7602 24.7351 57.1172 24.7325Z" fill="#FFD200"/>
<path d="M60.375 13.9979L63.2579 16.3498C65.0957 17.9792 70.9263 16.8314 76.2813 13.7879C81.6362 10.7443 84.5047 6.93728 82.6524 5.3079L79.7695 2.95605L60.375 13.9979Z" fill="#FFD200"/>
<path d="M65.982 17.3489C65.4269 17.3839 64.8679 17.3288 64.3473 17.1877C63.8266 17.0465 63.3579 16.8231 62.9766 16.5342L60.0937 14.1926C60.0559 14.1632 60.0279 14.1281 60.0116 14.09C59.9954 14.0519 59.9914 14.0116 60 13.9723C60.0114 13.9036 60.0607 13.841 60.1369 13.7981L79.5315 2.75618C79.604 2.71468 79.6962 2.6947 79.7889 2.70043C79.8816 2.70616 79.9676 2.73715 80.0288 2.78693L82.9117 5.13877C84.9153 6.91674 82.0901 10.775 76.4973 13.9825C72.7135 16.1448 68.7568 17.3489 65.982 17.3489ZM60.8937 14.0286L63.5315 16.1807C65.2252 17.6819 70.955 16.4881 76.0577 13.5829C81.1604 10.6776 84.0505 6.95774 82.3424 5.4667L79.6973 3.30956L60.8937 14.0286Z" fill="#FFD200"/>
<path d="M73.4043 11.4329C78.7606 8.38323 81.6121 4.58776 79.7733 2.95547C77.9345 1.32318 72.1018 2.47217 66.7455 5.52182C61.3892 8.57147 58.5377 12.3669 60.3765 13.9992C62.2153 15.6315 68.048 14.4825 73.4043 11.4329Z" fill="#FFC9B0"/>
<path d="M63.0993 14.9971C62.5462 15.0303 61.9897 14.9721 61.4734 14.8273C60.9571 14.6824 60.4949 14.4547 60.1227 14.1619C59.1425 13.296 59.3083 11.892 60.5768 10.2012C63.7413 6.469 68.6728 3.66058 74.4867 2.27971C77.0812 1.76733 79.0488 1.96203 80.029 2.82796C82.011 4.59056 79.1857 8.46419 73.6074 11.6358C69.8164 13.7725 65.8668 14.9971 63.0993 14.9971ZM77.0524 2.46929C76.2443 2.47987 75.4419 2.56776 74.6668 2.73061C71.8451 3.36126 69.2249 4.37968 66.9551 5.72806C64.6134 6.99743 62.6426 8.57953 61.1533 10.3856C60.0362 11.8767 59.8416 13.1371 60.6344 13.834C62.3281 15.3353 68.0794 14.1465 73.1966 11.2311C78.3137 8.3156 81.2038 4.57007 79.5101 3.08415C79.1936 2.85407 78.8084 2.67751 78.383 2.56753C77.9576 2.45756 77.5029 2.41698 77.0524 2.4488V2.46929Z" fill="#FFD200"/>
<path d="M32.5046 11.0364L35.647 8.84847C37.6578 7.31132 43.3443 8.80748 48.3389 12.1534C53.3335 15.4992 55.7479 19.4395 53.7299 20.9612L50.6308 23.144L32.5046 11.0364Z" fill="#FFC9B0"/>
<path d="M50.6307 23.3797C50.5457 23.3805 50.4634 23.3586 50.4001 23.3183L32.2812 11.2055C32.2161 11.161 32.1774 11.1005 32.1731 11.0364C32.174 10.9728 32.2103 10.912 32.274 10.8673L35.4163 8.68967C36.4758 7.88523 38.4578 7.80325 40.9875 8.4591C43.8121 9.27114 46.3855 10.4688 48.5623 11.9843C53.7659 15.4736 56.1443 19.4856 53.9749 21.1252L50.8253 23.3131C50.7731 23.3505 50.7044 23.374 50.6307 23.3797ZM33.0163 11.0313L50.6235 22.8161L53.5064 20.7666C55.3515 19.3729 52.8938 15.489 48.1154 12.2969C46.0053 10.8247 43.5104 9.66018 40.7713 8.86901C38.5371 8.29001 36.7569 8.33101 35.892 8.98686L33.0163 11.0313Z" fill="#FFD200"/>
<path d="M50.5956 23.1448C52.6122 21.6223 50.1971 17.6768 45.2013 14.3322C40.2055 10.9876 34.5208 9.51047 32.5042 11.0329C30.4876 12.5554 32.9027 16.5009 37.8985 19.8455C42.8943 23.1901 48.579 24.6672 50.5956 23.1448Z" fill="#FFD200"/>
<path d="M48.2736 23.9998C47.2338 23.9799 46.2069 23.8307 45.2394 23.5591C42.4127 22.747 39.837 21.5494 37.6574 20.0339C35.3983 18.5759 33.562 16.8179 32.252 14.8589C31.1709 13.0963 31.1709 11.6769 32.252 10.8623C33.3331 10.0476 35.3222 9.96046 37.8664 10.6214C40.6972 11.4331 43.2759 12.6326 45.4556 14.1518C47.7159 15.607 49.5524 17.3635 50.861 19.3217C51.9421 21.0843 51.9421 22.5088 50.861 23.3234C50.52 23.5583 50.1136 23.7398 49.668 23.8563C49.2224 23.9728 48.7474 24.0217 48.2736 23.9998ZM34.8322 10.6778C34.4575 10.6578 34.081 10.693 33.7264 10.7812C33.3717 10.8693 33.0464 11.0086 32.7709 11.1902C31.9132 11.8358 31.9637 13.0911 32.9006 14.6334C34.1745 16.529 35.9568 18.2295 38.1475 19.6394C40.2554 21.1086 42.748 22.2697 45.4844 23.057C47.7042 23.636 49.47 23.5694 50.3276 22.9494C51.1853 22.3038 51.1349 21.0485 50.1907 19.5062C48.9222 17.6097 47.1419 15.9088 44.9511 14.5002C42.8432 13.031 40.3505 11.8699 37.6141 11.0826C36.7249 10.8407 35.784 10.709 34.8322 10.6932V10.6778Z" fill="#FFD200"/>
<path d="M34.0543 37.4291C32.7786 36.2302 31.6615 34.5137 33.766 33.6734C35.2074 33.0841 37.3696 33.3762 38.9984 33.8578C40.6273 34.3395 42.0903 35.0056 43.9282 35.149C49.0597 35.5333 53.0669 31.7058 58.0399 32.4539C59.9065 32.7306 61.211 33.6068 62.9768 34.0269C66.2489 34.8006 69.9678 33.8476 73.312 33.161C76.6561 32.4744 81.2399 32.2387 83.1282 33.822C85.0165 35.4052 82.6885 37.2908 80.966 38.8843C78.8027 40.8598 77.5044 43.2439 77.2327 45.74C77.1678 46.442 77.1606 47.2054 76.3462 47.7896C75.5318 48.3737 73.8669 48.6196 72.4038 48.8143C63.3516 49.8391 53.1678 50.5564 45.4489 47.2106C40.1876 44.8946 37.3047 40.4522 34.0543 37.4291Z" fill="#6F87FC"/>
<path d="M120 97.9675C120 115.45 93.1315 120 60 120C26.8685 120 0 115.44 0 97.9675C0 80.4952 26.8468 46.3806 60 46.3806C93.1532 46.3806 120 80.4849 120 97.9675Z" fill="#6F87FC"/>
<path d="M65.4631 51.5712C69.8493 59.1034 73.3262 66.8872 75.8559 74.8385L89.0235 71.2519C89.0235 71.2519 79.3803 61.1118 73.737 55.9879C68.0938 50.8641 65.4631 51.5712 65.4631 51.5712Z" fill="#FFC9B0"/>
<path d="M75.8561 75.0741C75.8038 75.0729 75.7523 75.0642 75.7048 75.0485C75.6628 75.0332 75.6262 75.0115 75.5975 74.9849C75.5688 74.9584 75.5488 74.9276 75.539 74.8948C72.9925 66.9572 69.5111 59.1859 65.1318 51.6633C65.114 51.6342 65.1047 51.6028 65.1047 51.571C65.1047 51.5393 65.114 51.5079 65.1318 51.4788C65.1481 51.4491 65.1733 51.4222 65.2057 51.4001C65.2381 51.378 65.2768 51.3612 65.3192 51.3507C65.6147 51.2739 68.3462 50.7359 73.9678 55.8443C79.5895 60.9528 89.2039 71.0058 89.2976 71.1031C89.3258 71.1329 89.3443 71.1667 89.3518 71.2021C89.3593 71.2376 89.3555 71.2738 89.3408 71.3081C89.326 71.3416 89.3008 71.3723 89.2672 71.3981C89.2335 71.4238 89.1922 71.4438 89.1462 71.4567L75.9786 75.0434C75.941 75.0592 75.8994 75.0696 75.8561 75.0741ZM65.9174 51.776C70.1662 59.152 73.5695 66.76 76.094 74.5259L88.5192 71.1236C87.0057 69.5506 78.5372 60.753 73.4489 56.1364C69.2976 52.3345 66.8327 51.817 65.9462 51.776H65.9174Z" fill="#FFD200"/>
<path d="M68.101 50.864C68.101 50.864 84.5478 56.5002 90.5659 61.5626L80.7424 66.6096C80.7424 66.6096 72.2595 54.6352 65.4631 51.566L68.101 50.864Z" fill="#FFC9B0"/>
<path d="M80.7419 66.8505H80.6626C80.6161 66.8426 80.5725 66.8275 80.5352 66.8062C80.4978 66.785 80.4675 66.7581 80.4464 66.7275C80.3599 66.6097 71.9275 54.7736 65.3113 51.771C65.2612 51.7469 65.2208 51.7139 65.1943 51.6752C65.1677 51.6366 65.1559 51.5936 65.16 51.5507C65.1678 51.5073 65.192 51.4663 65.2301 51.432C65.2682 51.3977 65.3187 51.3714 65.3762 51.356L68.014 50.654C68.0549 50.6413 68.0991 50.6348 68.1437 50.6348C68.1884 50.6348 68.2326 50.6413 68.2735 50.654C68.9437 50.8795 84.85 56.3569 90.8464 61.4141C90.8757 61.4386 90.8973 61.4673 90.9098 61.4982C90.9222 61.5291 90.9252 61.5616 90.9185 61.5934C90.9139 61.6256 90.9 61.6568 90.8776 61.685C90.8553 61.7132 90.8251 61.7379 90.7888 61.7574L80.9654 66.7993C80.9022 66.8351 80.8227 66.8534 80.7419 66.8505ZM66.1762 51.6275C72.396 54.8043 79.6176 64.5448 80.8572 66.2664L90.0825 61.5319C84.2807 56.8283 69.5996 51.648 68.0789 51.1203L66.1762 51.6275Z" fill="#FFD200"/>
<path d="M80.9007 51.8324C76.771 53.18 64.2448 52.4063 61.5998 52.4063H46.789C44.6268 52.4063 34.7385 53.057 37.7583 50.5412C38.0899 50.2645 38.5944 50.0288 38.8971 49.7675C39.6178 49.0655 38.9403 48.2304 38.3854 47.472C35.9493 44.2133 43.2214 44.8537 47.0773 44.8537H71.8845C75.0268 44.8537 81.8016 44.0032 81.0448 46.6112C80.8791 47.1748 80.3241 47.7077 80.389 48.2714C80.5115 49.0809 81.9241 49.7009 82.1908 50.5002C82.3782 51.0843 81.8737 51.5199 80.9007 51.8324Z" fill="#FFC9B0"/>
<path d="M71.5312 52.8622C68.8213 52.8622 66.133 52.77 64.151 52.7033C63.0195 52.6675 62.1258 52.6367 61.6213 52.6367H46.7889C46.4934 52.6367 46.0682 52.6367 45.5421 52.6675C41.5997 52.7751 37.6934 52.7905 36.9727 51.7298C36.7132 51.3507 36.8934 50.8998 37.506 50.3925C37.6821 50.2527 37.875 50.1241 38.0826 50.0082C38.2865 49.8947 38.4725 49.7658 38.6376 49.6239C39.2213 49.0757 38.688 48.3634 38.1691 47.6769L38.097 47.5795C37.4916 46.7751 37.3763 46.1192 37.8376 45.6222C38.8466 44.4642 42.3204 44.5359 45.3835 44.5974C45.9889 44.5974 46.5655 44.5974 47.0772 44.5974H71.8844C72.4465 44.5974 73.1456 44.5974 73.8808 44.5411C76.5042 44.4335 79.7763 44.3002 80.9655 45.2789C81.1778 45.4669 81.3249 45.6877 81.3951 45.9236C81.4652 46.1594 81.4563 46.4037 81.3691 46.6367C81.2857 46.8718 81.1748 47.1014 81.0375 47.3233C80.8311 47.6016 80.72 47.9105 80.7132 48.2251C80.8624 48.6135 81.1533 48.9671 81.5564 49.2499C81.9897 49.5774 82.3147 49.9695 82.5078 50.3976C82.6591 50.8639 82.5078 51.5146 81.0663 52.0014C79.0627 52.688 75.2718 52.8622 71.5312 52.8622ZM46.8105 52.1705H61.6213C62.1402 52.1705 63.0628 52.2012 64.1799 52.2371C68.8501 52.3908 77.5348 52.6777 80.7564 51.6222C81.9384 51.2379 81.9528 50.828 81.8591 50.5513C81.6851 50.1938 81.4049 49.867 81.0375 49.5932C80.5435 49.2364 80.2034 48.7866 80.0573 48.2968C80.0383 47.9036 80.1625 47.5136 80.4177 47.1645C80.5415 46.9714 80.6404 46.7708 80.7132 46.565C80.7864 46.4029 80.8016 46.2305 80.7576 46.0632C80.7136 45.8959 80.6116 45.7391 80.4609 45.6068C79.4808 44.8024 76.2592 44.9305 73.9096 45.0278C73.1889 45.0586 72.4682 45.0893 71.8772 45.0893H47.0772C46.5583 45.0893 45.9817 45.0893 45.3691 45.0893C42.7673 45.0381 39.2069 44.9663 38.3997 45.8938C38.097 46.2371 38.1907 46.7392 38.6736 47.3848L38.7457 47.4821C39.3078 48.22 39.9997 49.1423 39.1637 49.9313C38.9689 50.0997 38.749 50.2527 38.5078 50.3874C38.3288 50.4879 38.1624 50.5994 38.0105 50.7204C37.715 50.9664 37.3979 51.3097 37.5637 51.5505C38.1619 52.4267 43.3294 52.2832 45.4916 52.2217C46.0466 52.1807 46.4862 52.1705 46.7889 52.1705H46.8105Z" fill="#FFD200"/>
<path d="M56.7061 100.529V97.9675C55.3944 97.7113 54.1187 97.5217 52.8935 97.2194C50.4967 96.6797 48.4284 95.5778 47.0268 94.0939C45.8718 92.7979 45.2824 91.2878 45.3331 89.754H52.3673C52.6917 91.6139 53.9673 92.9462 56.6917 93.4585V86.6694C55.2863 86.3774 53.8737 86.1058 52.4827 85.7881C50.9475 85.4841 49.5414 84.9156 48.389 84.1331C47.1836 83.2793 46.3889 82.1763 46.1187 80.982C45.6965 79.5292 45.8487 78.0217 46.5583 76.6267C47.0733 75.6222 47.894 74.711 48.9617 73.9581C50.0294 73.2053 51.3178 72.6293 52.7349 72.2714C53.9004 72.0054 55.0868 71.7881 56.2881 71.6207C56.4178 71.6207 56.5547 71.5797 56.7205 71.5592V68.1672H63.3007V68.4952C63.3007 69.4636 63.3007 70.4371 63.3007 71.4055C63.3007 71.6463 63.4016 71.7181 63.7259 71.7693C65.9775 72.0809 68.085 72.7852 69.8592 73.8188C71.7321 74.9141 72.9736 76.4604 73.3475 78.1639C73.4629 78.6301 73.5205 79.1015 73.5998 79.5934H66.443C66.4263 78.899 66.1239 78.2232 65.5732 77.6496C65.0225 77.0759 64.2475 76.6295 63.3439 76.3654V82.7036L64.1151 82.8317C66.0494 83.1019 67.9333 83.5301 69.7295 84.1075C71.0787 84.5219 72.2436 85.1896 73.0994 86.0391C73.9552 86.8885 74.4695 87.8876 74.5872 88.9291C74.9826 90.8617 74.3111 92.8281 72.7133 94.4167C71.3959 95.7187 69.5386 96.6952 67.4016 97.2092C66.0827 97.5371 64.7061 97.7523 63.2863 98.029V100.514L56.7061 100.529ZM63.3079 87.643V93.5405C64.3665 93.4259 65.3623 93.1109 66.1908 92.6285C67.7187 91.7369 68.2592 89.5183 66.025 88.5294C65.1445 88.1963 64.2372 87.9004 63.3079 87.643ZM56.6773 81.6071V75.9094C55.8169 76.1764 54.9794 76.4793 54.1691 76.8163C52.3385 77.6822 52.0502 80.0853 54.3854 80.9154C55.1061 81.1869 55.8773 81.3714 56.6773 81.6071Z" fill="#F5F5FE"/>
<path d="M38.8975 49.998C38.8248 49.9984 38.754 49.9815 38.6965 49.9499C38.639 49.9183 38.5981 49.8739 38.5803 49.8238C38.5606 49.7641 38.5744 49.7012 38.6188 49.6486C38.6632 49.596 38.7347 49.5577 38.8182 49.542C38.9839 49.5113 42.8758 48.8298 50.1191 48.9425C50.207 48.9425 50.2914 48.9673 50.3535 49.0115C50.4157 49.0557 50.4506 49.1157 50.4506 49.1782C50.4506 49.2407 50.4157 49.3007 50.3535 49.3449C50.2914 49.3891 50.207 49.4139 50.1191 49.4139C42.9767 49.3012 39.0344 49.9878 38.9984 49.9929L38.8975 49.998Z" fill="#FFD200"/>
<path d="M79.9208 47.9076H79.8703C79.7694 47.9076 69.1965 46.7855 63.1496 47.3184C63.063 47.3243 62.9766 47.3063 62.9082 47.2682C62.8398 47.23 62.7946 47.1746 62.782 47.1134C62.7719 47.0517 62.7964 46.9895 62.8505 46.9406C62.9045 46.8916 62.9835 46.8598 63.0703 46.8521C69.2037 46.3397 79.8631 47.4362 79.9712 47.4465C80.0503 47.4581 80.1207 47.4897 80.1692 47.5355C80.2178 47.5814 80.2412 47.6382 80.235 47.6954C80.2288 47.7526 80.1935 47.8063 80.1356 47.8463C80.0778 47.8863 80.0014 47.9099 79.9208 47.9128V47.9076Z" fill="#FFD200"/>
<path d="M73.1822 61.4856C73.1105 61.4863 73.0405 61.4701 72.9831 61.4395C72.9257 61.4089 72.8842 61.3657 72.8651 61.3165C71.8489 58.7546 68.5408 54.0202 68.4759 53.9741C68.4379 53.9189 68.4317 53.8553 68.4586 53.797C68.4856 53.7386 68.5435 53.69 68.6201 53.6615C68.6583 53.6475 68.7001 53.6389 68.7431 53.6365C68.786 53.634 68.8292 53.6377 68.8701 53.6472C68.911 53.6568 68.9489 53.672 68.9814 53.692C69.014 53.7121 69.0406 53.7366 69.0597 53.764C69.2039 53.9587 72.4615 58.5753 73.4994 61.1884C73.5196 61.2482 73.5071 61.3111 73.4642 61.3645C73.4213 61.4178 73.3514 61.4575 73.2687 61.4754L73.1822 61.4856Z" fill="#FFD200"/>
<path d="M83.373 63.1612C83.3146 63.1614 83.2572 63.1506 83.2065 63.1299C83.1559 63.1092 83.1139 63.0793 83.0847 63.0434C83.0847 63.0024 79.9352 59.1339 77.2108 57.2534C77.1792 57.2319 77.1541 57.2061 77.1369 57.1774C77.1197 57.1488 77.1108 57.118 77.1108 57.0869C77.1108 57.0558 77.1197 57.025 77.1369 56.9964C77.1541 56.9677 77.1792 56.9419 77.2108 56.9204C77.2727 56.8778 77.3554 56.854 77.4415 56.854C77.5276 56.854 77.6103 56.8778 77.6721 56.9204C80.4685 58.8521 83.5387 62.654 83.6685 62.8179C83.7104 62.8718 83.7211 62.9352 83.6982 62.9945C83.6753 63.0539 83.6207 63.1045 83.5459 63.1356C83.4923 63.1544 83.4327 63.1633 83.373 63.1612Z" fill="#FFD200"/>
</svg>
