<svg width="120" height="120" viewBox="0 0 120 120" fill="none" xmlns="http://www.w3.org/2000/svg">
<path d="M46.3669 60.9443H50.5989V64.3884C50.7995 64.708 50.9334 65.0651 50.9926 65.4381C51.0518 65.8111 51.0349 66.1923 50.9431 66.5586C50.5989 67.7301 50.1592 68.7992 48.3236 68.0886C46.488 67.378 46.3669 63.9659 46.3669 60.9443Z" fill="#8C3940"/>
<path d="M49.3627 68.9529C48.9251 68.9413 48.4932 68.8502 48.088 68.684C45.9082 67.839 45.7234 64.4013 45.7234 60.9444C45.7234 60.7746 45.7905 60.6118 45.9101 60.4917C46.0296 60.3716 46.1917 60.3042 46.3607 60.3042H50.5927C50.7618 60.3042 50.9239 60.3716 51.0434 60.4917C51.1629 60.6118 51.2301 60.7746 51.2301 60.9444V64.2156C51.6559 64.9838 51.77 65.8873 51.5488 66.7379C51.4801 67.1484 51.3274 67.5402 51.1004 67.8884C50.8733 68.2366 50.5767 68.5336 50.2294 68.7608C49.9588 68.8903 49.6624 68.9559 49.3627 68.9529ZM47.0045 61.5845C47.0045 63.7291 47.151 66.9492 48.5532 67.4869C48.8994 67.6645 49.2979 67.71 49.675 67.6149C49.9936 67.4549 50.1785 66.8915 50.3123 66.3794C50.3787 66.1045 50.3897 65.8191 50.3448 65.5399C50.3 65.2607 50.2001 64.9933 50.051 64.7534C49.9809 64.6446 49.9433 64.518 49.9426 64.3885V61.5845H47.0045Z" fill="#093F68"/>
<path d="M73.4481 60.9443H69.2161V64.3884C69.0155 64.708 68.8816 65.0651 68.8224 65.4381C68.7633 65.8111 68.7801 66.1923 68.8719 66.5586C69.2161 67.7301 69.6495 68.7992 71.4914 68.0886C73.3333 67.378 73.4481 63.9659 73.4481 60.9443Z" fill="#8C3940"/>
<path d="M70.4526 68.9529C70.1507 68.9576 69.8518 68.8919 69.5795 68.7608C69.2369 68.5311 68.9452 68.2329 68.7226 67.8848C68.5 67.5368 68.3513 67.1463 68.2856 66.7379C68.061 65.8875 68.1753 64.9827 68.6043 64.2156V60.9444C68.6043 60.7746 68.6715 60.6118 68.791 60.4917C68.9105 60.3716 69.0726 60.3042 69.2417 60.3042H73.4737C73.6427 60.3042 73.8048 60.3716 73.9243 60.4917C74.0439 60.6118 74.111 60.7746 74.111 60.9444C74.111 64.4013 73.9262 67.839 71.7464 68.684C71.3352 68.8525 70.8967 68.9436 70.4526 68.9529ZM69.8535 61.5845V64.3885C69.8558 64.5194 69.8156 64.6475 69.7388 64.7534C69.4439 65.2405 69.3523 65.8248 69.4839 66.3794C69.6368 66.8915 69.8217 67.4549 70.1212 67.6149C70.4982 67.71 70.8968 67.6645 71.2429 67.4869C72.6451 66.9492 72.779 63.7291 72.7917 61.5845H69.8535Z" fill="#093F68"/>
<path d="M73.1675 69.4329H69.6876C68.8815 69.4329 68.228 70.0892 68.228 70.8989V81.18C68.228 81.9896 68.8815 82.646 69.6876 82.646H73.1675C73.9736 82.646 74.627 81.9896 74.627 81.18V70.8989C74.627 70.0892 73.9736 69.4329 73.1675 69.4329Z" fill="#FFBC0E"/>
<path d="M73.1674 83.3182H69.6874C69.1307 83.3165 68.5974 83.0932 68.2044 82.6972C67.8113 82.3012 67.5906 81.7648 67.5906 81.2056V70.9629C67.5906 70.4037 67.8113 69.8674 68.2044 69.4714C68.5974 69.0754 69.1307 68.852 69.6874 68.8503H73.1674C73.7241 68.852 74.2574 69.0754 74.6505 69.4714C75.0435 69.8674 75.2642 70.4037 75.2642 70.9629V81.2056C75.2642 81.7648 75.0435 82.3012 74.6505 82.6972C74.2574 83.0932 73.7241 83.3165 73.1674 83.3182ZM69.6874 70.0987C69.4688 70.1004 69.2597 70.1888 69.1057 70.3447C68.9517 70.5006 68.8653 70.7113 68.8653 70.9309V81.1736C68.8653 81.3932 68.9517 81.6039 69.1057 81.7598C69.2597 81.9157 69.4688 82.0041 69.6874 82.0058H73.1674C73.386 82.0041 73.5951 81.9157 73.7491 81.7598C73.9031 81.6039 73.9896 81.3932 73.9895 81.1736V70.9309C73.9896 70.7113 73.9031 70.5006 73.7491 70.3447C73.5951 70.1888 73.386 70.1004 73.1674 70.0987H69.6874Z" fill="#093F68"/>
<path d="M71.4278 64.9836C71.6763 64.9836 71.9146 65.0828 72.0903 65.2593C72.266 65.4358 72.3647 65.6751 72.3647 65.9247V69.4393H70.4973V65.9247C70.4973 65.6762 70.5951 65.4378 70.7695 65.2615C70.9438 65.0852 71.1804 64.9853 71.4278 64.9836Z" fill="#FFBC0E"/>
<path d="M72.3642 70.073H70.4904C70.3213 70.073 70.1592 70.0056 70.0397 69.8855C69.9202 69.7655 69.853 69.6026 69.853 69.4328V65.9247C69.853 65.5054 70.0189 65.1032 70.3141 64.8066C70.6093 64.5101 71.0098 64.3435 71.4273 64.3435C71.8448 64.3435 72.2452 64.5101 72.5405 64.8066C72.8357 65.1032 73.0015 65.5054 73.0015 65.9247V69.4328C73.0015 69.6026 72.9344 69.7655 72.8149 69.8855C72.6953 70.0056 72.5332 70.073 72.3642 70.073ZM71.1277 68.7927H71.7268V65.9247C71.7268 65.8449 71.6953 65.7684 71.6391 65.712C71.5829 65.6555 71.5067 65.6238 71.4273 65.6238C71.3478 65.6238 71.2716 65.6555 71.2155 65.712C71.1593 65.7684 71.1277 65.8449 71.1277 65.9247V68.7927Z" fill="#093F68"/>
<path d="M55.4173 30.5427H64.3975C66.7978 30.5427 69.0998 31.5005 70.7971 33.2052C72.4944 34.91 73.4479 37.2222 73.4479 39.6331V60.9444H46.3669V39.6331C46.3669 37.2222 47.3205 34.91 49.0177 33.2052C50.715 31.5005 53.017 30.5427 55.4173 30.5427Z" fill="white"/>
<path d="M73.4478 61.5846H46.3668C46.1978 61.5846 46.0357 61.5171 45.9162 61.3971C45.7966 61.277 45.7295 61.1142 45.7295 60.9444V39.6332C45.7329 37.0535 46.7546 34.5805 48.5707 32.7564C50.3867 30.9322 52.8489 29.906 55.4172 29.9026H64.3974C66.9657 29.906 69.4279 30.9322 71.2439 32.7564C73.06 34.5805 74.0818 37.0535 74.0851 39.6332V60.9444C74.0851 61.1142 74.018 61.277 73.8985 61.3971C73.7789 61.5171 73.6168 61.5846 73.4478 61.5846ZM47.0042 60.3042H72.8104V39.6332C72.8071 37.3931 71.9196 35.2457 70.3426 33.6617C68.7656 32.0777 66.6277 31.1863 64.3974 31.1829H55.4172C53.187 31.1863 51.049 32.0777 49.472 33.6617C47.895 35.2457 47.0076 37.3931 47.0042 39.6332V60.3042Z" fill="#093F68"/>
<path d="M58.9611 0.736419C59.4272 0.664949 59.898 0.628573 60.3696 0.627592C62.5366 0.627592 64.7546 0.569975 66.7431 1.54944C68.7444 2.54375 70.4312 4.0772 71.6152 5.97859C72.7992 7.87998 73.4337 10.0745 73.448 12.3171L72.9891 21.2795H46.9534C46.9015 20.7206 46.9359 20.157 47.0554 19.6086C47.0398 19.0264 46.9542 18.4482 46.8005 17.8866C46.4928 16.4267 46.3178 14.9418 46.2778 13.4502C46.2864 11.1057 46.7723 8.78775 47.7055 6.63879C48.2345 5.35845 48.8591 4.00129 49.9936 3.19467C51.1281 2.38806 52.9317 2.36245 53.7412 3.50195C55.1264 2.02257 56.9633 1.04939 58.9611 0.736419Z" fill="black"/>
<path d="M72.9894 21.9004H46.9537C46.8114 21.906 46.6714 21.8637 46.5559 21.7802C46.4404 21.6967 46.356 21.5767 46.3163 21.4394C46.2108 20.9846 46.2108 20.5115 46.3163 20.0567C46.3497 19.8942 46.371 19.7294 46.38 19.5637C46.3779 19.1637 46.3243 18.7657 46.2207 18.3794C46.2207 18.2514 46.1633 18.1234 46.1378 17.9889C45.8208 16.4936 45.6415 14.9721 45.6025 13.4437C45.6115 11.0196 46.1147 8.62311 47.0811 6.40184C47.6165 5.07669 48.3048 3.5915 49.5859 2.68245C50.1791 2.2398 50.8947 1.99338 51.6335 1.97732C52.3723 1.96127 53.0978 2.17637 53.7096 2.59283C55.1277 1.2785 56.9021 0.416297 58.8083 0.115371C59.3079 0.0359026 59.8131 -0.00263473 60.3189 0.000139765H60.7013C62.7982 0.000139765 64.9715 0.000140342 66.9728 0.986002C69.0904 2.02323 70.8779 3.6332 72.1344 5.63491C73.391 7.63662 74.0667 9.95071 74.0856 12.317C74.0856 12.317 74.0856 12.317 73.6267 21.2794C73.6217 21.4458 73.5524 21.6038 73.4334 21.7197C73.3144 21.8356 73.1551 21.9004 72.9894 21.9004ZM47.5591 20.62H72.4157C72.5177 18.6227 72.8428 12.3746 72.8428 12.2978C72.8276 10.1729 72.2233 8.09432 71.0975 6.29524C69.9717 4.49617 68.369 3.04781 66.4693 2.1127C64.7357 1.26128 62.7981 1.26128 60.7331 1.26128H60.3443C59.1951 1.26618 58.0588 1.50595 57.0048 1.96598C55.9507 2.42602 55.0009 3.09669 54.2131 3.93719C54.1486 4.00735 54.0694 4.06216 53.9812 4.0976C53.893 4.13304 53.798 4.14823 53.7032 4.14204C53.6086 4.13574 53.5166 4.10834 53.4339 4.06183C53.3513 4.01531 53.2799 3.95087 53.2252 3.87317C52.6324 3.04095 51.2239 3.10497 50.3635 3.71953C49.3565 4.43012 48.7892 5.64004 48.2985 6.88197C47.3955 8.95118 46.9248 11.1845 46.9154 13.4437C46.9523 14.8947 47.123 16.3391 47.4253 17.7585L47.5018 18.1234C47.6359 18.6176 47.7002 19.1283 47.693 19.6406C47.6793 19.8555 47.6516 20.0694 47.6101 20.2807C47.591 20.3896 47.5719 20.5112 47.5591 20.62Z" fill="#093F68"/>
<path d="M58.0881 30.0496H61.9122V32.2325C61.9122 32.6604 61.743 33.0707 61.4418 33.3733C61.1406 33.6758 60.7321 33.8458 60.3061 33.8458H59.7325C59.5184 33.8509 59.3054 33.813 59.1061 33.7342C58.9068 33.6554 58.7252 33.5374 58.572 33.3871C58.4188 33.2368 58.297 33.0572 58.2139 32.8589C58.1309 32.6606 58.0881 32.4477 58.0881 32.2325V30.0496Z" fill="#8C3940"/>
<path d="M60.2933 34.4862H59.7196C59.4231 34.4887 59.129 34.4324 58.8543 34.3203C58.5795 34.2083 58.3295 34.0428 58.1186 33.8334C57.9078 33.624 57.7402 33.3748 57.6256 33.1001C57.511 32.8254 57.4515 32.5307 57.4507 32.2328V30.0498C57.4507 29.8801 57.5178 29.7172 57.6374 29.5972C57.7569 29.4771 57.919 29.4097 58.088 29.4097H61.9121C62.0811 29.4097 62.2433 29.4771 62.3628 29.5972C62.4823 29.7172 62.5495 29.8801 62.5495 30.0498V32.2328C62.5495 32.5298 62.491 32.8239 62.3775 33.0981C62.2639 33.3724 62.0975 33.6213 61.8879 33.8308C61.6782 34.0402 61.4294 34.2059 61.1557 34.3184C60.882 34.4309 60.5889 34.4879 60.2933 34.4862ZM58.7254 30.69V32.2328C58.7254 32.4909 58.8274 32.7384 59.0091 32.9209C59.1908 33.1034 59.4372 33.2059 59.6941 33.2059H60.2678C60.3982 33.211 60.5283 33.1897 60.6502 33.1431C60.7722 33.0966 60.8836 33.0257 60.9776 32.9348C61.0717 32.8439 61.1465 32.7349 61.1975 32.6143C61.2486 32.4936 61.2749 32.3639 61.2748 32.2328V30.69H58.7254Z" fill="#093F68"/>
<path d="M49.8277 23.3665C51.7391 23.3665 53.2886 21.942 53.2886 20.1848C53.2886 18.4276 51.7391 17.0032 49.8277 17.0032C47.9164 17.0032 46.3669 18.4276 46.3669 20.1848C46.3669 21.942 47.9164 23.3665 49.8277 23.3665Z" fill="#8C3940"/>
<path d="M49.8025 24C49.0598 23.9477 48.3484 23.6787 47.7558 23.2261C47.1631 22.7735 46.7148 22.1569 46.466 21.4521C46.2172 20.7473 46.1786 19.9848 46.355 19.2583C46.5314 18.5318 46.9151 17.8728 47.4591 17.3622C48.003 16.8515 48.6836 16.5115 49.4171 16.3838C50.1507 16.2561 50.9055 16.3463 51.5888 16.6432C52.2721 16.9402 52.8542 17.4311 53.2638 18.0556C53.6733 18.6801 53.8924 19.4112 53.8943 20.159C53.877 20.6811 53.7574 21.1948 53.5424 21.6705C53.3273 22.1462 53.021 22.5746 52.641 22.9314C52.261 23.2881 51.8147 23.5661 51.3276 23.7495C50.8406 23.9328 50.3223 24.018 49.8025 24ZM49.8025 17.6431C49.313 17.695 48.8489 17.8882 48.4663 18.1992C48.0837 18.5102 47.799 18.9258 47.6464 19.3959C47.4938 19.8659 47.48 20.3703 47.6065 20.848C47.7331 21.3258 47.9946 21.7565 48.3596 22.0883C48.7245 22.42 49.1773 22.6385 49.6632 22.7175C50.1491 22.7964 50.6473 22.7324 51.0978 22.5331C51.5482 22.3339 51.9316 22.0079 52.2017 21.5945C52.4717 21.1812 52.6168 20.6982 52.6196 20.2038C52.5833 19.4893 52.2663 18.8184 51.7382 18.3384C51.2101 17.8583 50.5139 17.6083 49.8025 17.6431Z" fill="#093F68"/>
<path d="M69.9872 23.3665C71.8985 23.3665 73.448 21.942 73.448 20.1848C73.448 18.4276 71.8985 17.0032 69.9872 17.0032C68.0758 17.0032 66.5264 18.4276 66.5264 20.1848C66.5264 21.942 68.0758 23.3665 69.9872 23.3665Z" fill="#8C3940"/>
<path d="M69.9873 24C69.245 23.9465 68.5343 23.6765 67.9425 23.2232C67.3507 22.7699 66.9035 22.153 66.6556 21.4482C66.4077 20.7433 66.37 19.9811 66.5471 19.2551C66.7241 18.529 67.1083 17.8706 67.6524 17.3606C68.1965 16.8506 68.877 16.5112 69.6104 16.3839C70.3438 16.2567 71.0982 16.3472 71.7811 16.6442C72.4641 16.9413 73.0459 17.4321 73.4552 18.0564C73.8645 18.6808 74.0835 19.4115 74.0854 20.159C74.0682 20.6817 73.9484 21.1959 73.7329 21.672C73.5175 22.1482 73.2106 22.5769 72.8299 22.9337C72.4492 23.2906 72.0022 23.5684 71.5144 23.7514C71.0266 23.9344 70.5076 24.0189 69.9873 24ZM69.9873 17.6432C69.4982 17.6963 69.0349 17.8904 68.6532 18.202C68.2715 18.5137 67.9878 18.9296 67.8361 19.3997C67.6845 19.8697 67.6715 20.3737 67.7987 20.851C67.9258 21.3283 68.1878 21.7584 68.5529 22.0896C68.918 22.4207 69.3706 22.6386 69.8563 22.7171C70.3419 22.7956 70.8398 22.7314 71.2899 22.532C71.74 22.3327 72.1231 22.0068 72.3929 21.5937C72.6628 21.1806 72.8079 20.6979 72.8107 20.2038C72.7928 19.8495 72.7055 19.5021 72.5539 19.1817C72.4023 18.8612 72.1893 18.5738 71.9271 18.3361C71.6649 18.0983 71.3586 17.9147 71.0258 17.7958C70.693 17.6769 70.3401 17.625 69.9873 17.6432Z" fill="#093F68"/>
<path d="M59.9997 30.5428C57.0613 30.5428 54.2432 29.3708 52.1648 27.2844C50.0864 25.198 48.9179 22.3681 48.9163 19.4166V13.4246C48.9163 13.4246 51.7078 11.8306 52.5364 9.30835C52.5364 9.30835 56.7939 14.1736 60.8984 13.8408C64.3207 13.5527 67.7249 13.0783 71.096 12.4196V19.4166C71.096 20.8794 70.8088 22.3277 70.2509 23.6789C69.6931 25.03 68.8754 26.2574 67.8448 27.2908C66.8142 28.3242 65.5908 29.1434 64.2446 29.7014C62.8985 30.2594 61.456 30.5453 59.9997 30.5428Z" fill="#8C3940"/>
<path d="M60.0001 31.1829C56.8932 31.1812 53.9139 29.9412 51.7164 27.7351C49.5188 25.5291 48.2827 22.5373 48.2793 19.4166V13.4246C48.2806 13.3122 48.3113 13.2022 48.3684 13.1056C48.4255 13.0089 48.5068 12.9291 48.6043 12.874C48.6043 12.874 51.192 11.3568 51.9313 9.10985C51.9663 9.0027 52.0288 8.90673 52.1126 8.83166C52.1964 8.75659 52.2984 8.70508 52.4084 8.68234C52.5183 8.6596 52.6323 8.66644 52.7388 8.70216C52.8453 8.73789 52.9405 8.80124 53.0148 8.88579C53.053 8.9306 57.1066 13.495 60.8478 13.2069C64.2373 12.9116 67.6091 12.4394 70.9498 11.7922C71.0434 11.7729 71.1402 11.7751 71.2329 11.7986C71.3257 11.822 71.4119 11.8661 71.4854 11.9276C71.5588 11.9891 71.6176 12.0663 71.6573 12.1537C71.6969 12.2411 71.7165 12.3363 71.7146 12.4323V19.4166C71.7112 22.5362 70.4759 25.527 68.2798 27.7329C66.0836 29.9388 63.106 31.1795 60.0001 31.1829ZM49.5604 13.7831V19.4166C49.6277 22.1536 50.7575 24.7558 52.7086 26.6677C54.6597 28.5796 57.2775 29.6498 60.0033 29.6498C62.7291 29.6498 65.347 28.5796 67.2981 26.6677C69.2492 24.7558 70.3789 22.1536 70.4463 19.4166V13.1941C68.8593 13.4886 65.0224 14.1544 60.9562 14.4745C57.5463 14.7433 54.162 11.837 52.7471 10.4414C51.9658 11.795 50.8731 12.9408 49.5604 13.7831Z" fill="#093F68"/>
<path d="M59.9489 21.9003C59.5964 21.9025 59.2444 21.8725 58.8973 21.8107C58.7283 21.781 58.5779 21.6851 58.4793 21.544C58.3807 21.4029 58.3419 21.2283 58.3715 21.0585C58.4011 20.8887 58.4966 20.7377 58.637 20.6387C58.7775 20.5396 58.9513 20.5007 59.1204 20.5304C59.4913 20.5884 59.8672 20.6077 60.2421 20.588C60.0525 19.8871 59.783 19.2104 59.4391 18.5715C59.4004 18.4967 59.3768 18.415 59.3697 18.331C59.3625 18.247 59.372 18.1625 59.3974 18.0822C59.4229 18.0019 59.4639 17.9275 59.5181 17.8631C59.5722 17.7988 59.6385 17.7458 59.7131 17.7072C59.8621 17.6304 60.0352 17.6155 60.195 17.6658C60.3549 17.7161 60.4885 17.8276 60.5672 17.9761C61.1472 19.09 61.7718 20.5368 61.4467 21.2858C61.3934 21.4078 61.3128 21.5158 61.211 21.6013C61.1093 21.6868 60.9893 21.7475 60.8603 21.7787C60.5628 21.8575 60.2566 21.8984 59.9489 21.9003Z" fill="#093F68"/>
<path d="M50.5993 55.0165C50.4302 55.0165 50.2681 54.949 50.1486 54.829C50.0291 54.7089 49.9619 54.5461 49.9619 54.3763V39.0122C49.9619 38.8425 50.0291 38.6796 50.1486 38.5596C50.2681 38.4395 50.4302 38.3721 50.5993 38.3721C50.7683 38.3721 50.9304 38.4395 51.0499 38.5596C51.1695 38.6796 51.2366 38.8425 51.2366 39.0122V54.3763C51.2366 54.5461 51.1695 54.7089 51.0499 54.829C50.9304 54.949 50.7683 55.0165 50.5993 55.0165Z" fill="#093F68"/>
<path d="M69.2162 54.9524C69.0472 54.9524 68.8851 54.8849 68.7655 54.7649C68.646 54.6448 68.5789 54.482 68.5789 54.3122V39.0249C68.5789 38.8552 68.646 38.6923 68.7655 38.5723C68.8851 38.4522 69.0472 38.3848 69.2162 38.3848C69.3852 38.3848 69.5474 38.4522 69.6669 38.5723C69.7864 38.6923 69.8536 38.8552 69.8536 39.0249V54.3122C69.8536 54.482 69.7864 54.6448 69.6669 54.7649C69.5474 54.8849 69.3852 54.9524 69.2162 54.9524Z" fill="#093F68"/>
<path d="M57.9093 54.3762H50.5989V90.3282H57.9093V54.3762Z" fill="#093F68"/>
<path d="M57.9033 91.0004H50.5993C50.4302 91.0004 50.2681 90.9329 50.1486 90.8129C50.0291 90.6928 49.9619 90.53 49.9619 90.3602V54.3763C49.9619 54.2065 50.0291 54.0436 50.1486 53.9236C50.2681 53.8035 50.4302 53.7361 50.5993 53.7361H57.9033C58.0723 53.7361 58.2344 53.8035 58.354 53.9236C58.4735 54.0436 58.5406 54.2065 58.5406 54.3763V90.3602C58.5406 90.53 58.4735 90.6928 58.354 90.8129C58.2344 90.9329 58.0723 91.0004 57.9033 91.0004ZM51.2366 89.72H57.2659V55.0164H51.2366V89.72Z" fill="#093F68"/>
<path d="M69.2159 54.3762H62.8806V90.3282H69.2159V54.3762Z" fill="#093F68"/>
<path d="M69.2162 91.0004H62.881C62.712 91.0004 62.5499 90.9329 62.4303 90.8129C62.3108 90.6928 62.2437 90.53 62.2437 90.3602V54.3763C62.2437 54.2065 62.3108 54.0436 62.4303 53.9236C62.5499 53.8035 62.712 53.7361 62.881 53.7361H69.2162C69.3853 53.7361 69.5474 53.8035 69.6669 53.9236C69.7864 54.0436 69.8536 54.2065 69.8536 54.3763V90.3602C69.8536 90.53 69.7864 90.6928 69.6669 90.8129C69.5474 90.9329 69.3853 91.0004 69.2162 91.0004ZM63.5183 89.72H68.5789V55.0164H63.5183V89.72Z" fill="#093F68"/>
<path d="M69.2159 54.3123H50.9495V61.783H69.2159V54.3123Z" fill="#093F68"/>
<path d="M69.2158 62.423H50.9494C50.7803 62.423 50.6182 62.3556 50.4987 62.2355C50.3792 62.1154 50.312 61.9526 50.312 61.7828V54.312C50.312 54.1423 50.3792 53.9794 50.4987 53.8594C50.6182 53.7393 50.7803 53.6719 50.9494 53.6719H69.2158C69.3848 53.6719 69.5469 53.7393 69.6664 53.8594C69.786 53.9794 69.8531 54.1423 69.8531 54.312V61.7828C69.8531 61.8669 69.8366 61.9502 69.8046 62.0278C69.7726 62.1055 69.7256 62.1761 69.6664 62.2355C69.6073 62.2949 69.537 62.3421 69.4597 62.3743C69.3823 62.4064 69.2995 62.423 69.2158 62.423ZM51.5867 61.1427H68.5784V54.9522H51.5867V61.1427Z" fill="#093F68"/>
<path d="M56.9918 90.3218V95.0143H47.0874L52.0396 90.3218H56.9918Z" fill="#F56132"/>
<path d="M56.9918 95.6544H47.0874C46.9598 95.6545 46.835 95.6161 46.7294 95.5442C46.6237 95.4723 46.5419 95.3702 46.4947 95.2511C46.4468 95.1319 46.4359 95.0009 46.4631 94.8753C46.4904 94.7497 46.5547 94.6353 46.6477 94.5469L51.5999 89.8609C51.719 89.7488 51.8764 89.6869 52.0396 89.688H56.9918C57.1609 89.688 57.323 89.7554 57.4425 89.8755C57.562 89.9956 57.6292 90.1584 57.6292 90.3282V95.0142C57.6292 95.0983 57.6127 95.1815 57.5807 95.2592C57.5486 95.3369 57.5017 95.4075 57.4425 95.4669C57.3833 95.5264 57.3131 95.5735 57.2357 95.6057C57.1584 95.6378 57.0755 95.6544 56.9918 95.6544ZM48.7063 94.3741H56.3545V91.0004H52.2946L48.7063 94.3741Z" fill="#093F68"/>
<path d="M63.2759 90.3218V95.0143H73.1802L68.2281 90.3218H63.2759Z" fill="#F56132"/>
<path d="M73.1802 95.6544H63.2758C63.1067 95.6544 62.9446 95.5869 62.8251 95.4669C62.7056 95.3468 62.6384 95.184 62.6384 95.0142V90.3602C62.6384 90.1904 62.7056 90.0275 62.8251 89.9075C62.9446 89.7874 63.1067 89.72 63.2758 89.72H68.228C68.3912 89.7189 68.5486 89.7808 68.6678 89.8928L73.6136 94.5789C73.7068 94.6665 73.7716 94.7802 73.7997 94.9053C73.8278 95.0304 73.8179 95.1611 73.7712 95.2804C73.7245 95.3997 73.6432 95.5022 73.5378 95.5746C73.4324 95.647 73.3078 95.6859 73.1802 95.6864V95.6544ZM63.9131 94.374H71.5613L67.973 91.0003H63.9131V94.374Z" fill="#093F68"/>
<path d="M60.7139 34.3005H59.3563C58.8389 34.3005 58.4194 34.7219 58.4194 35.2416V35.9138C58.4194 36.4335 58.8389 36.8548 59.3563 36.8548H60.7139C61.2313 36.8548 61.6508 36.4335 61.6508 35.9138V35.2416C61.6508 34.7219 61.2313 34.3005 60.7139 34.3005Z" fill="#6F87FC"/>
<path d="M60.7138 37.495H59.3626C58.9456 37.4933 58.5461 37.3262 58.2513 37.03C57.9564 36.7338 57.79 36.3326 57.7883 35.9138V35.2736C57.79 34.8548 57.9564 34.4535 58.2513 34.1574C58.5461 33.8612 58.9456 33.6941 59.3626 33.6924H60.7201C61.1371 33.6941 61.5366 33.8612 61.8314 34.1574C62.1263 34.4535 62.2927 34.8548 62.2944 35.2736V35.9138C62.2927 36.3337 62.1254 36.7359 61.8292 37.0323C61.5329 37.3286 61.1319 37.495 60.7138 37.495ZM59.3562 34.9343C59.2768 34.9343 59.2006 34.966 59.1444 35.0224C59.0882 35.0789 59.0567 35.1554 59.0567 35.2352V35.8754C59.0567 35.9552 59.0882 36.0317 59.1444 36.0881C59.2006 36.1445 59.2768 36.1762 59.3562 36.1762H60.7138C60.7932 36.1762 60.8694 36.1445 60.9256 36.0881C60.9818 36.0317 61.0133 35.9552 61.0133 35.8754V35.2352C61.0133 35.1554 60.9818 35.0789 60.9256 35.0224C60.8694 34.966 60.7932 34.9343 60.7138 34.9343H59.3562Z" fill="#093F68"/>
<path d="M59.1074 36.8547L57.2336 47.1103L60.1463 51.7835L62.581 47.5456L60.9621 36.8547H59.1074Z" fill="#6F87FC"/>
<path d="M60.1467 52.4238C60.039 52.4247 59.9328 52.3981 59.8381 52.3466C59.7433 52.2951 59.6631 52.2204 59.605 52.1293L56.6923 47.4688C56.6071 47.3338 56.5753 47.1717 56.6031 47.0143L58.5151 36.7716C58.5422 36.6225 58.6212 36.4879 58.7379 36.3917C58.8546 36.2956 59.0015 36.2442 59.1524 36.2467H61.0071C61.1608 36.2449 61.31 36.299 61.4271 36.399C61.5442 36.499 61.6214 36.6382 61.6445 36.7908L63.1869 47.4688C63.2091 47.6123 63.1821 47.759 63.1104 47.885L60.6757 52.1229C60.6206 52.2187 60.5418 52.2986 60.4468 52.3547C60.3519 52.4108 60.2441 52.4412 60.134 52.443L60.1467 52.4238ZM57.9033 46.9823L60.1276 50.5417L61.9185 47.4176L60.4144 37.495H59.6432L57.9033 46.9823Z" fill="#093F68"/>
<path d="M75.9144 70.9053H74.627V76.75H75.9144V70.9053Z" fill="#093F68"/>
<path d="M75.9338 77.3902H74.6591C74.49 77.3902 74.3279 77.3228 74.2084 77.2027C74.0889 77.0827 74.0217 76.9198 74.0217 76.7501V70.9053C74.0217 70.7355 74.0889 70.5727 74.2084 70.4526C74.3279 70.3326 74.49 70.2651 74.6591 70.2651H75.9338C76.1028 70.2651 76.2649 70.3326 76.3845 70.4526C76.504 70.5727 76.5711 70.7355 76.5711 70.9053V76.7501C76.5711 76.9198 76.504 77.0827 76.3845 77.2027C76.2649 77.3228 76.1028 77.3902 75.9338 77.3902ZM75.2964 76.1099V71.5455V76.1099Z" fill="#093F68"/>
<path d="M34.8758 103.938H0.637451V119.354H34.8758V103.938Z" fill="#6F87FC"/>
<path d="M34.8693 120H0.637348C0.468313 120 0.3062 119.932 0.186674 119.812C0.0671485 119.692 0 119.53 0 119.36V103.938C0 103.768 0.0671485 103.605 0.186674 103.485C0.3062 103.365 0.468313 103.298 0.637348 103.298H34.8693C35.0384 103.298 35.2005 103.365 35.32 103.485C35.4395 103.605 35.5067 103.768 35.5067 103.938V119.36C35.5067 119.53 35.4395 119.692 35.32 119.812C35.2005 119.932 35.0384 120 34.8693 120ZM1.2747 118.72H34.232V104.578H1.2747V118.72Z" fill="#093F68"/>
<path d="M77.1192 94.9885H42.8809V119.353H77.1192V94.9885Z" fill="#6F87FC"/>
<path d="M77.1191 120H42.8808C42.7117 120 42.5496 119.933 42.4301 119.813C42.3106 119.692 42.2434 119.53 42.2434 119.36V94.9886C42.2434 94.8188 42.3106 94.6559 42.4301 94.5359C42.5496 94.4158 42.7117 94.3484 42.8808 94.3484H77.1191C77.2882 94.3484 77.4503 94.4158 77.5698 94.5359C77.6893 94.6559 77.7565 94.8188 77.7565 94.9886V119.36C77.7565 119.53 77.6893 119.692 77.5698 119.813C77.4503 119.933 77.2882 120 77.1191 120ZM43.5181 118.72H76.4818V95.6287H43.5181V118.72Z" fill="#093F68"/>
<path d="M119.369 73.0051H85.1306V119.36H119.369V73.0051Z" fill="#6F87FC"/>
<path d="M119.362 120H85.1305C84.9615 120 84.7994 119.932 84.6798 119.812C84.5603 119.692 84.4932 119.529 84.4932 119.36V73.0049C84.4932 72.8351 84.5603 72.6723 84.6798 72.5522C84.7994 72.4322 84.9615 72.3647 85.1305 72.3647H119.362C119.532 72.3647 119.694 72.4322 119.813 72.5522C119.933 72.6723 120 72.8351 120 73.0049V119.36C120 119.529 119.933 119.692 119.813 119.812C119.694 119.932 119.532 120 119.362 120ZM85.7679 118.719H118.725V73.6451H85.7679V118.719Z" fill="#093F68"/>
</svg>
